{
classes = (
{
automatic = 1;
code = "A Aacute Abreve Acircumflex Adieresis Agrave Amacron Aogonek Aring Atilde AE B C Cacute Ccaron Ccedilla Ccircumflex Cdotaccent D Eth Dcaron Dcroat E Eacute Ebreve Ecaron Ecircumflex Edieresis Edotaccent Egrave Emacron Eogonek F G Gacute Gbreve Gcircumflex Gcommaaccent Gdotaccent H Hbar Hcircumflex I IJ Iacute Ibreve Icircumflex Idieresis Idotaccent Igrave Imacron Iogonek Itilde J Jcircumflex K Kcommaaccent L Lacute Lcaron Lcommaaccent Ldot Lslash M N Nacute Ncaron Ncommaaccent Eng Ntilde O Oacute Obreve Ocircumflex Odieresis Ograve Ohungarumlaut Omacron Oslash Otilde OE P Thorn Q R Racute Rcaron Rcommaaccent S Sacute Scaron Scedilla Scircumflex Scommaaccent Germandbls T Tbar Tcaron Tcedilla Tcommaaccent U Uacute Ubreve Ucircumflex Udieresis Ugrave Uhungarumlaut Umacron Uogonek Uring Utilde V W Wacute Wcircumflex Wdieresis Wgrave X Y Yacute Ycircumflex Ydieresis Ygrave Z Zacute Zcaron Zdotaccent Cacute.loclPLK Nacute.loclPLK Oacute.loclPLK Sacute.loclPLK Zacute.loclPLK A-cy Be-cy Ve-cy Ge-cy Gje-cy Gheupturn-cy De-cy Ie-cy Io-cy Zhe-cy Ze-cy Ii-cy ShortI-cy Iigrave-cy Ka-cy Kje-cy El-cy Em-cy En-cy O-cy Pe-cy Er-cy Es-cy Te-cy U-cy Ushort-cy Ef-cy Ha-cy Che-cy Tse-cy Sha-cy Shcha-cy Dzhe-cy Ia-cy Softsign-cy Hardsign-cy Yeru-cy Lje-cy Nje-cy Dze-cy E-cy Ereversed-cy I-cy Yi-cy Je-cy Tshe-cy Iu-cy Dje-cy Delta Omega";
name = Uppercase;
}
);
copyright = "Copyright (c) 2010-2012 by Claus Eggers S\U00F8rensen (es@forthehearts.net), with Reserved Font Name 'Playfair'.";
customParameters = (
{
name = openTypeOS2VendorID;
value = FTH;
},
{
name = openTypeNameLicense;
value = "This Font Software is licensed under the SIL Open Font License, Version 1.1. This license is available with a FAQ at http://scripts.sil.org/OFL";
},
{
name = openTypeNameLicenseURL;
value = "http://scripts.sil.org/OFL";
},
{
name = trademark;
value = "Playfair is a trademark of Claus Eggers S\U00F8rensen.";
},
{
name = note;

glyphs = (
{
glyphname = A;
lastChange = "2012-10-18 16:49:58 +0100";
layers = (
{
anchors = (
{
name = ogonek;
position = "{538, 0}";
},
{
name = top;
position = "{455, 708}";
}
);
layerId = UUID0;
name = "Regular Italic";
paths = (
{
closed = 1;
nodes = (
"390 600 LINE",
"383 598 LINE",
"410 104 LINE SMOOTH",
"413 36 OFFCURVE",
"388 23 OFFCURVE",
"324 20 CURVE",
"320 0 LINE",
"346 2 OFFCURVE",
"392 3 OFFCURVE",
"440 3 CURVE SMOOTH",
"478 3 OFFCURVE",
"522 2 OFFCURVE",
"549 0 CURVE",
"553 20 LINE",
"533 21 OFFCURVE",
"508 36 OFFCURVE",
"504 84 CURVE SMOOTH",
"464 713 LINE",
"459 713 OFFCURVE",
"454 713 OFFCURVE",
"449 713 CURVE",
"18 107 LINE SMOOTH",
"-23 49 OFFCURVE",
"-55 26 OFFCURVE",
"-82 20 CURVE",
"-87 0 LINE",
"-66 2 OFFCURVE",
"-46 3 OFFCURVE",
"-12 3 CURVE SMOOTH",
"23 3 OFFCURVE",
"65 2 OFFCURVE",
"102 0 CURVE",
"107 20 LINE",
"24 22 OFFCURVE",
"6 57 OFFCURVE",
"80 162 CURVE SMOOTH"
);
},
{
closed = 1;
nodes = (
"142 268 LINE",
"444 268 LINE",
"452 288 LINE",
"160 288 LINE"
);
}
);
width = 629;
},
{
anchors = (
{
name = ogonek;
position = "{542, 0}";
},
{
name = top;
position = "{472, 708}";
}
);
layerId = "DE547DD1-6B89-4C93-B672-7CF1D26AB89E";
name = "Bold Italic";
paths = (
{
closed = 1;
nodes = (
"379 600 LINE",
"326 542 LINE",
"349 104 LINE SMOOTH",
"353 36 OFFCURVE",
"327 23 OFFCURVE",
"263 20 CURVE",
"259 0 LINE",
"295 2 OFFCURVE",
"361 3 OFFCURVE",
"429 3 CURVE SMOOTH",
"485 3 OFFCURVE",
"559 2 OFFCURVE",
"598 0 CURVE",
"602 20 LINE",
"582 21 OFFCURVE",
"557 36 OFFCURVE",
"553 84 CURVE SMOOTH",
"513 713 LINE",
"491 710 OFFCURVE",
"462 710 OFFCURVE",
"438 713 CURVE",
"30 139 LINE SMOOTH",
"-28 58 OFFCURVE",
"-53 31 OFFCURVE",
"-92 20 CURVE",
"-96 0 LINE",
"-75 2 OFFCURVE",
"-59 3 OFFCURVE",
"-31 3 CURVE SMOOTH",
"6 3 OFFCURVE",
"42 2 OFFCURVE",
"111 0 CURVE",
"115 20 LINE",
"38 26 OFFCURVE",
"-7 54 OFFCURVE",
"47 131 CURVE SMOOTH"
);
},
{
closed = 1;
nodes = (
"131 268 LINE",
"433 268 LINE",
"441 288 LINE",
"149 288 LINE"
);
}
);
width = 669;
}
);
leftKerningGroup = A;
rightKerningGroup = A;
unicode = 0041;
},
{
glyphname = AE;
lastChange = "2012-10-18 15:46:59 +0100";
layers = (
{
anchors = (
{
name = top;
position = "{586, 708}";
}
);
layerId = UUID0;
name = "Regular Italic";
paths = (
{
closed = 1;
nodes = (
"615 773 LINE",
"6 84 LINE SMOOTH",
"-31 42 OFFCURVE",
"-61 21 OFFCURVE",
"-80 20 CURVE",
"-80 0 LINE",
"-64 2 OFFCURVE",
"-37 3 OFFCURVE",
"-13 3 CURVE SMOOTH",
"20 3 OFFCURVE",
"55 2 OFFCURVE",
"73 0 CURVE",
"73 20 LINE",
"-7 26 OFFCURVE",
"1 50 OFFCURVE",
"40 94 CURVE SMOOTH",
"641 773 LINE"
);
},
{
closed = 1;
nodes = (
"699 346 LINE",
"703 366 LINE",
"271 366 LINE",
"252 346 LINE"
);
},
{
closed = 1;
nodes = (
"628 346 LINE",
"703 341 OFFCURVE",
"675 280 OFFCURVE",
"675 234 CURVE",
"697 234 LINE",
"709 300 OFFCURVE",
"715 327 OFFCURVE",
"723 356 CURVE SMOOTH",
"734 398 OFFCURVE",
"740 426 OFFCURVE",
"757 478 CURVE",
"735 478 LINE",
"713 420 OFFCURVE",
"692 366 OFFCURVE",
"632 366 CURVE"
);
},
{
closed = 1;
nodes = (
"587 602 LINE SMOOTH",
"606 675 OFFCURVE",
"621 685 OFFCURVE",
"687 685 CURVE SMOOTH",
"780 685 LINE SMOOTH",
"860 685 OFFCURVE",
"882 646 OFFCURVE",
"861 528 CURVE",
"883 528 LINE",
"885 543 OFFCURVE",
"889 566 OFFCURVE",
"896 590 CURVE SMOOTH",
"903 613 OFFCURVE",
"917 661 OFFCURVE",
"934 708 CURVE",
"871 705 OFFCURVE",
"788 705 OFFCURVE",
"727 705 CURVE SMOOTH",
"667 705 OFFCURVE",
"537 705 OFFCURVE",
"440 708 CURVE",
"435 688 LINE",
"502 685 OFFCURVE",
"513 675 OFFCURVE",
"494 602 CURVE SMOOTH",
"362 106 LINE SMOOTH",
"343 33 OFFCURVE",
"327 23 OFFCURVE",
"259 20 CURVE",
"255 0 LINE",
"353 3 OFFCURVE",
"483 3 OFFCURVE",
"543 3 CURVE SMOOTH",
"610 3 OFFCURVE",
"701 3 OFFCURVE",
"769 0 CURVE",
"776 51 OFFCURVE",
"788 103 OFFCURVE",
"795 128 CURVE SMOOTH",
"802 156 OFFCURVE",
"809 182 OFFCURVE",
"816 200 CURVE",
"794 200 LINE",
"749 68 OFFCURVE",
"711 23 OFFCURVE",
"615 23 CURVE SMOOTH",
"512 23 LINE SMOOTH",
"446 23 OFFCURVE",
"436 33 OFFCURVE",
"455 106 CURVE SMOOTH"
);
}
);
width = 897;
},
{
anchors = (
{
name = top;
position = "{546, 708}";
}
);
layerId = "DE547DD1-6B89-4C93-B672-7CF1D26AB89E";
name = "Bold Italic";
paths = (
{
closed = 1;
nodes = (
"565 773 LINE",
"-4 84 LINE SMOOTH",
"-41 42 OFFCURVE",
"-71 21 OFFCURVE",
"-90 20 CURVE",
"-90 0 LINE",
"-74 2 OFFCURVE",
"-47 3 OFFCURVE",
"-23 3 CURVE SMOOTH",
"10 3 OFFCURVE",
"45 2 OFFCURVE",
"63 0 CURVE",
"63 20 LINE",
"-17 26 OFFCURVE",
"-9 50 OFFCURVE",
"30 94 CURVE SMOOTH",
"591 773 LINE"
);
},
{
closed = 1;
nodes = (
"729 346 LINE",
"733 366 LINE",
"241 366 LINE",
"222 346 LINE"
);
},
{
closed = 1;
nodes = (
"658 346 LINE",
"733 341 OFFCURVE",
"705 280 OFFCURVE",
"705 234 CURVE",
"727 234 LINE",
"739 300 OFFCURVE",
"745 327 OFFCURVE",
"753 356 CURVE SMOOTH",
"764 398 OFFCURVE",
"770 426 OFFCURVE",
"787 478 CURVE",
"765 478 LINE",
"743 420 OFFCURVE",
"722 366 OFFCURVE",
"662 366 CURVE"
);
},
{
closed = 1;
nodes = (
"667 602 LINE SMOOTH",
"686 675 OFFCURVE",
"701 685 OFFCURVE",
"767 685 CURVE SMOOTH",
"810 685 LINE SMOOTH",
"890 685 OFFCURVE",
"912 646 OFFCURVE",
"891 528 CURVE",
"913 528 LINE",
"915 543 OFFCURVE",
"919 566 OFFCURVE",
"926 590 CURVE SMOOTH",
"933 613 OFFCURVE",
"947 661 OFFCURVE",
"964 708 CURVE",
"901 705 OFFCURVE",
"818 705 OFFCURVE",
"757 705 CURVE SMOOTH",
"685 705 OFFCURVE",
"525 705 OFFCURVE",
"410 708 CURVE",
"405 688 LINE",
"472 685 OFFCURVE",
"483 675 OFFCURVE",
"464 602 CURVE SMOOTH",
"332 106 LINE SMOOTH",
"313 33 OFFCURVE",
"297 23 OFFCURVE",
"229 20 CURVE",
"225 0 LINE",
"341 3 OFFCURVE",
"501 3 OFFCURVE",
"573 3 CURVE SMOOTH",
"640 3 OFFCURVE",
"731 3 OFFCURVE",
"799 0 CURVE",
"806 51 OFFCURVE",
"818 103 OFFCURVE",
"825 128 CURVE SMOOTH",
"832 156 OFFCURVE",
"839 182 OFFCURVE",
"846 200 CURVE",
"824 200 LINE",
"779 68 OFFCURVE",
"741 23 OFFCURVE",
"645 23 CURVE SMOOTH",
"592 23 LINE SMOOTH",
"526 23 OFFCURVE",
"516 33 OFFCURVE",
"535 106 CURVE SMOOTH"
);
}
);
width = 910;
}
);
leftKerningGroup = AE;
rightKerningGroup = E;
unicode = 00C6;
},
{
glyphname = B;
lastChange = "2012-08-07 17:49:38 +0100";
layers = (
{
anchors = (
{
name = top;
position = "{403, 708}";
}
);
layerId = UUID0;
name = "Regular Italic";
paths = (
{
closed = 1;
nodes = (
"362 707 OFFCURVE",
"317 705 OFFCURVE",
"271 705 CURVE SMOOTH",
"227 705 OFFCURVE",
"179 706 OFFCURVE",
"152 708 CURVE",
"147 688 LINE",
"225 687 OFFCURVE",
"220 661 OFFCURVE",
"206 602 CURVE SMOOTH",
"74 106 LINE SMOOTH",
"55 33 OFFCURVE",
"39 23 OFFCURVE",
"-29 20 CURVE",
"-33 0 LINE",
"-5 2 OFFCURVE",
"42 3 OFFCURVE",
"89 3 CURVE SMOOTH",
"158 3 OFFCURVE",
"210 0 OFFCURVE",
"261 0 CURVE SMOOTH",
"405 0 OFFCURVE",
"559 68 OFFCURVE",
"559 211 CURVE SMOOTH",
"559 289 OFFCURVE",
"517 354 OFFCURVE",
"395 374 CURVE",
"497 406 OFFCURVE",
"600 476 OFFCURVE",
"600 579 CURVE SMOOTH",
"600 656 OFFCURVE",
"539 707 OFFCURVE",
"412 707 CURVE SMOOTH"
);
},
{
closed = 1;
nodes = (
"316 359 LINE SMOOTH",
"416 359 OFFCURVE",
"459 310 OFFCURVE",
"459 226 CURVE SMOOTH",
"459 97 OFFCURVE",
"393 23 OFFCURVE",
"218 23 CURVE SMOOTH",
"150 23 OFFCURVE",
"151 45 OFFCURVE",
"167 106 CURVE SMOOTH",
"302 617 LINE SMOOTH",
"317 675 OFFCURVE",
"334 688 OFFCURVE",
"393 688 CURVE SMOOTH",
"469 688 OFFCURVE",
"501 650 OFFCURVE",
"501 572 CURVE SMOOTH",
"501 469 OFFCURVE",
"425 376 OFFCURVE",
"304 376 CURVE SMOOTH",
"226 376 LINE",
"226 376 OFFCURVE",
"222 359 OFFCURVE",
"222 359 CURVE"
);
}
);
width = 632;
},
{
anchors = (
{
name = top;
position = "{458, 708}";
}
);
layerId = "DE547DD1-6B89-4C93-B672-7CF1D26AB89E";
name = "Bold Italic";
paths = (
{
closed = 1;
nodes = (
"418 707 OFFCURVE",
"383 705 OFFCURVE",
"311 705 CURVE SMOOTH",
"260 705 OFFCURVE",
"178 706 OFFCURVE",
"137 708 CURVE",
"132 688 LINE",
"209 686 OFFCURVE",
"207 663 OFFCURVE",
"191 602 CURVE SMOOTH",
"59 106 LINE SMOOTH",
"40 33 OFFCURVE",
"24 23 OFFCURVE",
"-44 20 CURVE",
"-48 0 LINE",
"-6 2 OFFCURVE",
"75 3 OFFCURVE",
"129 3 CURVE SMOOTH",
"222 3 OFFCURVE",
"270 0 OFFCURVE",
"306 0 CURVE SMOOTH",
"525 0 OFFCURVE",
"656 80 OFFCURVE",
"656 220 CURVE SMOOTH",
"656 308 OFFCURVE",
"559 372 OFFCURVE",
"390 370 CURVE",
"591 376 OFFCURVE",
"702 466 OFFCURVE",
"702 572 CURVE SMOOTH",
"702 655 OFFCURVE",
"634 707 OFFCURVE",
"460 707 CURVE SMOOTH"
);
},
{
closed = 1;
nodes = (
"348 359 LINE SMOOTH",
"422 359 OFFCURVE",
"444 302 OFFCURVE",
"444 240 CURVE SMOOTH",
"444 134 OFFCURVE",
"381 23 OFFCURVE",
"294 23 CURVE SMOOTH",
"241 23 OFFCURVE",
"253 71 OFFCURVE",
"262 106 CURVE SMOOTH",
"397 617 LINE SMOOTH",
"412 674 OFFCURVE",
"422 688 OFFCURVE",
"450 688 CURVE SMOOTH",
"497 688 OFFCURVE",
"506 650 OFFCURVE",
"506 603 CURVE SMOOTH",
"506 490 OFFCURVE",
"453 376 OFFCURVE",
"348 376 CURVE SMOOTH",
"281 376 LINE",
"281 376 OFFCURVE",
"277 359 OFFCURVE",
"277 359 CURVE"
);
}
);
width = 710;
}
);
leftKerningGroup = I;
rightKerningGroup = B;
unicode = 0042;
},
{
glyphname = C;
lastChange = "2012-08-08 21:06:19 +0100";
layers = (
{
anchors = (
{
name = bottom;
position = "{288, 0}";
},
{
name = top;
position = "{491, 708}";
}
);
layerId = UUID0;
name = "Regular Italic";
paths = (
{
closed = 1;
nodes = (
"691 708 LINE",
"669 649 OFFCURVE",
"654 638 OFFCURVE",
"636 657 CURVE SMOOTH",
"605 690 OFFCURVE",
"573 722 OFFCURVE",
"487 722 CURVE SMOOTH",
"235 722 OFFCURVE",
"51 448 OFFCURVE",
"51 221 CURVE SMOOTH",
"51 66 OFFCURVE",
"137 -14 OFFCURVE",
"284 -14 CURVE SMOOTH",
"372 -14 OFFCURVE",
"418 15 OFFCURVE",
"473 51 CURVE SMOOTH",
"495 65 OFFCURVE",
"506 64 OFFCURVE",
"506 34 CURVE SMOOTH",
"506 25 OFFCURVE",
"505 14 OFFCURVE",
"503 0 CURVE",
"525 0 LINE",
"534 51 OFFCURVE",
"551 119 OFFCURVE",
"584 240 CURVE",
"562 240 LINE",
"530 162 OFFCURVE",
"508 118 OFFCURVE",
"472 82 CURVE SMOOTH",
"422 31 OFFCURVE",
"350 4 OFFCURVE",
"294 4 CURVE SMOOTH",
"206 4 OFFCURVE",
"151 69 OFFCURVE",
"151 200 CURVE SMOOTH",
"151 423 OFFCURVE",
"312 704 OFFCURVE",
"485 704 CURVE SMOOTH",
"540 704 OFFCURVE",
"591 676 OFFCURVE",
"616 626 CURVE SMOOTH",
"633 592 OFFCURVE",
"636 547 OFFCURVE",
"626 478 CURVE",
"648 478 LINE",
"671 585 OFFCURVE",
"692 656 OFFCURVE",
"712 708 CURVE"
);
}
);
width = 670;
},
{
anchors = (
{
name = bottom;
position = "{336, 0}";
},
{
name = top;
position = "{507, 708}";
}
);
layerId = "DE547DD1-6B89-4C93-B672-7CF1D26AB89E";
name = "Bold Italic";
paths = (
{
closed = 1;
nodes = (
"747 708 LINE",
"727 653 OFFCURVE",
"709 636 OFFCURVE",
"692 657 CURVE SMOOTH",
"663 691 OFFCURVE",
"624 722 OFFCURVE",
"544 722 CURVE SMOOTH",
"249 722 OFFCURVE",
"37 481 OFFCURVE",
"37 242 CURVE SMOOTH",
"37 82 OFFCURVE",
"125 -14 OFFCURVE",
"329 -14 CURVE SMOOTH",
"409 -14 OFFCURVE",
"476 14 OFFCURVE",
"529 51 CURVE SMOOTH",
"552 67 OFFCURVE",
"562 61 OFFCURVE",
"562 34 CURVE SMOOTH",
"562 25 OFFCURVE",
"561 14 OFFCURVE",
"559 0 CURVE",
"581 0 LINE",
"590 51 OFFCURVE",
"607 119 OFFCURVE",
"640 240 CURVE",
"618 240 LINE",
"586 162 OFFCURVE",
"564 121 OFFCURVE",
"528 82 CURVE SMOOTH",
"493 45 OFFCURVE",
"442 24 OFFCURVE",
"398 24 CURVE SMOOTH",
"318 24 OFFCURVE",
"267 84 OFFCURVE",
"267 223 CURVE SMOOTH",
"267 474 OFFCURVE",
"405 694 OFFCURVE",
"565 694 CURVE SMOOTH",
"614 694 OFFCURVE",
"649 681 OFFCURVE",
"675 637 CURVE SMOOTH",
"698 598 OFFCURVE",
"694 544 OFFCURVE",
"682 478 CURVE",
"704 478 LINE",
"727 585 OFFCURVE",
"748 656 OFFCURVE",
"768 708 CURVE"
);
}
);
width = 708;
}
);
leftKerningGroup = O;
rightKerningGroup = C;
unicode = 0043;
},
{
glyphname = D;
lastChange = "2012-08-07 17:27:32 +0100";
layers = (
{
anchors = (
{
name = center;
position = "{363, 354}";
},
{
name = centre;
position = "{66, 345}";
},
{
name = top;
position = "{410, 708}";
}
);
layerId = UUID0;
name = "Regular Italic";
paths = (
{
closed = 1;
nodes = (
"704 631 OFFCURVE",
"611 708 OFFCURVE",
"422 708 CURVE SMOOTH",
"384 708 OFFCURVE",
"317 706 OFFCURVE",
"271 705 CURVE SMOOTH",
"227 704 OFFCURVE",
"177 706 OFFCURVE",
"149 708 CURVE",
"146 688 LINE",
"220 686 OFFCURVE",
"221 668 OFFCURVE",
"204 602 CURVE SMOOTH",
"73 106 LINE SMOOTH",
"54 33 OFFCURVE",
"37 23 OFFCURVE",
"-27 20 CURVE",
"-30 0 LINE",
"-4 2 OFFCURVE",
"43 3 OFFCURVE",
"90 3 CURVE SMOOTH",
"133 3 OFFCURVE",
"200 0 OFFCURVE",
"230 0 CURVE SMOOTH",
"505 0 OFFCURVE",
"704 237 OFFCURVE",
"704 487 CURVE SMOOTH"
);
},
{
closed = 1;
nodes = (
"147 18 OFFCURVE",
"150 45 OFFCURVE",
"166 104 CURVE SMOOTH",
"297 604 LINE SMOOTH",
"315 673 OFFCURVE",
"333 690 OFFCURVE",
"394 690 CURVE SMOOTH",
"546 690 OFFCURVE",
"608 631 OFFCURVE",
"608 512 CURVE SMOOTH",
"608 252 OFFCURVE",
"475 18 OFFCURVE",
"218 18 CURVE SMOOTH"
);
}
);
width = 725;
},
{
anchors = (
{
name = center;
position = "{401, 354}";
},
{
name = centre;
position = "{123, 345}";
},
{
name = top;
position = "{467, 708}";
}
);
layerId = "DE547DD1-6B89-4C93-B672-7CF1D26AB89E";
name = "Bold Italic";
paths = (
{
closed = 1;
nodes = (
"791 625 OFFCURVE",
"672 708 OFFCURVE",
"476 708 CURVE SMOOTH",
"438 708 OFFCURVE",
"356 706 OFFCURVE",
"328 705 CURVE SMOOTH",
"265 704 OFFCURVE",
"178 706 OFFCURVE",
"136 708 CURVE",
"133 688 LINE",
"202 684 OFFCURVE",
"204 653 OFFCURVE",
"191 602 CURVE SMOOTH",
"60 106 LINE SMOOTH",
"41 33 OFFCURVE",
"24 23 OFFCURVE",
"-40 20 CURVE",
"-43 0 LINE",
"-3 2 OFFCURVE",
"80 3 OFFCURVE",
"127 3 CURVE SMOOTH",
"208 3 OFFCURVE",
"252 0 OFFCURVE",
"285 0 CURVE SMOOTH",
"657 0 OFFCURVE",
"791 260 OFFCURVE",
"791 457 CURVE SMOOTH"
);
},
{
closed = 1;
nodes = (
"241 18 OFFCURVE",
"245 36 OFFCURVE",
"263 104 CURVE SMOOTH",
"394 604 LINE SMOOTH",
"414 679 OFFCURVE",
"414 690 OFFCURVE",
"458 690 CURVE SMOOTH",
"547 690 OFFCURVE",
"585 619 OFFCURVE",
"585 493 CURVE SMOOTH",
"585 287 OFFCURVE",
"479 18 OFFCURVE",
"293 18 CURVE SMOOTH"
);
}
);
width = 802;
}
);
leftKerningGroup = I;
rightKerningGroup = O;
unicode = 0044;
},
{
glyphname = E;
lastChange = "2012-09-29 16:03:06 +0100";
layers = (
{
anchors = (
{
name = bottom;
position = "{265, 0}";
},
{
name = ogonek;
position = "{469, 0}";
},
{
name = top;
position = "{420, 708}";
}
);
layerId = UUID0;
name = "Regular Italic";
paths = (
{
closed = 1;
nodes = (
"383 346 LINE",
"389 366 LINE",
"206 366 LINE",
"200 346 LINE"
);
},
{
closed = 1;
nodes = (
"296 346 LINE",
"383 346 OFFCURVE",
"366 278 OFFCURVE",
"357 214 CURVE",
"380 214 LINE",
"395 290 OFFCURVE",
"403 323 OFFCURVE",
"412 356 CURVE SMOOTH",
"421 389 OFFCURVE",
"428 422 OFFCURVE",
"453 498 CURVE",
"430 498 LINE",
"409 450 OFFCURVE",
"389 366 OFFCURVE",
"302 366 CURVE"
);
},
{
closed = 1;
nodes = (
"590 528 LINE",
"592 543 OFFCURVE",
"597 566 OFFCURVE",
"604 590 CURVE SMOOTH",
"610 613 OFFCURVE",
"625 661 OFFCURVE",
"642 708 CURVE",
"583 705 OFFCURVE",
"501 705 OFFCURVE",
"443 705 CURVE SMOOTH",
"383 705 OFFCURVE",
"251 705 OFFCURVE",
"153 708 CURVE",
"148 688 LINE",
"215 685 OFFCURVE",
"226 675 OFFCURVE",
"206 602 CURVE SMOOTH",
"73 106 LINE SMOOTH",
"53 33 OFFCURVE",
"38 23 OFFCURVE",
"-30 20 CURVE",
"-35 0 LINE",
"62 3 OFFCURVE",
"194 3 OFFCURVE",
"254 3 CURVE SMOOTH",
"321 3 OFFCURVE",
"415 3 OFFCURVE",
"483 0 CURVE",
"491 51 OFFCURVE",
"503 103 OFFCURVE",
"510 128 CURVE SMOOTH",
"517 156 OFFCURVE",
"525 182 OFFCURVE",
"532 200 CURVE",
"509 200 LINE",
"460 68 OFFCURVE",
"423 23 OFFCURVE",
"298 23 CURVE SMOOTH",
"225 23 LINE SMOOTH",
"157 23 OFFCURVE",
"146 33 OFFCURVE",
"166 106 CURVE SMOOTH",
"299 602 LINE SMOOTH",
"319 675 OFFCURVE",
"334 685 OFFCURVE",
"402 685 CURVE SMOOTH",
"475 685 LINE SMOOTH",
"581 685 OFFCURVE",
"586 646 OFFCURVE",
"567 528 CURVE"
);
}
);
width = 610;
},
{
anchors = (
{
name = bottom;
position = "{279, 0}";
},
{
name = ogonek;
position = "{517, 0}";
},
{
name = top;
position = "{428, 708}";
}
);
layerId = "DE547DD1-6B89-4C93-B672-7CF1D26AB89E";
name = "Bold Italic";
paths = (
{
closed = 1;
nodes = (
"456 346 LINE",
"460 366 LINE",
"246 366 LINE",
"242 346 LINE"
);
},
{
closed = 1;
nodes = (
"335 346 LINE",
"410 346 OFFCURVE",
"432 280 OFFCURVE",
"432 234 CURVE",
"454 234 LINE",
"466 300 OFFCURVE",
"469 315 OFFCURVE",
"480 356 CURVE SMOOTH",
"491 398 OFFCURVE",
"497 426 OFFCURVE",
"514 478 CURVE",
"492 478 LINE",
"470 420 OFFCURVE",
"414 366 OFFCURVE",
"349 366 CURVE"
);
},
{
closed = 1;
nodes = (
"640 528 LINE",
"643 544 OFFCURVE",
"647 566 OFFCURVE",
"653 590 CURVE SMOOTH",
"664 635 OFFCURVE",
"673 661 OFFCURVE",
"691 708 CURVE",
"628 705 OFFCURVE",
"545 705 OFFCURVE",
"484 705 CURVE SMOOTH",
"412 705 OFFCURVE",
"252 705 OFFCURVE",
"137 708 CURVE",
"132 688 LINE",
"199 685 OFFCURVE",
"210 675 OFFCURVE",
"191 602 CURVE SMOOTH",
"59 106 LINE SMOOTH",
"40 33 OFFCURVE",
"24 23 OFFCURVE",
"-44 20 CURVE",
"-48 0 LINE",
"68 3 OFFCURVE",
"228 3 OFFCURVE",
"300 3 CURVE SMOOTH",
"367 3 OFFCURVE",
"458 3 OFFCURVE",
"526 0 CURVE",
"533 51 OFFCURVE",
"545 103 OFFCURVE",
"552 128 CURVE SMOOTH",
"559 156 OFFCURVE",
"566 182 OFFCURVE",
"573 200 CURVE",
"551 200 LINE",
"486 68 OFFCURVE",
"428 23 OFFCURVE",
"332 23 CURVE SMOOTH",
"319 23 LINE SMOOTH",
"253 23 OFFCURVE",
"243 33 OFFCURVE",
"262 106 CURVE SMOOTH",
"394 602 LINE SMOOTH",
"413 675 OFFCURVE",
"428 685 OFFCURVE",
"494 685 CURVE SMOOTH",
"497 685 LINE SMOOTH",
"577 685 OFFCURVE",
"619 646 OFFCURVE",
"618 528 CURVE"
);
}
);
width = 637;
}
);
leftKerningGroup = I;
rightKerningGroup = E;
unicode = 0045;
},
{
glyphname = F;
lastChange = "2012-08-07 17:49:52 +0100";
layers = (
{
layerId = UUID0;
name = "Regular Italic";
paths = (
{
closed = 1;
nodes = (
"398 336 LINE",
"403 356 LINE",
"203 356 LINE",
"198 336 LINE"
);
},
{
closed = 1;
nodes = (
"582 498 LINE",
"586 519 OFFCURVE",
"592 548 OFFCURVE",
"601 580 CURVE SMOOTH",
"608 605 OFFCURVE",
"624 657 OFFCURVE",
"642 708 CURVE",
"583 705 OFFCURVE",
"501 705 OFFCURVE",
"443 705 CURVE SMOOTH",
"383 705 OFFCURVE",
"251 705 OFFCURVE",
"153 708 CURVE",
"148 688 LINE",
"215 685 OFFCURVE",
"226 675 OFFCURVE",
"206 602 CURVE SMOOTH",
"73 106 LINE SMOOTH",
"53 33 OFFCURVE",
"38 23 OFFCURVE",
"-30 20 CURVE",
"-35 0 LINE",
"-7 2 OFFCURVE",
"40 3 OFFCURVE",
"92 3 CURVE SMOOTH",
"146 3 OFFCURVE",
"204 2 OFFCURVE",
"239 0 CURVE",
"244 20 LINE",
"161 23 OFFCURVE",
"146 33 OFFCURVE",
"166 106 CURVE SMOOTH",
"299 602 LINE SMOOTH",
"319 675 OFFCURVE",
"334 685 OFFCURVE",
"402 685 CURVE SMOOTH",
"455 685 LINE SMOOTH",
"580 685 OFFCURVE",
"582 637 OFFCURVE",
"559 498 CURVE"
);
},
{
closed = 1;
nodes = (
"301 336 LINE",
"388 336 OFFCURVE",
"370 268 OFFCURVE",
"361 204 CURVE",
"384 204 LINE",
"400 280 OFFCURVE",
"408 313 OFFCURVE",
"416 346 CURVE SMOOTH",
"425 379 OFFCURVE",
"432 412 OFFCURVE",
"457 488 CURVE",
"434 488 LINE",
"414 440 OFFCURVE",
"393 356 OFFCURVE",
"306 356 CURVE"
);
}
);
width = 566;
},
{
layerId = "DE547DD1-6B89-4C93-B672-7CF1D26AB89E";
name = "Bold Italic";
paths = (
{
closed = 1;
nodes = (
"466 346 LINE",
"470 366 LINE",
"256 366 LINE",
"252 346 LINE"
);
},
{
closed = 1;
nodes = (
"630 498 LINE",
"635 523 OFFCURVE",
"643 554 OFFCURVE",
"653 590 CURVE SMOOTH",
"665 635 OFFCURVE",
"673 661 OFFCURVE",
"691 708 CURVE",
"628 705 OFFCURVE",
"545 705 OFFCURVE",
"484 705 CURVE SMOOTH",
"412 705 OFFCURVE",
"252 705 OFFCURVE",
"137 708 CURVE",
"132 688 LINE",
"199 685 OFFCURVE",
"210 675 OFFCURVE",
"191 602 CURVE SMOOTH",
"59 106 LINE SMOOTH",
"40 33 OFFCURVE",
"24 23 OFFCURVE",
"-44 20 CURVE",
"-48 0 LINE",
"-8 2 OFFCURVE",
"62 3 OFFCURVE",
"138 3 CURVE SMOOTH",
"212 3 OFFCURVE",
"292 2 OFFCURVE",
"337 0 CURVE",
"341 20 LINE",
"257 23 OFFCURVE",
"243 33 OFFCURVE",
"262 106 CURVE SMOOTH",
"394 602 LINE SMOOTH",
"411 675 OFFCURVE",
"425 685 OFFCURVE",
"484 685 CURVE SMOOTH",
"487 685 LINE SMOOTH",
"566 685 OFFCURVE",
"619 640 OFFCURVE",
"608 498 CURVE"
);
},
{
closed = 1;
nodes = (
"345 346 LINE",
"404 346 OFFCURVE",
"437 296 OFFCURVE",
"437 204 CURVE",
"459 204 LINE",
"471 270 OFFCURVE",
"480 315 OFFCURVE",
"490 356 CURVE SMOOTH",
"500 398 OFFCURVE",
"507 426 OFFCURVE",
"524 478 CURVE",
"502 478 LINE",
"472 410 OFFCURVE",
"420 366 OFFCURVE",
"359 366 CURVE"
);
}
);
width = 603;
}
);
leftKerningGroup = I;
rightKerningGroup = F;
unicode = 0046;
},
{
glyphname = G;
lastChange = "2012-08-07 17:26:59 +0100";
layers = (
{
anchors = (
{
name = bottom;
position = "{310, 0}";
},
{
name = top;
position = "{488, 708}";
}
);
layerId = UUID0;
name = "Regular Italic";
paths = (
{
closed = 1;
nodes = (
"199 6 OFFCURVE",
"143 62 OFFCURVE",
"143 182 CURVE SMOOTH",
"143 369 OFFCURVE",
"260 704 OFFCURVE",
"482 704 CURVE SMOOTH",
"549 704 OFFCURVE",
"608 675 OFFCURVE",
"636 626 CURVE SMOOTH",
"647 605 OFFCURVE",
"650 581 OFFCURVE",
"650 553 CURVE SMOOTH",
"650 529 OFFCURVE",
"648 504 OFFCURVE",
"645 478 CURVE",
"667 478 LINE",
"690 585 OFFCURVE",
"711 656 OFFCURVE",
"731 708 CURVE",
"709 708 LINE",
"688 647 OFFCURVE",
"672 637 OFFCURVE",
"652 657 CURVE SMOOTH",
"615 693 OFFCURVE",
"575 722 OFFCURVE",
"488 722 CURVE SMOOTH",
"227 722 OFFCURVE",
"50 441 OFFCURVE",
"50 215 CURVE SMOOTH",
"50 69 OFFCURVE",
"138 -14 OFFCURVE",
"302 -14 CURVE SMOOTH",
"367 -14 OFFCURVE",
"420 7 OFFCURVE",
"472 40 CURVE SMOOTH",
"496 55 OFFCURVE",
"502 57 OFFCURVE",
"510 57 CURVE SMOOTH",
"527 57 OFFCURVE",
"527 23 OFFCURVE",
"522 0 CURVE",
"542 0 LINE",
"595 198 LINE SMOOTH",
"615 272 OFFCURVE",
"624 281 OFFCURVE",
"669 284 CURVE",
"674 304 LINE",
"650 302 OFFCURVE",
"613 301 OFFCURVE",
"569 301 CURVE SMOOTH",
"524 301 OFFCURVE",
"464 302 OFFCURVE",
"429 304 CURVE",
"424 284 LINE",
"507 281 OFFCURVE",
"520 269 OFFCURVE",
"499 188 CURVE SMOOTH",
"476 100 LINE SMOOTH",
"469 75 OFFCURVE",
"459 54 OFFCURVE",
"430 37 CURVE SMOOTH",
"406 23 OFFCURVE",
"364 6 OFFCURVE",
"316 6 CURVE SMOOTH"
);
}
);
width = 705;
},
{
anchors = (
{
name = bottom;
position = "{350, 0}";
},
{
name = top;
position = "{528, 708}";
}
);
layerId = "DE547DD1-6B89-4C93-B672-7CF1D26AB89E";
name = "Bold Italic";
paths = (
{
closed = 1;
nodes = (
"274 6 OFFCURVE",
"233 62 OFFCURVE",
"233 182 CURVE SMOOTH",
"233 369 OFFCURVE",
"337 704 OFFCURVE",
"532 704 CURVE SMOOTH",
"609 704 OFFCURVE",
"661 676 OFFCURVE",
"686 626 CURVE SMOOTH",
"698 602 OFFCURVE",
"700 581 OFFCURVE",
"700 553 CURVE SMOOTH",
"700 529 OFFCURVE",
"698 504 OFFCURVE",
"695 478 CURVE",
"717 478 LINE",
"740 585 OFFCURVE",
"761 656 OFFCURVE",
"781 708 CURVE",
"759 708 LINE",
"738 647 OFFCURVE",
"722 637 OFFCURVE",
"702 657 CURVE SMOOTH",
"665 693 OFFCURVE",
"625 722 OFFCURVE",
"538 722 CURVE SMOOTH",
"235 722 OFFCURVE",
"30 441 OFFCURVE",
"30 215 CURVE SMOOTH",
"30 69 OFFCURVE",
"140 -14 OFFCURVE",
"320 -14 CURVE SMOOTH",
"360 -14 OFFCURVE",
"399 -8 OFFCURVE",
"448 15 CURVE SMOOTH",
"482 30 OFFCURVE",
"526 57 OFFCURVE",
"563 57 CURVE SMOOTH",
"589 57 OFFCURVE",
"603 42 OFFCURVE",
"602 0 CURVE",
"622 0 LINE",
"675 198 LINE SMOOTH",
"695 272 OFFCURVE",
"704 281 OFFCURVE",
"749 284 CURVE",
"754 304 LINE",
"718 302 OFFCURVE",
"657 301 OFFCURVE",
"589 301 CURVE SMOOTH",
"529 301 OFFCURVE",
"444 302 OFFCURVE",
"399 304 CURVE",
"394 284 LINE",
"477 281 OFFCURVE",
"490 269 OFFCURVE",
"469 188 CURVE SMOOTH",
"446 100 LINE SMOOTH",
"434 55 OFFCURVE",
"428 34 OFFCURVE",
"408 20 CURVE SMOOTH",
"393 9 OFFCURVE",
"373 6 OFFCURVE",
"356 6 CURVE SMOOTH"
);
}
);
width = 761;
}
);
leftKerningGroup = O;
rightKerningGroup = G;
unicode = 0047;
},
{
glyphname = H;
lastChange = "2012-08-06 13:35:49 +0100";
layers = (
{
anchors = (
{
name = center;
position = "{378, 354}";
},
{
name = top;
position = "{487, 708}";
}
);
layerId = UUID0;
name = "Regular Italic";
paths = (
{
closed = 1;
nodes = (
"563 346 LINE",
"563 346 OFFCURVE",
"571 366 OFFCURVE",
"571 366 CURVE",
"218 366 LINE",
"211 346 LINE"
);
},
{
closed = 1;
nodes = (
"487 106 LINE SMOOTH",
"468 33 OFFCURVE",
"452 23 OFFCURVE",
"384 20 CURVE",
"380 0 LINE",
"411 2 OFFCURVE",
"461 3 OFFCURVE",
"507 3 CURVE SMOOTH",
"559 3 OFFCURVE",
"607 2 OFFCURVE",
"635 0 CURVE",
"639 20 LINE",
"571 23 OFFCURVE",
"561 33 OFFCURVE",
"580 106 CURVE SMOOTH",
"712 602 LINE SMOOTH",
"731 675 OFFCURVE",
"746 685 OFFCURVE",
"815 688 CURVE",
"820 708 LINE",
"791 706 OFFCURVE",
"743 705 OFFCURVE",
"691 705 CURVE SMOOTH",
"645 705 OFFCURVE",
"595 706 OFFCURVE",
"565 708 CURVE",
"560 688 LINE",
"627 685 OFFCURVE",
"639 675 OFFCURVE",
"619 602 CURVE SMOOTH"
);
},
{
closed = 1;
nodes = (
"298 602 LINE SMOOTH",
"317 675 OFFCURVE",
"332 685 OFFCURVE",
"401 688 CURVE",
"406 708 LINE",
"374 706 OFFCURVE",
"324 705 OFFCURVE",
"278 705 CURVE SMOOTH",
"226 705 OFFCURVE",
"178 706 OFFCURVE",
"151 708 CURVE",
"146 688 LINE",
"213 685 OFFCURVE",
"224 675 OFFCURVE",
"205 602 CURVE SMOOTH",
"73 106 LINE SMOOTH",
"54 33 OFFCURVE",
"38 23 OFFCURVE",
"-28 20 CURVE",
"-33 0 LINE",
"-4 2 OFFCURVE",
"42 3 OFFCURVE",
"94 3 CURVE SMOOTH",
"140 3 OFFCURVE",
"190 2 OFFCURVE",
"221 0 CURVE",
"225 20 LINE",
"157 23 OFFCURVE",
"147 33 OFFCURVE",
"166 106 CURVE SMOOTH"
);
}
);
width = 755;
},
{
anchors = (
{
name = center;
position = "{423, 354}";
},
{
name = top;
position = "{533, 708}";
}
);
layerId = "DE547DD1-6B89-4C93-B672-7CF1D26AB89E";
name = "Bold Italic";
paths = (
{
closed = 1;
nodes = (
"609 346 LINE",
"609 346 OFFCURVE",
"617 366 OFFCURVE",
"617 366 CURVE",
"264 366 LINE",
"257 346 LINE"
);
},
{
closed = 1;
nodes = (
"483 106 LINE SMOOTH",
"464 33 OFFCURVE",
"448 23 OFFCURVE",
"380 20 CURVE",
"376 0 LINE",
"417 2 OFFCURVE",
"487 3 OFFCURVE",
"553 3 CURVE SMOOTH",
"629 3 OFFCURVE",
"701 2 OFFCURVE",
"741 0 CURVE",
"745 20 LINE",
"677 23 OFFCURVE",
"667 33 OFFCURVE",
"686 106 CURVE SMOOTH",
"818 602 LINE SMOOTH",
"837 675 OFFCURVE",
"852 685 OFFCURVE",
"921 688 CURVE",
"926 708 LINE",
"885 706 OFFCURVE",
"813 705 OFFCURVE",
"737 705 CURVE SMOOTH",
"671 705 OFFCURVE",
"601 706 OFFCURVE",
"561 708 CURVE",
"556 688 LINE",
"623 685 OFFCURVE",
"635 675 OFFCURVE",
"615 602 CURVE SMOOTH"
);
},
{
closed = 1;
nodes = (
"394 602 LINE SMOOTH",
"413 675 OFFCURVE",
"428 685 OFFCURVE",
"497 688 CURVE",
"502 708 LINE",
"455 706 OFFCURVE",
"390 705 OFFCURVE",
"324 705 CURVE SMOOTH",
"248 705 OFFCURVE",
"176 706 OFFCURVE",
"137 708 CURVE",
"132 688 LINE",
"199 685 OFFCURVE",
"210 675 OFFCURVE",
"191 602 CURVE SMOOTH",
"59 106 LINE SMOOTH",
"40 33 OFFCURVE",
"23 23 OFFCURVE",
"-42 20 CURVE",
"-47 0 LINE",
"-6 2 OFFCURVE",
"64 3 OFFCURVE",
"140 3 CURVE SMOOTH",
"206 3 OFFCURVE",
"276 2 OFFCURVE",
"317 0 CURVE",
"321 20 LINE",
"253 23 OFFCURVE",
"243 33 OFFCURVE",
"262 106 CURVE SMOOTH"
);
}
);
width = 846;
}
);
leftKerningGroup = I;
rightKerningGroup = I;
unicode = 0048;
},
{
glyphname = Hbar;
lastChange = "2012-08-06 13:35:49 +0100";
layers = (
{
components = (
{
name = H;
transform = "{1, 0, 0, 1, 2, 0}";
}
);
layerId = UUID0;
name = "Regular Italic";
paths = (
{
closed = 1;
nodes = (
"116 533 LINE",
"111 513 LINE",
"784 513 LINE",
"789 533 LINE"
);
}
);
width = 757;
},
{
components = (
{
name = H;
transform = "{1, 0, 0, 1, 1, 0}";
}
);
layerId = "DE547DD1-6B89-4C93-B672-7CF1D26AB89E";
name = "Bold Italic";
paths = (
{
closed = 1;
nodes = (
"85 533 LINE",
"80 513 LINE",
"883 513 LINE",
"888 533 LINE"
);
}
);
width = 846;
}
);
leftKerningGroup = I;
rightKerningGroup = I;
unicode = 0126;
},
{
glyphname = I;
lastChange = "2012-09-29 16:03:23 +0100";
layers = (
{
anchors = (
{
name = bottom;
position = "{94, 0}";
},
{
name = ogonek;
position = "{221, 0}";
},
{
name = top;
position = "{298, 708}";
}
);
layerId = UUID0;
name = "Regular Italic";
paths = (
{
closed = 1;
nodes = (
"298 602 LINE SMOOTH",
"317 675 OFFCURVE",
"332 685 OFFCURVE",
"401 688 CURVE",
"406 708 LINE",
"374 706 OFFCURVE",
"324 705 OFFCURVE",
"278 705 CURVE SMOOTH",
"226 705 OFFCURVE",
"178 706 OFFCURVE",
"151 708 CURVE",
"146 688 LINE",
"213 685 OFFCURVE",
"224 675 OFFCURVE",
"205 602 CURVE SMOOTH",
"73 106 LINE SMOOTH",
"54 33 OFFCURVE",
"38 23 OFFCURVE",
"-28 20 CURVE",
"-33 0 LINE",
"-4 2 OFFCURVE",
"42 3 OFFCURVE",
"94 3 CURVE SMOOTH",
"140 3 OFFCURVE",
"190 2 OFFCURVE",
"221 0 CURVE",
"225 20 LINE",
"157 23 OFFCURVE",
"147 33 OFFCURVE",
"166 106 CURVE SMOOTH"
);
}
);
width = 341;
},
{
anchors = (
{
name = bottom;
position = "{130, 0}";
},
{
name = ogonek;
position = "{298, 0}";
},
{
name = top;
position = "{344, 708}";
}
);
layerId = "DE547DD1-6B89-4C93-B672-7CF1D26AB89E";
name = "Bold Italic";
paths = (
{
closed = 1;
nodes = (
"394 602 LINE SMOOTH",
"413 675 OFFCURVE",
"428 685 OFFCURVE",
"497 688 CURVE",
"502 708 LINE",
"452 706 OFFCURVE",
"384 705 OFFCURVE",
"314 705 CURVE SMOOTH",
"242 705 OFFCURVE",
"174 706 OFFCURVE",
"137 708 CURVE",
"132 688 LINE",
"199 685 OFFCURVE",
"210 675 OFFCURVE",
"191 602 CURVE SMOOTH",
"59 106 LINE SMOOTH",
"40 33 OFFCURVE",
"23 23 OFFCURVE",
"-42 20 CURVE",
"-47 0 LINE",
"-8 2 OFFCURVE",
"58 3 OFFCURVE",
"130 3 CURVE SMOOTH",
"200 3 OFFCURVE",
"274 2 OFFCURVE",
"317 0 CURVE",
"321 20 LINE",
"253 23 OFFCURVE",
"243 33 OFFCURVE",
"262 106 CURVE SMOOTH"
);
}
);
width = 422;
}
);
leftKerningGroup = I;
rightKerningGroup = I;
unicode = 0049;
},
{
glyphname = IJ;
lastChange = "2012-08-07 17:59:01 +0100";
layers = (
{
layerId = UUID0;
name = "Regular Italic";
paths = (
{
closed = 1;
nodes = (
"461 366 LINE",
"461 366 OFFCURVE",
"457 346 OFFCURVE",
"457 346 CURVE",
"778 346 LINE",
"778 346 OFFCURVE",
"782 366 OFFCURVE",
"782 366 CURVE"
);
},
{
closed = 1;
nodes = (
"241 517 OFFCURVE",
"150 533 OFFCURVE",
"150 596 CURVE SMOOTH",
"150 638 OFFCURVE",
"188 659 OFFCURVE",
"243 659 CURVE SMOOTH",
"393 659 OFFCURVE",
"472 603 OFFCURVE",
"621 603 CURVE SMOOTH",
"686 603 OFFCURVE",
"754 630 OFFCURVE",
"817 663 CURVE",
"699 562 OFFCURVE",
"609 494 OFFCURVE",
"566 295 CURVE SMOOTH",
"534 145 LINE SMOOTH",
"499 -15 OFFCURVE",
"480 -172 OFFCURVE",
"370 -172 CURVE SMOOTH",
"356 -172 OFFCURVE",
"344 -170 OFFCURVE",
"335 -167 CURVE",
"356 -157 OFFCURVE",
"375 -138 OFFCURVE",
"373 -114 CURVE SMOOTH",
"371 -92 OFFCURVE",
"353 -74 OFFCURVE",
"329 -74 CURVE SMOOTH",
"296 -74 OFFCURVE",
"274 -104 OFFCURVE",
"276 -133 CURVE SMOOTH",
"279 -170 OFFCURVE",
"321 -188 OFFCURVE",
"380 -188 CURVE SMOOTH",
"506 -188 OFFCURVE",
"578 -69 OFFCURVE",
"607 65 CURVE SMOOTH",
"668 340 LINE SMOOTH",
"702 495 OFFCURVE",
"742 590 OFFCURVE",
"833 666 CURVE",
"903 693 OFFCURVE",
"915 716 OFFCURVE",
"898 730 CURVE SMOOTH",
"878 747 OFFCURVE",
"851 720 OFFCURVE",
"824 677 CURVE",
"760 650 OFFCURVE",
"717 632 OFFCURVE",
"649 632 CURVE SMOOTH",
"490 632 OFFCURVE",
"414 739 OFFCURVE",
"252 739 CURVE SMOOTH",
"169 739 OFFCURVE",
"108 684 OFFCURVE",
"108 612 CURVE SMOOTH",
"108 518 OFFCURVE",
"217 497 OFFCURVE",
"290 497 CURVE SMOOTH",
"335 497 OFFCURVE",
"395 512 OFFCURVE",
"439 541 CURVE",
"431 556 LINE",
"392 531 OFFCURVE",
"344 517 OFFCURVE",
"301 517 CURVE SMOOTH"
);
},
{
closed = 1;
nodes = (
"145 106 LINE SMOOTH",
"124 34 OFFCURVE",
"110 23 OFFCURVE",
"44 20 CURVE",
"39 0 LINE",
"68 2 OFFCURVE",
"114 3 OFFCURVE",
"166 3 CURVE SMOOTH",
"212 3 OFFCURVE",
"262 2 OFFCURVE",
"293 0 CURVE",
"297 20 LINE",
"224 21 OFFCURVE",
"219 40 OFFCURVE",
"238 106 CURVE SMOOTH",
"356 512 LINE",
"263 512 LINE"
);
}
);
width = 822;
},
{
layerId = "DE547DD1-6B89-4C93-B672-7CF1D26AB89E";
name = "Bold Italic";
paths = (
{
closed = 1;
nodes = (
"427 366 LINE",
"427 366 OFFCURVE",
"424 346 OFFCURVE",
"424 346 CURVE",
"855 346 LINE",
"855 346 OFFCURVE",
"858 366 OFFCURVE",
"858 366 CURVE"
);
},
{
closed = 1;
nodes = (
"227 462 OFFCURVE",
"186 494 OFFCURVE",
"186 538 CURVE SMOOTH",
"186 574 OFFCURVE",
"212 589 OFFCURVE",
"258 589 CURVE SMOOTH",
"351 589 OFFCURVE",
"429 543 OFFCURVE",
"527 543 CURVE SMOOTH",
"668 543 OFFCURVE",
"719 614 OFFCURVE",
"868 650 CURVE",
"704 549 OFFCURVE",
"589 465 OFFCURVE",
"531 262 CURVE SMOOTH",
"462 20 LINE SMOOTH",
"424 -114 OFFCURVE",
"401 -171 OFFCURVE",
"341 -171 CURVE SMOOTH",
"334 -171 OFFCURVE",
"328 -171 OFFCURVE",
"318 -169 CURVE",
"361 -151 OFFCURVE",
"383 -123 OFFCURVE",
"383 -85 CURVE SMOOTH",
"383 -36 OFFCURVE",
"338 -12 OFFCURVE",
"282 -12 CURVE SMOOTH",
"214 -12 OFFCURVE",
"178 -49 OFFCURVE",
"178 -99 CURVE SMOOTH",
"178 -166 OFFCURVE",
"252 -188 OFFCURVE",
"343 -188 CURVE SMOOTH",
"552 -188 OFFCURVE",
"645 -72 OFFCURVE",
"680 65 CURVE SMOOTH",
"742 307 LINE SMOOTH",
"782 462 OFFCURVE",
"823 590 OFFCURVE",
"907 666 CURVE",
"978 693 OFFCURVE",
"990 716 OFFCURVE",
"974 730 CURVE SMOOTH",
"954 747 OFFCURVE",
"926 720 OFFCURVE",
"898 677 CURVE",
"833 651 OFFCURVE",
"743 642 OFFCURVE",
"684 642 CURVE SMOOTH",
"518 642 OFFCURVE",
"466 739 OFFCURVE",
"287 739 CURVE SMOOTH",
"158 739 OFFCURVE",
"95 682 OFFCURVE",
"95 599 CURVE SMOOTH",
"95 492 OFFCURVE",
"188 440 OFFCURVE",
"322 440 CURVE SMOOTH",
"410 440 OFFCURVE",
"452 458 OFFCURVE",
"497 479 CURVE",
"490 497 LINE",
"445 476 OFFCURVE",
"407 462 OFFCURVE",
"324 462 CURVE SMOOTH"
);
},
{
closed = 1;
nodes = (
"106 106 LINE SMOOTH",
"83 34 OFFCURVE",
"70 23 OFFCURVE",
"5 20 CURVE",
"0 0 LINE",
"39 2 OFFCURVE",
"105 3 OFFCURVE",
"177 3 CURVE SMOOTH",
"247 3 OFFCURVE",
"321 2 OFFCURVE",
"364 0 CURVE",
"368 20 LINE",
"300 23 OFFCURVE",
"286 34 OFFCURVE",
"309 106 CURVE SMOOTH",
"420 460 LINE",
"217 460 LINE"
);
}
);
width = 879;
}
);
leftKerningGroup = IJ;
rightKerningGroup = J;
unicode = 0132;
},
{
glyphname = J;
lastChange = "2012-10-18 14:33:04 +0100";
layers = (
{
anchors = (
{
name = top;
position = "{480, 708}";
}
);
layerId = UUID0;
name = "Regular Italic";
paths = (
{
closed = 1;
nodes = (
"240 366 LINE",
"240 366 OFFCURVE",
"237 346 OFFCURVE",
"237 346 CURVE",
"558 346 LINE",
"558 346 OFFCURVE",
"561 366 OFFCURVE",
"561 366 CURVE"
);
},
{
closed = 1;
nodes = (
"520 603 OFFCURVE",
"589 630 OFFCURVE",
"653 663 CURVE",
"512 562 OFFCURVE",
"393 461 OFFCURVE",
"342 262 CURVE SMOOTH",
"312 145 LINE SMOOTH",
"271 -13 OFFCURVE",
"247 -172 OFFCURVE",
"137 -172 CURVE SMOOTH",
"123 -172 OFFCURVE",
"111 -170 OFFCURVE",
"102 -167 CURVE",
"124 -157 OFFCURVE",
"143 -138 OFFCURVE",
"142 -114 CURVE SMOOTH",
"141 -92 OFFCURVE",
"124 -74 OFFCURVE",
"100 -74 CURVE SMOOTH",
"67 -74 OFFCURVE",
"44 -104 OFFCURVE",
"45 -133 CURVE SMOOTH",
"46 -170 OFFCURVE",
"88 -188 OFFCURVE",
"147 -188 CURVE SMOOTH",
"273 -188 OFFCURVE",
"348 -71 OFFCURVE",
"383 65 CURVE SMOOTH",
"445 307 LINE SMOOTH",
"485 462 OFFCURVE",
"556 590 OFFCURVE",
"670 666 CURVE",
"741 693 OFFCURVE",
"753 716 OFFCURVE",
"737 730 CURVE SMOOTH",
"717 747 OFFCURVE",
"689 720 OFFCURVE",
"661 677 CURVE",
"596 650 OFFCURVE",
"552 632 OFFCURVE",
"484 632 CURVE SMOOTH",
"377 632 OFFCURVE",
"331 739 OFFCURVE",
"221 739 CURVE SMOOTH",
"146 739 OFFCURVE",
"102 687 OFFCURVE",
"105 616 CURVE SMOOTH",
"107 539 OFFCURVE",
"163 509 OFFCURVE",
"215 500 CURVE",
"215 500 OFFCURVE",
"218 520 OFFCURVE",
"218 520 CURVE",
"172 529 OFFCURVE",
"145 553 OFFCURVE",
"144 593 CURVE SMOOTH",
"142 634 OFFCURVE",
"164 659 OFFCURVE",
"209 659 CURVE SMOOTH",
"307 659 OFFCURVE",
"358 603 OFFCURVE",
"455 603 CURVE SMOOTH"
);
}
);
width = 636;
},
{
anchors = (
{
name = top;
position = "{554, 708}";
}
);
layerId = "DE547DD1-6B89-4C93-B672-7CF1D26AB89E";
name = "Bold Italic";
paths = (
{
closed = 1;
nodes = (
"264 366 LINE",
"264 366 OFFCURVE",
"261 346 OFFCURVE",
"261 346 CURVE",
"692 346 LINE",
"692 346 OFFCURVE",
"695 366 OFFCURVE",
"695 366 CURVE"
);
},
{
closed = 1;
nodes = (
"535 543 OFFCURVE",
"576 614 OFFCURVE",
"705 650 CURVE",
"541 549 OFFCURVE",
"426 465 OFFCURVE",
"368 262 CURVE SMOOTH",
"299 20 LINE SMOOTH",
"261 -114 OFFCURVE",
"238 -171 OFFCURVE",
"178 -171 CURVE SMOOTH",
"171 -171 OFFCURVE",
"165 -171 OFFCURVE",
"155 -169 CURVE",
"198 -151 OFFCURVE",
"220 -123 OFFCURVE",
"220 -85 CURVE SMOOTH",
"220 -36 OFFCURVE",
"175 -12 OFFCURVE",
"119 -12 CURVE SMOOTH",
"51 -12 OFFCURVE",
"15 -49 OFFCURVE",
"15 -99 CURVE SMOOTH",
"15 -166 OFFCURVE",
"89 -188 OFFCURVE",
"180 -188 CURVE SMOOTH",
"389 -188 OFFCURVE",
"482 -72 OFFCURVE",
"517 65 CURVE SMOOTH",
"579 307 LINE SMOOTH",
"619 462 OFFCURVE",
"660 590 OFFCURVE",
"744 666 CURVE",
"815 693 OFFCURVE",
"827 716 OFFCURVE",
"811 730 CURVE SMOOTH",
"791 747 OFFCURVE",
"763 720 OFFCURVE",
"735 677 CURVE",
"685 651 OFFCURVE",
"615 642 OFFCURVE",
"571 642 CURVE SMOOTH",
"425 642 OFFCURVE",
"383 739 OFFCURVE",
"241 739 CURVE SMOOTH",
"133 739 OFFCURVE",
"82 682 OFFCURVE",
"82 599 CURVE SMOOTH",
"82 502 OFFCURVE",
"168 448 OFFCURVE",
"299 440 CURVE",
"299 440 OFFCURVE",
"301 458 OFFCURVE",
"301 458 CURVE",
"201 464 OFFCURVE",
"163 494 OFFCURVE",
"163 538 CURVE SMOOTH",
"163 574 OFFCURVE",
"189 589 OFFCURVE",
"220 589 CURVE SMOOTH",
"273 589 OFFCURVE",
"336 543 OFFCURVE",
"414 543 CURVE SMOOTH"
);
}
);
width = 715;
}
);
leftKerningGroup = J;
rightKerningGroup = J;
unicode = 004A;
},
{
glyphname = K;
lastChange = "2012-09-28 15:53:20 +0100";
layers = (
{
anchors = (
{
name = bottom;
position = "{262, 0}";
},
{
name = top;
position = "{450, 708}";
}
);
layerId = UUID0;
name = "Regular Italic";
paths = (
{
closed = 1;
nodes = (
"298 602 LINE SMOOTH",
"317 675 OFFCURVE",
"332 685 OFFCURVE",
"401 688 CURVE",
"406 708 LINE",
"374 706 OFFCURVE",
"324 705 OFFCURVE",
"278 705 CURVE SMOOTH",
"226 705 OFFCURVE",
"178 706 OFFCURVE",
"151 708 CURVE",
"146 688 LINE",
"213 685 OFFCURVE",
"224 675 OFFCURVE",
"205 602 CURVE SMOOTH",
"73 106 LINE SMOOTH",
"54 33 OFFCURVE",
"38 23 OFFCURVE",
"-28 20 CURVE",
"-33 0 LINE",
"-4 2 OFFCURVE",
"42 3 OFFCURVE",
"94 3 CURVE SMOOTH",
"140 3 OFFCURVE",
"190 2 OFFCURVE",
"221 0 CURVE",
"225 20 LINE",
"157 23 OFFCURVE",
"147 33 OFFCURVE",
"166 106 CURVE SMOOTH"
);
},
{
closed = 1;
nodes = (
"470 41 OFFCURVE",
"468 62 OFFCURVE",
"469 92 CURVE SMOOTH",
"473 205 LINE SMOOTH",
"478 353 OFFCURVE",
"421 359 OFFCURVE",
"343 375 CURVE",
"341 365 LINE",
"374 340 OFFCURVE",
"391 318 OFFCURVE",
"385 215 CURVE SMOOTH",
"378 102 LINE SMOOTH",
"373 27 OFFCURVE",
"399 -14 OFFCURVE",
"462 -14 CURVE SMOOTH",
"519 -14 OFFCURVE",
"559 19 OFFCURVE",
"584 93 CURVE SMOOTH",
"610 170 LINE",
"590 170 LINE",
"573 119 LINE SMOOTH",
"554 65 OFFCURVE",
"533 41 OFFCURVE",
"499 41 CURVE SMOOTH"
);
},
{
closed = 1;
nodes = (
"355 378 LINE",
"281 398 OFFCURVE",
"261 388 OFFCURVE",
"261 369 CURVE SMOOTH",
"261 350 OFFCURVE",
"281 340 OFFCURVE",
"355 360 CURVE"
);
},
{
closed = 1;
nodes = (
"613 695 OFFCURVE",
"622 700 OFFCURVE",
"639 701 CURVE SMOOTH",
"640 701 OFFCURVE",
"641 701 OFFCURVE",
"642 701 CURVE",
"625 685 OFFCURVE",
"611 661 OFFCURVE",
"610 642 CURVE SMOOTH",
"609 621 OFFCURVE",
"619 599 OFFCURVE",
"649 599 CURVE SMOOTH",
"689 599 OFFCURVE",
"705 639 OFFCURVE",
"707 663 CURVE SMOOTH",
"709 695 OFFCURVE",
"694 722 OFFCURVE",
"648 722 CURVE SMOOTH",
"630 722 OFFCURVE",
"611 717 OFFCURVE",
"588 699 CURVE SMOOTH",
"506 630 OFFCURVE",
"526 393 OFFCURVE",
"344 378 CURVE",
"342 368 LINE",
"539 365 OFFCURVE",
"527 618 OFFCURVE",
"603 687 CURVE SMOOTH"
);
}
);
width = 675;
},
{
anchors = (
{
name = bottom;
position = "{317, 0}";
},
{
name = top;
position = "{460, 708}";
}
);
layerId = "DE547DD1-6B89-4C93-B672-7CF1D26AB89E";
name = "Bold Italic";
paths = (
{
closed = 1;
nodes = (
"394 602 LINE SMOOTH",
"413 675 OFFCURVE",
"428 685 OFFCURVE",
"497 688 CURVE",
"502 708 LINE",
"455 706 OFFCURVE",
"390 705 OFFCURVE",
"324 705 CURVE SMOOTH",
"248 705 OFFCURVE",
"176 706 OFFCURVE",
"137 708 CURVE",
"132 688 LINE",
"199 685 OFFCURVE",
"210 675 OFFCURVE",
"191 602 CURVE SMOOTH",
"59 106 LINE SMOOTH",
"40 33 OFFCURVE",
"23 23 OFFCURVE",
"-42 20 CURVE",
"-47 0 LINE",
"-6 2 OFFCURVE",
"64 3 OFFCURVE",
"140 3 CURVE SMOOTH",
"206 3 OFFCURVE",
"276 2 OFFCURVE",
"317 0 CURVE",
"321 20 LINE",
"253 23 OFFCURVE",
"243 33 OFFCURVE",
"262 106 CURVE SMOOTH"
);
},
{
closed = 1;
nodes = (
"632 71 OFFCURVE",
"621 82 OFFCURVE",
"624 98 CURVE SMOOTH",
"640 198 LINE SMOOTH",
"658 309 OFFCURVE",
"622 373 OFFCURVE",
"429 375 CURVE",
"427 365 LINE",
"457 350 OFFCURVE",
"461 327 OFFCURVE",
"452 277 CURVE SMOOTH",
"424 119 LINE SMOOTH",
"410 42 OFFCURVE",
"458 -14 OFFCURVE",
"558 -14 CURVE SMOOTH",
"618 -14 OFFCURVE",
"675 18 OFFCURVE",
"700 93 CURVE SMOOTH",
"726 170 LINE",
"706 170 LINE",
"689 119 LINE SMOOTH",
"679 89 OFFCURVE",
"666 71 OFFCURVE",
"646 71 CURVE SMOOTH"
);
},
{
closed = 1;
nodes = (
"441 378 LINE",
"376 396 OFFCURVE",
"358 392 OFFCURVE",
"353 369 CURVE SMOOTH",
"347 344 OFFCURVE",
"370 341 OFFCURVE",
"441 360 CURVE"
);
},
{
closed = 1;
nodes = (
"654 695 OFFCURVE",
"671 705 OFFCURVE",
"700 705 CURVE",
"712 705 OFFCURVE",
"720 703 OFFCURVE",
"726 700 CURVE",
"662 677 OFFCURVE",
"623 625 OFFCURVE",
"623 573 CURVE SMOOTH",
"623 517 OFFCURVE",
"665 490 OFFCURVE",
"708 490 CURVE SMOOTH",
"781 490 OFFCURVE",
"821 552 OFFCURVE",
"821 610 CURVE SMOOTH",
"821 678 OFFCURVE",
"771 722 OFFCURVE",
"703 722 CURVE SMOOTH",
"676 722 OFFCURVE",
"647 715 OFFCURVE",
"624 689 CURVE SMOOTH",
"551 607 OFFCURVE",
"580 393 OFFCURVE",
"430 378 CURVE",
"428 368 LINE",
"590 365 OFFCURVE",
"570 593 OFFCURVE",
"639 677 CURVE SMOOTH"
);
}
);
width = 783;
}
);
leftKerningGroup = I;
rightKerningGroup = K;
unicode = 004B;
},
{
glyphname = L;
lastChange = "2012-08-06 13:35:49 +0100";
layers = (
{
anchors = (
{
name = bottom;
position = "{258, 0}";
},
{
name = right;
position = "{406, 708}";
},
{
name = top;
position = "{281, 708}";
}
);
layerId = UUID0;
name = "Regular Italic";
paths = (
{
closed = 1;
nodes = (
"512 210 LINE",
"461 71 OFFCURVE",
"423 23 OFFCURVE",
"298 23 CURVE SMOOTH",
"225 23 LINE SMOOTH",
"157 23 OFFCURVE",
"146 33 OFFCURVE",
"166 106 CURVE SMOOTH",
"299 602 LINE SMOOTH",
"319 675 OFFCURVE",
"334 685 OFFCURVE",
"403 688 CURVE",
"408 708 LINE",
"377 706 OFFCURVE",
"327 705 OFFCURVE",
"281 705 CURVE SMOOTH",
"229 705 OFFCURVE",
"181 706 OFFCURVE",
"153 708 CURVE",
"148 688 LINE",
"215 685 OFFCURVE",
"226 675 OFFCURVE",
"206 602 CURVE SMOOTH",
"73 106 LINE SMOOTH",
"53 33 OFFCURVE",
"38 23 OFFCURVE",
"-30 20 CURVE",
"-35 0 LINE",
"62 3 OFFCURVE",
"194 3 OFFCURVE",
"254 3 CURVE SMOOTH",
"321 3 OFFCURVE",
"415 3 OFFCURVE",
"483 0 CURVE",
"491 51 OFFCURVE",
"503 103 OFFCURVE",
"510 128 CURVE SMOOTH",
"519 160 OFFCURVE",
"527 189 OFFCURVE",
"535 210 CURVE"
);
}
);
width = 586;
},
{
anchors = (
{
name = bottom;
position = "{303, 0}";
},
{
name = right;
position = "{451, 708}";
},
{
name = top;
position = "{326, 708}";
}
);
layerId = "DE547DD1-6B89-4C93-B672-7CF1D26AB89E";
name = "Bold Italic";
paths = (
{
closed = 1;
nodes = (
"558 210 LINE",
"501 71 OFFCURVE",
"403 23 OFFCURVE",
"336 23 CURVE SMOOTH",
"318 23 LINE SMOOTH",
"252 23 OFFCURVE",
"242 33 OFFCURVE",
"261 106 CURVE SMOOTH",
"393 602 LINE SMOOTH",
"412 675 OFFCURVE",
"427 685 OFFCURVE",
"496 688 CURVE",
"501 708 LINE",
"454 706 OFFCURVE",
"392 705 OFFCURVE",
"326 705 CURVE SMOOTH",
"250 705 OFFCURVE",
"176 706 OFFCURVE",
"137 708 CURVE",
"132 688 LINE",
"199 685 OFFCURVE",
"210 675 OFFCURVE",
"191 602 CURVE SMOOTH",
"59 106 LINE SMOOTH",
"40 33 OFFCURVE",
"24 23 OFFCURVE",
"-44 20 CURVE",
"-48 0 LINE",
"68 3 OFFCURVE",
"232 3 OFFCURVE",
"304 3 CURVE SMOOTH",
"371 3 OFFCURVE",
"462 3 OFFCURVE",
"530 0 CURVE",
"537 51 OFFCURVE",
"549 103 OFFCURVE",
"556 128 CURVE SMOOTH",
"564 160 OFFCURVE",
"572 189 OFFCURVE",
"580 210 CURVE"
);
}
);
width = 617;
}
);
leftKerningGroup = I;
rightKerningGroup = L;
unicode = 004C;
},
{
glyphname = Lslash;
lastChange = "2012-08-06 13:35:49 +0100";
layers = (
{
components = (
{
name = L;
transform = "{1, 0, 0, 1, 2, 0}";
}
);
layerId = UUID0;
name = "Regular Italic";
paths = (
{
closed = 1;
nodes = (
"182 285 LINE",
"510 450 LINE",
"516 473 LINE",
"188 308 LINE"
);
},
{
closed = 1;
nodes = (
"190 318 LINE",
"21 233 LINE",
"15 210 LINE",
"184 295 LINE"
);
}
);
width = 587;
},
{
components = (
{
name = L;
transform = "{1, 0, 0, 1, 1, 0}";
}
);
layerId = "DE547DD1-6B89-4C93-B672-7CF1D26AB89E";
name = "Bold Italic";
paths = (
{
closed = 1;
nodes = (
"184 285 LINE",
"512 450 LINE",
"518 473 LINE",
"190 308 LINE"
);
},
{
closed = 1;
nodes = (
"192 318 LINE",
"23 233 LINE",
"17 210 LINE",
"186 295 LINE"
);
}
);
width = 618;
}
);
leftKerningGroup = I;
rightKerningGroup = L;
unicode = 0141;
},
{
glyphname = M;
lastChange = "2012-08-06 13:35:49 +0100";
layers = (
{
layerId = UUID0;
name = "Regular Italic";
paths = (
{
closed = 1;
nodes = (
"384 115 LINE",
"329 708 LINE",
"306 706 OFFCURVE",
"271 705 OFFCURVE",
"241 705 CURVE SMOOTH",
"206 705 OFFCURVE",
"173 706 OFFCURVE",
"152 708 CURVE",
"147 688 LINE",
"214 685 OFFCURVE",
"225 675 OFFCURVE",
"206 602 CURVE SMOOTH",
"76 116 LINE SMOOTH",
"57 43 OFFCURVE",
"40 23 OFFCURVE",
"-29 20 CURVE",
"-34 0 LINE",
"-11 2 OFFCURVE",
"26 3 OFFCURVE",
"60 3 CURVE SMOOTH",
"94 3 OFFCURVE",
"138 2 OFFCURVE",
"161 0 CURVE",
"166 20 LINE",
"89 23 OFFCURVE",
"80 43 OFFCURVE",
"99 116 CURVE SMOOTH",
"241 653 LINE",
"309 -5 LINE",
"331 -5 LINE",
"746 645 LINE",
"601 106 LINE SMOOTH",
"582 33 OFFCURVE",
"567 23 OFFCURVE",
"498 20 CURVE",
"494 0 LINE",
"522 2 OFFCURVE",
"572 3 OFFCURVE",
"624 3 CURVE SMOOTH",
"670 3 OFFCURVE",
"717 2 OFFCURVE",
"748 0 CURVE",
"752 20 LINE",
"685 23 OFFCURVE",
"674 33 OFFCURVE",
"693 106 CURVE SMOOTH",
"825 602 LINE SMOOTH",
"844 675 OFFCURVE",
"859 685 OFFCURVE",
"928 688 CURVE",
"933 708 LINE",
"901 706 OFFCURVE",
"854 705 OFFCURVE",
"808 705 CURVE SMOOTH",
"760 705 LINE"
);
}
);
width = 868;
},
{
layerId = "DE547DD1-6B89-4C93-B672-7CF1D26AB89E";
name = "Bold Italic";
paths = (
{
closed = 1;
nodes = (
"457 252 LINE",
"399 708 LINE",
"373 706 OFFCURVE",
"340 705 OFFCURVE",
"307 705 CURVE SMOOTH",
"240 705 OFFCURVE",
"175 706 OFFCURVE",
"138 708 CURVE",
"133 688 LINE",
"200 685 OFFCURVE",
"211 675 OFFCURVE",
"192 602 CURVE SMOOTH",
"68 137 LINE SMOOTH",
"53 80 OFFCURVE",
"26 23 OFFCURVE",
"-43 20 CURVE",
"-47 0 LINE",
"-25 2 OFFCURVE",
"13 3 OFFCURVE",
"48 3 CURVE SMOOTH",
"83 3 OFFCURVE",
"143 2 OFFCURVE",
"167 0 CURVE",
"171 20 LINE",
"74 23 OFFCURVE",
"75 80 OFFCURVE",
"90 137 CURVE SMOOTH",
"206 579 LINE",
"295 -5 LINE",
"317 -5 LINE",
"732 645 LINE",
"587 106 LINE SMOOTH",
"568 33 OFFCURVE",
"553 23 OFFCURVE",
"484 20 CURVE",
"480 0 LINE",
"518 2 OFFCURVE",
"588 3 OFFCURVE",
"660 3 CURVE SMOOTH",
"730 3 OFFCURVE",
"795 2 OFFCURVE",
"844 0 CURVE",
"848 20 LINE",
"781 23 OFFCURVE",
"770 33 OFFCURVE",
"789 106 CURVE SMOOTH",
"921 602 LINE SMOOTH",
"940 675 OFFCURVE",
"955 685 OFFCURVE",
"1024 688 CURVE",
"1029 708 LINE",
"979 706 OFFCURVE",
"914 705 OFFCURVE",
"844 705 CURVE SMOOTH",
"746 705 LINE"
);
}
);
width = 949;
}
);
leftKerningGroup = I;
rightKerningGroup = I;
unicode = 004D;
},
{
glyphname = N;
lastChange = "2012-10-22 14:26:59 +0100";
layers = (
{
anchors = (
{
name = bottom;
position = "{289, 0}";
},
{
name = top;
position = "{518, 708}";
}
);
layerId = UUID0;
name = "Regular Italic";
paths = (
{
closed = 1;
nodes = (
"521 -5 LINE",
"521 -5 OFFCURVE",
"539 146 OFFCURVE",
"539 146 CURVE",
"347 708 LINE",
"324 706 OFFCURVE",
"296 705 OFFCURVE",
"266 705 CURVE SMOOTH",
"231 705 OFFCURVE",
"198 706 OFFCURVE",
"177 708 CURVE",
"172 688 LINE",
"250 685 OFFCURVE",
"258 675 OFFCURVE",
"243 602 CURVE",
"243 602 OFFCURVE",
"266 653 OFFCURVE",
"266 653 CURVE",
"499 -5 LINE"
);
},
{
closed = 1;
nodes = (
"805 733 OFFCURVE",
"806 733 OFFCURVE",
"807 733 CURVE",
"790 717 OFFCURVE",
"775 693 OFFCURVE",
"775 670 CURVE SMOOTH",
"775 653 OFFCURVE",
"783 631 OFFCURVE",
"813 631 CURVE SMOOTH",
"852 631 OFFCURVE",
"872 670 OFFCURVE",
"872 703 CURVE SMOOTH",
"872 730 OFFCURVE",
"858 754 OFFCURVE",
"812 754 CURVE SMOOTH",
"763 754 OFFCURVE",
"729 726 OFFCURVE",
"704 690 CURVE SMOOTH",
"627 578 OFFCURVE",
"556 248 OFFCURVE",
"507 23 CURVE",
"521 -5 LINE",
"599 364 OFFCURVE",
"661 591 OFFCURVE",
"722 682 CURVE SMOOTH",
"742 712 OFFCURVE",
"767 732 OFFCURVE",
"804 733 CURVE SMOOTH"
);
},
{
closed = 1;
nodes = (
"-5 -53 OFFCURVE",
"-6 -53 OFFCURVE",
"-7 -53 CURVE",
"10 -37 OFFCURVE",
"25 -13 OFFCURVE",
"25 10 CURVE SMOOTH",
"25 27 OFFCURVE",
"17 49 OFFCURVE",
"-13 49 CURVE SMOOTH",
"-52 49 OFFCURVE",
"-72 11 OFFCURVE",
"-72 -22 CURVE SMOOTH",
"-72 -50 OFFCURVE",
"-59 -74 OFFCURVE",
"-12 -74 CURVE SMOOTH",
"41 -74 OFFCURVE",
"71 -43 OFFCURVE",
"95 -11 CURVE SMOOTH",
"156 70 OFFCURVE",
"223 392 OFFCURVE",
"276 664 CURVE",
"259 685 LINE",
"196 352 OFFCURVE",
"137 90 OFFCURVE",
"79 -1 CURVE SMOOTH",
"59 -33 OFFCURVE",
"32 -52 OFFCURVE",
"-4 -53 CURVE SMOOTH"
);
}
);
width = 770;
},
{
anchors = (
{
name = bottom;
position = "{346, 0}";
},
{
name = top;
position = "{562, 708}";
}
);
layerId = "DE547DD1-6B89-4C93-B672-7CF1D26AB89E";
name = "Bold Italic";
paths = (
{
closed = 1;
nodes = (
"565 -5 LINE",
"565 -5 OFFCURVE",
"615 272 OFFCURVE",
"615 272 CURVE",
"391 708 LINE",
"368 706 OFFCURVE",
"340 705 OFFCURVE",
"310 705 CURVE SMOOTH",
"275 705 OFFCURVE",
"242 706 OFFCURVE",
"221 708 CURVE",
"216 688 LINE",
"294 685 OFFCURVE",
"302 675 OFFCURVE",
"287 602 CURVE",
"287 602 OFFCURVE",
"275 483 OFFCURVE",
"275 483 CURVE",
"543 -5 LINE"
);
},
{
closed = 1;
nodes = (
"862 737 OFFCURVE",
"871 734 OFFCURVE",
"876 729 CURVE",
"817 719 OFFCURVE",
"772 676 OFFCURVE",
"772 616 CURVE SMOOTH",
"772 569 OFFCURVE",
"807 542 OFFCURVE",
"861 542 CURVE SMOOTH",
"923 542 OFFCURVE",
"973 583 OFFCURVE",
"973 647 CURVE SMOOTH",
"973 707 OFFCURVE",
"927 754 OFFCURVE",
"856 754 CURVE SMOOTH",
"807 754 OFFCURVE",
"773 726 OFFCURVE",
"748 690 CURVE SMOOTH",
"671 578 OFFCURVE",
"600 248 OFFCURVE",
"551 23 CURVE",
"565 -5 LINE",
"643 364 OFFCURVE",
"705 591 OFFCURVE",
"766 682 CURVE SMOOTH",
"787 713 OFFCURVE",
"817 737 OFFCURVE",
"851 737 CURVE SMOOTH"
);
},
{
closed = 1;
nodes = (
"26 -57 OFFCURVE",
"17 -54 OFFCURVE",
"12 -49 CURVE",
"71 -39 OFFCURVE",
"116 4 OFFCURVE",
"116 64 CURVE SMOOTH",
"116 111 OFFCURVE",
"81 138 OFFCURVE",
"27 138 CURVE SMOOTH",
"-35 138 OFFCURVE",
"-85 97 OFFCURVE",
"-85 33 CURVE SMOOTH",
"-85 -27 OFFCURVE",
"-39 -74 OFFCURVE",
"32 -74 CURVE SMOOTH",
"85 -74 OFFCURVE",
"115 -43 OFFCURVE",
"139 -11 CURVE SMOOTH",
"200 70 OFFCURVE",
"267 392 OFFCURVE",
"320 664 CURVE",
"303 685 LINE",
"240 352 OFFCURVE",
"181 90 OFFCURVE",
"123 -1 CURVE SMOOTH",
"102 -34 OFFCURVE",
"74 -57 OFFCURVE",
"37 -57 CURVE SMOOTH"
);
}
);
width = 861;
}
);
leftKerningGroup = N;
rightKerningGroup = N;
unicode = 004E;
},
{
glyphname = Eng;
lastChange = "2012-08-07 17:53:21 +0100";
layers = (
{
layerId = UUID0;
name = "Regular Italic";
paths = (
{
closed = 1;
nodes = (
"524 146 LINE",
"322 708 LINE",
"299 706 OFFCURVE",
"271 705 OFFCURVE",
"241 705 CURVE SMOOTH",
"206 705 OFFCURVE",
"173 706 OFFCURVE",
"152 708 CURVE",
"147 688 LINE",
"214 685 OFFCURVE",
"225 675 OFFCURVE",
"206 602 CURVE SMOOTH",
"77 116 LINE SMOOTH",
"58 43 OFFCURVE",
"41 23 OFFCURVE",
"-28 20 CURVE",
"-33 0 LINE",
"-10 2 OFFCURVE",
"27 3 OFFCURVE",
"61 3 CURVE SMOOTH",
"95 3 OFFCURVE",
"139 2 OFFCURVE",
"162 0 CURVE",
"167 20 LINE",
"90 23 OFFCURVE",
"81 43 OFFCURVE",
"100 116 CURVE",
"241 653 LINE",
"486 -10 LINE",
"525 67 LINE",
"664 592 LINE",
"683 665 OFFCURVE",
"700 685 OFFCURVE",
"769 688 CURVE",
"774 708 LINE",
"751 706 OFFCURVE",
"714 705 OFFCURVE",
"680 705 CURVE SMOOTH",
"646 705 OFFCURVE",
"602 706 OFFCURVE",
"579 708 CURVE",
"574 688 LINE",
"651 685 OFFCURVE",
"660 665 OFFCURVE",
"641 592 CURVE"
);
},
{
closed = 1;
nodes = (
"503 65 LINE",
"476 -57 OFFCURVE",
"423 -172 OFFCURVE",
"328 -172 CURVE SMOOTH",
"316 -172 OFFCURVE",
"302 -170 OFFCURVE",
"293 -167 CURVE",
"314 -157 OFFCURVE",
"334 -138 OFFCURVE",
"333 -114 CURVE SMOOTH",
"332 -92 OFFCURVE",
"315 -74 OFFCURVE",
"291 -74 CURVE SMOOTH",
"260 -74 OFFCURVE",
"235 -102 OFFCURVE",
"236 -133 CURVE SMOOTH",
"238 -171 OFFCURVE",
"283 -188 OFFCURVE",
"326 -188 CURVE SMOOTH",
"422 -188 OFFCURVE",
"486 -106 OFFCURVE",
"525 67 CURVE"
);
}
);
width = 701;
},
{
layerId = "DE547DD1-6B89-4C93-B672-7CF1D26AB89E";
name = "Bold Italic";
paths = (
{
closed = 1;
nodes = (
"607 275 LINE",
"298 708 LINE",
"275 706 OFFCURVE",
"247 705 OFFCURVE",
"217 705 CURVE SMOOTH",
"182 705 OFFCURVE",
"149 706 OFFCURVE",
"128 708 CURVE",
"123 688 LINE",
"201 685 OFFCURVE",
"213 674 OFFCURVE",
"194 602 CURVE SMOOTH",
"62 106 LINE SMOOTH",
"43 33 OFFCURVE",
"28 23 OFFCURVE",
"-41 20 CURVE",
"-45 0 LINE",
"-23 2 OFFCURVE",
"15 3 OFFCURVE",
"50 3 CURVE SMOOTH",
"85 3 OFFCURVE",
"115 2 OFFCURVE",
"139 0 CURVE",
"143 20 LINE",
"76 23 OFFCURVE",
"64 33 OFFCURVE",
"84 106 CURVE SMOOTH",
"183 474 LINE",
"533 -5 LINE",
"555 -5 LINE",
"715 602 LINE SMOOTH",
"734 675 OFFCURVE",
"749 685 OFFCURVE",
"818 688 CURVE",
"823 708 LINE",
"800 706 OFFCURVE",
"767 705 OFFCURVE",
"732 705 CURVE SMOOTH",
"697 705 OFFCURVE",
"662 706 OFFCURVE",
"639 708 CURVE",
"634 688 LINE",
"701 685 OFFCURVE",
"712 675 OFFCURVE",
"693 602 CURVE SMOOTH"
);
},
{
closed = 1;
nodes = (
"538 20 LINE",
"523 -55 OFFCURVE",
"501 -171 OFFCURVE",
"407 -171 CURVE SMOOTH",
"402 -171 OFFCURVE",
"398 -170 OFFCURVE",
"394 -169 CURVE",
"437 -151 OFFCURVE",
"461 -123 OFFCURVE",
"461 -85 CURVE SMOOTH",
"461 -36 OFFCURVE",
"416 -12 OFFCURVE",
"360 -12 CURVE SMOOTH",
"292 -12 OFFCURVE",
"256 -49 OFFCURVE",
"256 -99 CURVE SMOOTH",
"256 -166 OFFCURVE",
"330 -188 OFFCURVE",
"396 -188 CURVE SMOOTH",
"503 -188 OFFCURVE",
"535 -103 OFFCURVE",
"556 1 CURVE"
);
}
);
width = 735;
}
);
leftKerningGroup = I;
rightKerningGroup = I;
unicode = 014A;
},
{
glyphname = O;
lastChange = "2012-10-18 16:50:43 +0100";
layers = (
{
anchors = (
{
name = bottom;
position = "{295, 0}";
},
{
name = top;
position = "{493, 708}";
}
);
layerId = UUID0;
name = "Regular Italic";
paths = (
{
closed = 1;
nodes = (
"543 704 OFFCURVE",
"600 626 OFFCURVE",
"600 495 CURVE SMOOTH",
"600 254 OFFCURVE",
"453 4 OFFCURVE",
"298 4 CURVE SMOOTH",
"217 4 OFFCURVE",
"160 82 OFFCURVE",
"160 213 CURVE SMOOTH",
"160 454 OFFCURVE",
"307 704 OFFCURVE",
"462 704 CURVE SMOOTH"
);
},
{
closed = 1;
nodes = (
"54 73 OFFCURVE",
"141 -14 OFFCURVE",
"289 -14 CURVE SMOOTH",
"540 -14 OFFCURVE",
"707 261 OFFCURVE",
"707 481 CURVE SMOOTH",
"707 635 OFFCURVE",
"619 722 OFFCURVE",
"471 722 CURVE SMOOTH",
"219 722 OFFCURVE",
"54 447 OFFCURVE",
"54 226 CURVE SMOOTH"
);
}
);
width = 729;
},
{
anchors = (
{
name = bottom;
position = "{335, 0}";
},
{
name = top;
position = "{535, 708}";
}
);
layerId = "DE547DD1-6B89-4C93-B672-7CF1D26AB89E";
name = "Bold Italic";
paths = (
{
closed = 1;
nodes = (
"553 704 OFFCURVE",
"590 626 OFFCURVE",
"590 495 CURVE SMOOTH",
"590 254 OFFCURVE",
"468 4 OFFCURVE",
"338 4 CURVE SMOOTH",
"287 4 OFFCURVE",
"250 82 OFFCURVE",
"250 213 CURVE SMOOTH",
"250 454 OFFCURVE",
"372 704 OFFCURVE",
"502 704 CURVE SMOOTH"
);
},
{
closed = 1;
nodes = (
"34 73 OFFCURVE",
"145 -14 OFFCURVE",
"329 -14 CURVE SMOOTH",
"616 -14 OFFCURVE",
"807 261 OFFCURVE",
"807 481 CURVE SMOOTH",
"807 635 OFFCURVE",
"695 722 OFFCURVE",
"511 722 CURVE SMOOTH",
"223 722 OFFCURVE",
"34 447 OFFCURVE",
"34 226 CURVE SMOOTH"
);
}
);
width = 809;
}
);
leftKerningGroup = O;
rightKerningGroup = O;
unicode = 004F;
},
{
glyphname = Oslash;
lastChange = "2012-08-14 14:01:01 +0100";
layers = (
{
anchors = (
{
name = top;
position = "{365, 708}";
}
);
components = (
{
name = O;
transform = "{1, 0, 0, 1, 0, 0}";
}
);
layerId = UUID0;
name = "Regular Italic";
paths = (
{
closed = 1;
nodes = (
"647 612 LINE",
"787 760 LINE",
"772 773 LINE",
"637 632 LINE"
);
},
{
closed = 1;
nodes = (
"125 95 LINE",
"-20 -59 LINE",
"-3 -73 LINE",
"138 77 LINE"
);
},
{
closed = 1;
nodes = (
"146 77 LINE",
"640 612 LINE",
"630 632 LINE",
"133 95 LINE"
);
}
);
width = 729;
},
{
anchors = (
{
name = top;
position = "{405, 708}";
}
);
components = (
{
name = O;
transform = "{1, 0, 0, 1, 0, 0}";
}
);
layerId = "DE547DD1-6B89-4C93-B672-7CF1D26AB89E";
name = "Bold Italic";
paths = (
{
closed = 1;
nodes = (
"676 612 LINE",
"816 760 LINE",
"801 773 LINE",
"666 632 LINE"
);
},
{
closed = 1;
nodes = (
"157 92 LINE",
"9 -59 LINE",
"26 -73 LINE",
"170 74 LINE"
);
},
{
closed = 1;
nodes = (
"212 78 LINE",
"659 612 LINE",
"649 632 LINE",
"199 96 LINE"
);
}
);
width = 809;
}
);
leftKerningGroup = O;
rightKerningGroup = O;
unicode = 00D8;
},
{
glyphname = OE;
lastChange = "2012-08-07 17:26:59 +0100";
layers = (
{
anchors = (
{
name = top;
position = "{478, 708}";
}
);
layerId = UUID0;
name = "Regular Italic";
paths = (
{
closed = 1;
nodes = (
"758 346 LINE",
"762 366 LINE",
"558 366 LINE",
"554 346 LINE"
);
},
{
closed = 1;
nodes = (
"687 346 LINE",
"762 341 OFFCURVE",
"734 280 OFFCURVE",
"734 234 CURVE",
"756 234 LINE",
"767 300 OFFCURVE",
"774 327 OFFCURVE",
"782 356 CURVE SMOOTH",
"793 398 OFFCURVE",
"799 426 OFFCURVE",
"816 478 CURVE",
"794 478 LINE",
"772 420 OFFCURVE",
"751 366 OFFCURVE",
"691 366 CURVE"
);
},
{
closed = 1;
nodes = (
"211 4 OFFCURVE",
"162 82 OFFCURVE",
"162 213 CURVE SMOOTH",
"162 454 OFFCURVE",
"299 704 OFFCURVE",
"456 704 CURVE SMOOTH",
"531 704 OFFCURVE",
"587 692 OFFCURVE",
"563 602 CURVE SMOOTH",
"431 106 LINE SMOOTH",
"410 25 OFFCURVE",
"364 4 OFFCURVE",
"280 4 CURVE SMOOTH"
);
},
{
closed = 1;
nodes = (
"942 528 LINE",
"942 543 OFFCURVE",
"946 566 OFFCURVE",
"955 590 CURVE",
"962 613 OFFCURVE",
"975 661 OFFCURVE",
"993 708 CURVE",
"936 705 OFFCURVE",
"861 705 OFFCURVE",
"806 705 CURVE SMOOTH",
"753 705 OFFCURVE",
"647 705 OFFCURVE",
"554 707 CURVE",
"525 717 OFFCURVE",
"491 722 OFFCURVE",
"453 722 CURVE SMOOTH",
"213 722 OFFCURVE",
"56 447 OFFCURVE",
"56 226 CURVE SMOOTH",
"56 73 OFFCURVE",
"135 -14 OFFCURVE",
"271 -14 CURVE SMOOTH",
"305 -14 OFFCURVE",
"342 -8 OFFCURVE",
"373 1 CURVE",
"462 3 OFFCURVE",
"562 3 OFFCURVE",
"612 3 CURVE SMOOTH",
"676 3 OFFCURVE",
"763 3 OFFCURVE",
"828 0 CURVE",
"834 51 OFFCURVE",
"847 103 OFFCURVE",
"854 128 CURVE SMOOTH",
"862 156 OFFCURVE",
"867 182 OFFCURVE",
"875 200 CURVE",
"853 200 LINE",
"809 68 OFFCURVE",
"770 23 OFFCURVE",
"674 23 CURVE SMOOTH",
"581 23 LINE SMOOTH",
"515 23 OFFCURVE",
"505 33 OFFCURVE",
"524 106 CURVE SMOOTH",
"656 602 LINE SMOOTH",
"675 675 OFFCURVE",
"690 685 OFFCURVE",
"756 685 CURVE SMOOTH",
"839 685 LINE SMOOTH",
"919 685 OFFCURVE",
"941 646 OFFCURVE",
"920 528 CURVE"
);
}
);
width = 956;
},
{
anchors = (
{
name = top;
position = "{510, 708}";
}
);
layerId = "DE547DD1-6B89-4C93-B672-7CF1D26AB89E";
name = "Bold Italic";
paths = (
{
closed = 1;
nodes = (
"839 346 LINE",
"843 366 LINE",
"629 366 LINE",
"625 346 LINE"
);
},
{
closed = 1;
nodes = (
"768 346 LINE",
"843 341 OFFCURVE",
"815 280 OFFCURVE",
"815 234 CURVE",
"837 234 LINE",
"849 300 OFFCURVE",
"855 327 OFFCURVE",
"863 356 CURVE SMOOTH",
"874 398 OFFCURVE",
"880 426 OFFCURVE",
"897 478 CURVE",
"875 478 LINE",
"853 420 OFFCURVE",
"832 366 OFFCURVE",
"772 366 CURVE"
);
},
{
closed = 1;
nodes = (
"287 4 OFFCURVE",
"250 82 OFFCURVE",
"250 213 CURVE SMOOTH",
"250 454 OFFCURVE",
"372 704 OFFCURVE",
"515 704 CURVE SMOOTH",
"578 704 OFFCURVE",
"595 681 OFFCURVE",
"574 602 CURVE SMOOTH",
"429 55 LINE SMOOTH",
"418 15 OFFCURVE",
"390 4 OFFCURVE",
"354 4 CURVE SMOOTH"
);
},
{
closed = 1;
nodes = (
"1023 528 LINE",
"1026 544 OFFCURVE",
"1030 566 OFFCURVE",
"1036 590 CURVE SMOOTH",
"1047 635 OFFCURVE",
"1056 661 OFFCURVE",
"1074 708 CURVE",
"1011 705 OFFCURVE",
"928 705 OFFCURVE",
"867 705 CURVE SMOOTH",
"817 705 OFFCURVE",
"686 704 OFFCURVE",
"599 705 CURVE",
"573 715 OFFCURVE",
"542 722 OFFCURVE",
"511 722 CURVE SMOOTH",
"223 722 OFFCURVE",
"34 447 OFFCURVE",
"34 226 CURVE SMOOTH",
"34 73 OFFCURVE",
"145 -14 OFFCURVE",
"329 -14 CURVE SMOOTH",
"366 -14 OFFCURVE",
"402 -8 OFFCURVE",
"436 2 CURVE",
"517 3 OFFCURVE",
"638 3 OFFCURVE",
"683 3 CURVE SMOOTH",
"750 3 OFFCURVE",
"841 3 OFFCURVE",
"909 0 CURVE",
"916 51 OFFCURVE",
"928 103 OFFCURVE",
"935 128 CURVE SMOOTH",
"942 156 OFFCURVE",
"949 182 OFFCURVE",
"956 200 CURVE",
"934 200 LINE",
"889 68 OFFCURVE",
"851 23 OFFCURVE",
"755 23 CURVE SMOOTH",
"702 23 LINE SMOOTH",
"636 23 OFFCURVE",
"626 33 OFFCURVE",
"645 106 CURVE SMOOTH",
"777 602 LINE SMOOTH",
"796 675 OFFCURVE",
"811 685 OFFCURVE",
"877 685 CURVE SMOOTH",
"920 685 LINE SMOOTH",
"1000 685 OFFCURVE",
"1022 646 OFFCURVE",
"1001 528 CURVE"
);
}
);
width = 1020;
}
);
leftKerningGroup = O;
rightKerningGroup = E;
unicode = 0152;
},
{
glyphname = P;
lastChange = "2012-08-07 17:53:38 +0100";
layers = (
{
anchors = (
{
name = bottom;
position = "{92, 0}";
},
{
name = top;
position = "{405, 708}";
}
);
layerId = UUID0;
name = "Regular Italic";
paths = (
{
closed = 1;
nodes = (
"243 284 LINE SMOOTH",
"467 284 OFFCURVE",
"620 399 OFFCURVE",
"620 556 CURVE SMOOTH",
"620 647 OFFCURVE",
"555 707 OFFCURVE",
"421 707 CURVE SMOOTH",
"371 707 OFFCURVE",
"323 705 OFFCURVE",
"275 705 CURVE SMOOTH",
"231 705 OFFCURVE",
"179 706 OFFCURVE",
"152 708 CURVE",
"147 688 LINE",
"221 687 OFFCURVE",
"223 665 OFFCURVE",
"206 602 CURVE SMOOTH",
"74 106 LINE SMOOTH",
"55 33 OFFCURVE",
"39 23 OFFCURVE",
"-29 20 CURVE",
"-33 0 LINE",
"-5 2 OFFCURVE",
"45 3 OFFCURVE",
"97 3 CURVE SMOOTH",
"143 3 OFFCURVE",
"190 2 OFFCURVE",
"221 0 CURVE",
"225 20 LINE",
"145 22 OFFCURVE",
"150 44 OFFCURVE",
"166 106 CURVE SMOOTH",
"298 602 LINE SMOOTH",
"316 670 OFFCURVE",
"333 688 OFFCURVE",
"392 688 CURVE SMOOTH",
"482 688 OFFCURVE",
"519 650 OFFCURVE",
"519 572 CURVE SMOOTH",
"519 423 OFFCURVE",
"451 304 OFFCURVE",
"253 304 CURVE SMOOTH",
"208 304 LINE",
"208 304 OFFCURVE",
"203 284 OFFCURVE",
"203 284 CURVE"
);
}
);
width = 589;
},
{
anchors = (
{
name = bottom;
position = "{137, 0}";
},
{
name = top;
position = "{450, 708}";
}
);
layerId = "DE547DD1-6B89-4C93-B672-7CF1D26AB89E";
name = "Bold Italic";
paths = (
{
closed = 1;
nodes = (
"288 284 LINE SMOOTH",
"548 284 OFFCURVE",
"725 399 OFFCURVE",
"725 556 CURVE SMOOTH",
"725 658 OFFCURVE",
"642 707 OFFCURVE",
"466 707 CURVE SMOOTH",
"416 707 OFFCURVE",
"368 705 OFFCURVE",
"320 705 CURVE SMOOTH",
"252 705 OFFCURVE",
"176 706 OFFCURVE",
"137 708 CURVE",
"132 688 LINE",
"208 684 OFFCURVE",
"202 661 OFFCURVE",
"191 602 CURVE SMOOTH",
"59 106 LINE SMOOTH",
"40 33 OFFCURVE",
"24 23 OFFCURVE",
"-44 20 CURVE",
"-48 0 LINE",
"-8 2 OFFCURVE",
"66 3 OFFCURVE",
"142 3 CURVE SMOOTH",
"208 3 OFFCURVE",
"270 2 OFFCURVE",
"316 0 CURVE",
"320 20 LINE",
"253 24 OFFCURVE",
"246 50 OFFCURVE",
"261 106 CURVE SMOOTH",
"393 602 LINE SMOOTH",
"411 671 OFFCURVE",
"408 688 OFFCURVE",
"437 688 CURVE SMOOTH",
"492 688 OFFCURVE",
"514 650 OFFCURVE",
"514 583 CURVE SMOOTH",
"514 468 OFFCURVE",
"460 304 OFFCURVE",
"298 304 CURVE SMOOTH",
"253 304 LINE",
"253 304 OFFCURVE",
"248 284 OFFCURVE",
"248 284 CURVE"
);
}
);
width = 679;
}
);
leftKerningGroup = I;
rightKerningGroup = P;
unicode = 0050;
},
{
glyphname = Thorn;
lastChange = "2012-08-06 13:35:49 +0100";
layers = (
{
components = (
{
name = I;
transform = "{1, 0, 0, 1, 0, 0}";
}
);
layerId = UUID0;
name = "Regular Italic";
paths = (
{
closed = 1;
nodes = (
"251 550 LINE",
"296 553 OFFCURVE",
"308 556 OFFCURVE",
"367 556 CURVE SMOOTH",
"457 556 OFFCURVE",
"494 518 OFFCURVE",
"494 440 CURVE SMOOTH",
"494 291 OFFCURVE",
"426 172 OFFCURVE",
"228 172 CURVE SMOOTH",
"183 172 LINE",
"183 172 OFFCURVE",
"178 152 OFFCURVE",
"178 152 CURVE",
"218 152 LINE SMOOTH",
"442 152 OFFCURVE",
"595 267 OFFCURVE",
"595 424 CURVE SMOOTH",
"595 515 OFFCURVE",
"530 575 OFFCURVE",
"396 575 CURVE SMOOTH",
"346 575 OFFCURVE",
"298 573 OFFCURVE",
"250 573 CURVE"
);
}
);
width = 605;
},
{
components = (
{
name = I;
transform = "{1, 0, 0, 1, 0, 0}";
}
);
layerId = "DE547DD1-6B89-4C93-B672-7CF1D26AB89E";
name = "Bold Italic";
paths = (
{
closed = 1;
nodes = (
"298 530 LINE",
"335 533 OFFCURVE",
"345 536 OFFCURVE",
"394 536 CURVE SMOOTH",
"456 536 OFFCURVE",
"491 486 OFFCURVE",
"491 420 CURVE SMOOTH",
"491 288 OFFCURVE",
"420 152 OFFCURVE",
"275 152 CURVE SMOOTH",
"230 152 LINE",
"230 152 OFFCURVE",
"225 132 OFFCURVE",
"225 132 CURVE",
"265 132 LINE SMOOTH",
"525 132 OFFCURVE",
"702 247 OFFCURVE",
"702 404 CURVE SMOOTH",
"702 495 OFFCURVE",
"619 555 OFFCURVE",
"443 555 CURVE SMOOTH",
"393 555 OFFCURVE",
"345 553 OFFCURVE",
"297 553 CURVE"
);
}
);
width = 698;
}
);
leftKerningGroup = I;
unicode = 00DE;
},
{
glyphname = Q;
lastChange = "2012-08-07 17:53:49 +0100";
layers = (
{
layerId = UUID0;
name = "Regular Italic";
paths = (
{
closed = 1;
nodes = (
"426 243 OFFCURVE",
"514 330 OFFCURVE",
"514 429 CURVE SMOOTH",
"514 488 OFFCURVE",
"483 527 OFFCURVE",
"435 527 CURVE SMOOTH",
"395 527 OFFCURVE",
"366 501 OFFCURVE",
"366 466 CURVE SMOOTH",
"366 439 OFFCURVE",
"383 419 OFFCURVE",
"413 419 CURVE SMOOTH",
"442 419 OFFCURVE",
"473 436 OFFCURVE",
"487 464 CURVE",
"492 455 OFFCURVE",
"494 437 OFFCURVE",
"494 424 CURVE SMOOTH",
"494 353 OFFCURVE",
"429 266 OFFCURVE",
"337 266 CURVE SMOOTH",
"272 266 OFFCURVE",
"223 309 OFFCURVE",
"223 409 CURVE SMOOTH",
"223 552 OFFCURVE",
"323 704 OFFCURVE",
"477 704 CURVE SMOOTH",
"588 704 OFFCURVE",
"648 625 OFFCURVE",
"648 509 CURVE SMOOTH",
"648 295 OFFCURVE",
"434 65 OFFCURVE",
"229 -24 CURVE SMOOTH",
"174 -48 OFFCURVE",
"117 -65 OFFCURVE",
"70 -65 CURVE SMOOTH",
"11 -65 OFFCURVE",
"-26 -48 OFFCURVE",
"-26 -6 CURVE SMOOTH",
"-26 35 OFFCURVE",
"11 59 OFFCURVE",
"47 59 CURVE SMOOTH",
"162 59 OFFCURVE",
"244 -188 OFFCURVE",
"441 -188 CURVE SMOOTH",
"560 -188 OFFCURVE",
"697 -98 OFFCURVE",
"697 -7 CURVE SMOOTH",
"697 29 OFFCURVE",
"676 50 OFFCURVE",
"647 50 CURVE SMOOTH",
"613 50 OFFCURVE",
"588 21 OFFCURVE",
"588 -10 CURVE SMOOTH",
"588 -37 OFFCURVE",
"606 -58 OFFCURVE",
"637 -58 CURVE SMOOTH",
"647 -58 OFFCURVE",
"658 -56 OFFCURVE",
"668 -52 CURVE",
"636 -105 OFFCURVE",
"585 -120 OFFCURVE",
"524 -120 CURVE SMOOTH",
"302 -120 OFFCURVE",
"241 81 OFFCURVE",
"77 81 CURVE SMOOTH",
"7 81 OFFCURVE",
"-45 45 OFFCURVE",
"-45 -8 CURVE SMOOTH",
"-45 -54 OFFCURVE",
"-7 -82 OFFCURVE",
"59 -82 CURVE SMOOTH",
"270 -82 OFFCURVE",
"752 220 OFFCURVE",
"752 515 CURVE SMOOTH",
"752 644 OFFCURVE",
"654 722 OFFCURVE",
"494 722 CURVE SMOOTH",
"307 722 OFFCURVE",
"121 595 OFFCURVE",
"121 418 CURVE SMOOTH",
"121 315 OFFCURVE",
"184 243 OFFCURVE",
"299 243 CURVE SMOOTH"
);
}
);
width = 781;
},
{
layerId = "DE547DD1-6B89-4C93-B672-7CF1D26AB89E";
name = "Bold Italic";
paths = (
{
closed = 1;
nodes = (
"474 243 OFFCURVE",
"585 325 OFFCURVE",
"585 452 CURVE SMOOTH",
"585 524 OFFCURVE",
"549 571 OFFCURVE",
"488 571 CURVE SMOOTH",
"427 571 OFFCURVE",
"376 523 OFFCURVE",
"376 458 CURVE SMOOTH",
"376 405 OFFCURVE",
"410 365 OFFCURVE",
"464 365 CURVE SMOOTH",
"499 365 OFFCURVE",
"547 382 OFFCURVE",
"562 435 CURVE",
"561 417 OFFCURVE",
"557 399 OFFCURVE",
"550 382 CURVE SMOOTH",
"525 321 OFFCURVE",
"462 276 OFFCURVE",
"384 276 CURVE SMOOTH",
"305 276 OFFCURVE",
"289 322 OFFCURVE",
"289 387 CURVE SMOOTH",
"289 536 OFFCURVE",
"373 704 OFFCURVE",
"507 704 CURVE SMOOTH",
"596 704 OFFCURVE",
"644 629 OFFCURVE",
"644 496 CURVE SMOOTH",
"644 278 OFFCURVE",
"524 115 OFFCURVE",
"347 25 CURVE SMOOTH",
"261 -19 OFFCURVE",
"143 -65 OFFCURVE",
"76 -65 CURVE SMOOTH",
"20 -65 OFFCURVE",
"-11 -42 OFFCURVE",
"-11 -9 CURVE SMOOTH",
"-11 15 OFFCURVE",
"6 29 OFFCURVE",
"39 29 CURVE SMOOTH",
"170 29 OFFCURVE",
"245 -188 OFFCURVE",
"493 -188 CURVE SMOOTH",
"676 -188 OFFCURVE",
"787 -70 OFFCURVE",
"787 37 CURVE SMOOTH",
"787 105 OFFCURVE",
"742 138 OFFCURVE",
"683 138 CURVE SMOOTH",
"618 138 OFFCURVE",
"572 97 OFFCURVE",
"572 38 CURVE SMOOTH",
"572 -20 OFFCURVE",
"616 -51 OFFCURVE",
"669 -51 CURVE SMOOTH",
"700 -51 OFFCURVE",
"731 -40 OFFCURVE",
"754 -18 CURVE",
"742 -47 OFFCURVE",
"713 -91 OFFCURVE",
"636 -91 CURVE SMOOTH",
"462 -91 OFFCURVE",
"293 131 OFFCURVE",
"118 131 CURVE SMOOTH",
"31 131 OFFCURVE",
"-34 76 OFFCURVE",
"-34 3 CURVE SMOOTH",
"-34 -57 OFFCURVE",
"9 -82 OFFCURVE",
"70 -82 CURVE SMOOTH",
"305 -82 OFFCURVE",
"858 283 OFFCURVE",
"858 522 CURVE SMOOTH",
"858 642 OFFCURVE",
"719 722 OFFCURVE",
"531 722 CURVE SMOOTH",
"293 722 OFFCURVE",
"77 593 OFFCURVE",
"77 423 CURVE SMOOTH",
"77 305 OFFCURVE",
"182 243 OFFCURVE",
"318 243 CURVE SMOOTH"
);
}
);
width = 865;
}
);
leftKerningGroup = Q;
rightKerningGroup = Q;
unicode = 0051;
},
{
glyphname = R;
lastChange = "2012-08-12 13:49:45 +0100";
layers = (
{
anchors = (
{
name = bottom;
position = "{293, 0}";
},
{
name = top;
position = "{404, 708}";
}
);
layerId = UUID0;
name = "Regular Italic";
paths = (
{
closed = 1;
nodes = (
"221 336 LINE",
"395 336 OFFCURVE",
"418 300 OFFCURVE",
"410 194 CURVE SMOOTH",
"402 82 LINE SMOOTH",
"398 33 OFFCURVE",
"426 -14 OFFCURVE",
"492 -14 CURVE SMOOTH",
"555 -14 OFFCURVE",
"588 27 OFFCURVE",
"611 108 CURVE SMOOTH",
"615 121 LINE",
"592 121 LINE",
"587 107 LINE SMOOTH",
"568 54 OFFCURVE",
"552 24 OFFCURVE",
"528 23 CURVE SMOOTH",
"497 22 OFFCURVE",
"493 65 OFFCURVE",
"496 105 CURVE SMOOTH",
"504 207 LINE SMOOTH",
"511 297 OFFCURVE",
"474 324 OFFCURVE",
"394 339 CURVE SMOOTH",
"360 345 OFFCURVE",
"333 348 OFFCURVE",
"223 353 CURVE"
);
},
{
closed = 1;
nodes = (
"253 336 LINE SMOOTH",
"471 336 OFFCURVE",
"620 433 OFFCURVE",
"620 566 CURVE SMOOTH",
"620 651 OFFCURVE",
"555 707 OFFCURVE",
"421 707 CURVE SMOOTH",
"371 707 OFFCURVE",
"323 705 OFFCURVE",
"275 705 CURVE SMOOTH",
"231 705 OFFCURVE",
"179 706 OFFCURVE",
"152 708 CURVE",
"147 688 LINE",
"220 687 OFFCURVE",
"223 665 OFFCURVE",
"206 602 CURVE SMOOTH",
"74 106 LINE SMOOTH",
"55 33 OFFCURVE",
"39 23 OFFCURVE",
"-29 20 CURVE",
"-33 0 LINE",
"-5 2 OFFCURVE",
"45 3 OFFCURVE",
"97 3 CURVE SMOOTH",
"143 3 OFFCURVE",
"190 2 OFFCURVE",
"221 0 CURVE",
"225 20 LINE",
"148 21 OFFCURVE",
"149 44 OFFCURVE",
"166 106 CURVE SMOOTH",
"298 602 LINE SMOOTH",
"316 670 OFFCURVE",
"333 688 OFFCURVE",
"392 688 CURVE SMOOTH",
"482 688 OFFCURVE",
"519 650 OFFCURVE",
"519 572 CURVE SMOOTH",
"519 452 OFFCURVE",
"454 356 OFFCURVE",
"263 356 CURVE SMOOTH",
"218 356 LINE",
"218 356 OFFCURVE",
"213 336 OFFCURVE",
"213 336 CURVE"
);
}
);
width = 664;
},
{
anchors = (
{
name = bottom;
position = "{338, 0}";
},
{
name = top;
position = "{429, 708}";
}
);
layerId = "DE547DD1-6B89-4C93-B672-7CF1D26AB89E";
name = "Bold Italic";
paths = (
{
closed = 1;
nodes = (
"309 342 LINE",
"414 342 OFFCURVE",
"429 298 OFFCURVE",
"418 230 CURVE SMOOTH",
"399 116 LINE SMOOTH",
"386 36 OFFCURVE",
"430 -14 OFFCURVE",
"541 -14 CURVE SMOOTH",
"637 -14 OFFCURVE",
"690 24 OFFCURVE",
"716 108 CURVE SMOOTH",
"720 121 LINE",
"697 121 LINE",
"692 107 LINE SMOOTH",
"677 65 OFFCURVE",
"658 43 OFFCURVE",
"630 43 CURVE SMOOTH",
"604 43 OFFCURVE",
"593 61 OFFCURVE",
"600 105 CURVE SMOOTH",
"617 209 LINE SMOOTH",
"636 325 OFFCURVE",
"519 343 OFFCURVE",
"382 350 CURVE",
"358 352 OFFCURVE",
"335 354 OFFCURVE",
"311 356 CURVE"
);
},
{
closed = 1;
nodes = (
"331 345 LINE",
"567 345 OFFCURVE",
"725 430 OFFCURVE",
"725 569 CURVE SMOOTH",
"725 670 OFFCURVE",
"641 707 OFFCURVE",
"460 707 CURVE SMOOTH",
"418 707 OFFCURVE",
"377 705 OFFCURVE",
"307 705 CURVE SMOOTH",
"257 705 OFFCURVE",
"176 706 OFFCURVE",
"137 708 CURVE",
"132 688 LINE",
"208 683 OFFCURVE",
"205 661 OFFCURVE",
"190 602 CURVE SMOOTH",
"59 106 LINE SMOOTH",
"40 33 OFFCURVE",
"24 23 OFFCURVE",
"-44 20 CURVE",
"-48 0 LINE",
"-8 2 OFFCURVE",
"67 3 OFFCURVE",
"138 3 CURVE SMOOTH",
"209 3 OFFCURVE",
"270 2 OFFCURVE",
"316 0 CURVE",
"320 20 LINE",
"241 24 OFFCURVE",
"246 46 OFFCURVE",
"262 106 CURVE SMOOTH",
"402 636 LINE SMOOTH",
"413 677 OFFCURVE",
"427 688 OFFCURVE",
"454 688 CURVE SMOOTH",
"498 688 OFFCURVE",
"524 658 OFFCURVE",
"524 590 CURVE SMOOTH",
"524 429 OFFCURVE",
"412 359 OFFCURVE",
"321 359 CURVE SMOOTH",
"296 359 LINE",
"296 359 OFFCURVE",
"291 343 OFFCURVE",
"291 343 CURVE"
);
}
);
width = 742;
}
);
leftKerningGroup = I;
rightKerningGroup = R;
unicode = 0052;
},
{
glyphname = S;
lastChange = "2012-08-06 13:35:49 +0100";
layers = (
{
anchors = (
{
name = bottom;
position = "{215, 0}";
},
{
name = top;
position = "{384, 708}";
}
);
layerId = UUID0;
name = "Regular Italic";
paths = (
{
closed = 1;
nodes = (
"556 715 LINE",
"543 678 OFFCURVE",
"534 662 OFFCURVE",
"523 662 CURVE SMOOTH",
"516 662 OFFCURVE",
"506 668 OFFCURVE",
"490 680 CURVE SMOOTH",
"452 709 OFFCURVE",
"416 722 OFFCURVE",
"360 722 CURVE SMOOTH",
"251 722 OFFCURVE",
"140 656 OFFCURVE",
"140 527 CURVE SMOOTH",
"140 342 OFFCURVE",
"371 299 OFFCURVE",
"371 131 CURVE SMOOTH",
"371 44 OFFCURVE",
"311 6 OFFCURVE",
"224 6 CURVE SMOOTH",
"114 6 OFFCURVE",
"65 61 OFFCURVE",
"61 152 CURVE SMOOTH",
"60 180 OFFCURVE",
"65 205 OFFCURVE",
"70 233 CURVE",
"50 233 LINE",
"20 94 OFFCURVE",
"0 36 OFFCURVE",
"-18 -7 CURVE",
"2 -7 LINE",
"17 29 OFFCURVE",
"26 47 OFFCURVE",
"43 47 CURVE SMOOTH",
"51 47 OFFCURVE",
"64 44 OFFCURVE",
"79 32 CURVE SMOOTH",
"103 13 OFFCURVE",
"141 -14 OFFCURVE",
"221 -14 CURVE SMOOTH",
"337 -14 OFFCURVE",
"474 44 OFFCURVE",
"474 182 CURVE SMOOTH",
"474 348 OFFCURVE",
"221 425 OFFCURVE",
"221 576 CURVE SMOOTH",
"221 663 OFFCURVE",
"281 703 OFFCURVE",
"361 703 CURVE SMOOTH",
"462 703 OFFCURVE",
"503 641 OFFCURVE",
"503 568 CURVE SMOOTH",
"503 550 OFFCURVE",
"501 530 OFFCURVE",
"497 511 CURVE",
"517 511 LINE",
"538 616 OFFCURVE",
"562 680 OFFCURVE",
"576 715 CURVE"
);
}
);
width = 554;
},
{
anchors = (
{
name = bottom;
position = "{238, 0}";
},
{
name = top;
position = "{407, 708}";
}
);
layerId = "DE547DD1-6B89-4C93-B672-7CF1D26AB89E";
name = "Bold Italic";
paths = (
{
closed = 1;
nodes = (
"629 715 LINE",
"616 678 OFFCURVE",
"607 662 OFFCURVE",
"596 662 CURVE SMOOTH",
"589 662 OFFCURVE",
"574 671 OFFCURVE",
"563 676 CURVE SMOOTH",
"534 690 OFFCURVE",
"480 722 OFFCURVE",
"386 722 CURVE SMOOTH",
"273 722 OFFCURVE",
"123 659 OFFCURVE",
"123 519 CURVE SMOOTH",
"123 357 OFFCURVE",
"324 270 OFFCURVE",
"324 101 CURVE SMOOTH",
"324 49 OFFCURVE",
"300 9 OFFCURVE",
"207 9 CURVE SMOOTH",
"108 9 OFFCURVE",
"48 57 OFFCURVE",
"44 155 CURVE SMOOTH",
"43 179 OFFCURVE",
"46 213 OFFCURVE",
"53 233 CURVE",
"33 233 LINE",
"3 94 OFFCURVE",
"-17 36 OFFCURVE",
"-35 -7 CURVE",
"-15 -7 LINE",
"3 36 OFFCURVE",
"10 47 OFFCURVE",
"28 47 CURVE SMOOTH",
"36 47 OFFCURVE",
"48 40 OFFCURVE",
"62 32 CURVE SMOOTH",
"117 1 OFFCURVE",
"151 -14 OFFCURVE",
"256 -14 CURVE SMOOTH",
"370 -14 OFFCURVE",
"547 42 OFFCURVE",
"547 188 CURVE SMOOTH",
"547 352 OFFCURVE",
"324 460 OFFCURVE",
"324 598 CURVE SMOOTH",
"324 669 OFFCURVE",
"375 695 OFFCURVE",
"432 695 CURVE SMOOTH",
"522 695 OFFCURVE",
"576 647 OFFCURVE",
"576 566 CURVE SMOOTH",
"576 551 OFFCURVE",
"574 530 OFFCURVE",
"570 511 CURVE",
"590 511 LINE",
"610 616 OFFCURVE",
"635 680 OFFCURVE",
"649 715 CURVE"
);
}
);
width = 609;
}
);
leftKerningGroup = S;
rightKerningGroup = S;
unicode = 0053;
},
{
glyphname = Germandbls;
lastChange = "2012-10-23 16:50:33 +0100";
layers = (
{
layerId = UUID0;
name = "Regular Italic";
paths = (
{
closed = 1;
nodes = (
"230 514 LINE SMOOTH",
"272 671 OFFCURVE",
"340 707 OFFCURVE",
"397 707 CURVE SMOOTH",
"455 707 OFFCURVE",
"472 670 OFFCURVE",
"472 614 CURVE SMOOTH",
"472 523 OFFCURVE",
"428 411 OFFCURVE",
"331 376 CURVE",
"311 381 OFFCURVE",
"296 385 OFFCURVE",
"284 385 CURVE SMOOTH",
"263 385 OFFCURVE",
"253 374 OFFCURVE",
"253 365 CURVE SMOOTH",
"253 358 OFFCURVE",
"260 353 OFFCURVE",
"274 353 CURVE SMOOTH",
"288 353 OFFCURVE",
"303 358 OFFCURVE",
"325 365 CURVE",
"384 365 OFFCURVE",
"417 285 OFFCURVE",
"417 199 CURVE SMOOTH",
"417 83 OFFCURVE",
"357 2 OFFCURVE",
"267 2 CURVE SMOOTH",
"253 2 OFFCURVE",
"232 4 OFFCURVE",
"216 9 CURVE",
"238 19 OFFCURVE",
"255 37 OFFCURVE",
"255 59 CURVE SMOOTH",
"255 81 OFFCURVE",
"239 100 OFFCURVE",
"214 100 CURVE SMOOTH",
"181 100 OFFCURVE",
"157 69 OFFCURVE",
"157 42 CURVE SMOOTH",
"157 4 OFFCURVE",
"206 -14 OFFCURVE",
"262 -14 CURVE SMOOTH",
"390 -14 OFFCURVE",
"513 78 OFFCURVE",
"513 208 CURVE SMOOTH",
"513 287 OFFCURVE",
"468 360 OFFCURVE",
"345 374 CURVE",
"458 405 OFFCURVE",
"568 484 OFFCURVE",
"568 601 CURVE SMOOTH",
"568 685 OFFCURVE",
"511 722 OFFCURVE",
"417 722 CURVE SMOOTH",
"276 722 OFFCURVE",
"170 639 OFFCURVE",
"121 457 CURVE SMOOTH",
"-53 -188 LINE",
"-24 -179 OFFCURVE",
"9 -175 OFFCURVE",
"45 -174 CURVE"
);
}
);
width = 578;
},
{
layerId = "DE547DD1-6B89-4C93-B672-7CF1D26AB89E";
name = "Bold Italic";
paths = (
{
closed = 1;
nodes = (
"344 592 LINE SMOOTH",
"366 671 OFFCURVE",
"404 707 OFFCURVE",
"449 707 CURVE SMOOTH",
"480 707 OFFCURVE",
"485 689 OFFCURVE",
"485 639 CURVE SMOOTH",
"485 551 OFFCURVE",
"443 426 OFFCURVE",
"394 376 CURVE",
"374 381 OFFCURVE",
"360 385 OFFCURVE",
"343 385 CURVE SMOOTH",
"331 385 OFFCURVE",
"316 377 OFFCURVE",
"316 365 CURVE SMOOTH",
"316 358 OFFCURVE",
"323 353 OFFCURVE",
"336 353 CURVE SMOOTH",
"351 353 OFFCURVE",
"366 358 OFFCURVE",
"388 365 CURVE",
"433 365 OFFCURVE",
"460 277 OFFCURVE",
"460 213 CURVE SMOOTH",
"460 84 OFFCURVE",
"406 2 OFFCURVE",
"334 2 CURVE SMOOTH",
"330 2 OFFCURVE",
"316 3 OFFCURVE",
"309 4 CURVE",
"364 14 OFFCURVE",
"408 64 OFFCURVE",
"408 118 CURVE SMOOTH",
"408 161 OFFCURVE",
"377 190 OFFCURVE",
"332 190 CURVE SMOOTH",
"266 190 OFFCURVE",
"230 130 OFFCURVE",
"230 74 CURVE SMOOTH",
"230 10 OFFCURVE",
"277 -14 OFFCURVE",
"344 -14 CURVE SMOOTH",
"530 -14 OFFCURVE",
"666 65 OFFCURVE",
"666 202 CURVE SMOOTH",
"666 270 OFFCURVE",
"607 360 OFFCURVE",
"408 374 CURVE",
"555 407 OFFCURVE",
"691 483 OFFCURVE",
"691 585 CURVE SMOOTH",
"691 682 OFFCURVE",
"610 722 OFFCURVE",
"481 722 CURVE SMOOTH",
"301 722 OFFCURVE",
"157 654 OFFCURVE",
"105 457 CURVE SMOOTH",
"-67 -188 LINE SMOOTH",
"-5 -179 OFFCURVE",
"55 -173 OFFCURVE",
"135 -172 CURVE"
);
}
);
width = 711;
}
);
leftKerningGroup = germandbls.cap;
rightKerningGroup = germandbls.cap;
unicode = 1E9E;
},
{
glyphname = T;
lastChange = "2012-10-18 15:50:32 +0100";
layers = (
{
anchors = (
{
name = bottom;
position = "{281, 0}";
},
{
name = center;
position = "{330, 354}";
},
{
name = top;
position = "{467, 708}";
}
);
layerId = UUID0;
name = "Regular Italic";
paths = (
{
closed = 1;
nodes = (
"734 817 OFFCURVE",
"719 789 OFFCURVE",
"719 762 CURVE SMOOTH",
"719 736 OFFCURVE",
"734 715 OFFCURVE",
"748 702 CURVE",
"749 709 LINE",
"715 690 OFFCURVE",
"676 684 OFFCURVE",
"615 684 CURVE SMOOTH",
"499 684 OFFCURVE",
"405 712 OFFCURVE",
"286 712 CURVE SMOOTH",
"263 712 OFFCURVE",
"197 711 OFFCURVE",
"152 689 CURVE SMOOTH",
"111 669 OFFCURVE",
"99 638 OFFCURVE",
"99 611 CURVE SMOOTH",
"99 581 OFFCURVE",
"114 561 OFFCURVE",
"143 561 CURVE SMOOTH",
"178 561 OFFCURVE",
"193 592 OFFCURVE",
"193 619 CURVE SMOOTH",
"193 639 OFFCURVE",
"185 663 OFFCURVE",
"175 677 CURVE",
"196 691 OFFCURVE",
"245 694 OFFCURVE",
"287 694 CURVE SMOOTH",
"389 694 OFFCURVE",
"495 664 OFFCURVE",
"608 664 CURVE SMOOTH",
"680 664 OFFCURVE",
"732 676 OFFCURVE",
"766 697 CURVE SMOOTH",
"792 713 OFFCURVE",
"813 738 OFFCURVE",
"813 769 CURVE SMOOTH",
"813 795 OFFCURVE",
"799 817 OFFCURVE",
"768 817 CURVE SMOOTH"
);
},
{
closed = 1;
nodes = (
"265 116 LINE SMOOTH",
"243 44 OFFCURVE",
"222 23 OFFCURVE",
"138 20 CURVE",
"134 0 LINE",
"166 2 OFFCURVE",
"223 3 OFFCURVE",
"280 3 CURVE SMOOTH",
"337 3 OFFCURVE",
"394 2 OFFCURVE",
"429 0 CURVE",
"433 20 LINE",
"349 22 OFFCURVE",
"337 39 OFFCURVE",
"358 116 CURVE SMOOTH",
"508 679 LINE",
"508 679 OFFCURVE",
"418 691 OFFCURVE",
"418 691 CURVE"
);
}
);
width = 659;
},
{
anchors = (
{
name = bottom;
position = "{320, 0}";
},
{
name = center;
position = "{348, 354}";
},
{
name = top;
position = "{486, 708}";
}
);
layerId = "DE547DD1-6B89-4C93-B672-7CF1D26AB89E";
name = "Bold Italic";
paths = (
{
closed = 1;
nodes = (
"732 886 OFFCURVE",
"691 847 OFFCURVE",
"691 786 CURVE SMOOTH",
"691 739 OFFCURVE",
"715 703 OFFCURVE",
"739 685 CURVE",
"742 694 LINE",
"716 688 OFFCURVE",
"687 684 OFFCURVE",
"641 684 CURVE SMOOTH",
"543 684 OFFCURVE",
"410 702 OFFCURVE",
"285 702 CURVE SMOOTH",
"256 702 OFFCURVE",
"198 701 OFFCURVE",
"151 678 CURVE SMOOTH",
"94 650 OFFCURVE",
"78 603 OFFCURVE",
"78 567 CURVE SMOOTH",
"78 516 OFFCURVE",
"110 470 OFFCURVE",
"168 470 CURVE SMOOTH",
"222 470 OFFCURVE",
"265 512 OFFCURVE",
"265 570 CURVE SMOOTH",
"265 625 OFFCURVE",
"227 660 OFFCURVE",
"176 667 CURVE",
"201 679 OFFCURVE",
"242 684 OFFCURVE",
"290 684 CURVE SMOOTH",
"387 684 OFFCURVE",
"544 664 OFFCURVE",
"631 664 CURVE SMOOTH",
"701 664 OFFCURVE",
"760 673 OFFCURVE",
"804 691 CURVE SMOOTH",
"858 714 OFFCURVE",
"888 750 OFFCURVE",
"888 800 CURVE SMOOTH",
"888 844 OFFCURVE",
"850 886 OFFCURVE",
"790 886 CURVE SMOOTH"
);
},
{
closed = 1;
nodes = (
"254 116 LINE SMOOTH",
"235 43 OFFCURVE",
"211 23 OFFCURVE",
"127 20 CURVE",
"123 0 LINE",
"165 2 OFFCURVE",
"242 3 OFFCURVE",
"319 3 CURVE SMOOTH",
"400 3 OFFCURVE",
"481 2 OFFCURVE",
"528 0 CURVE",
"532 20 LINE",
"454 25 OFFCURVE",
"438 46 OFFCURVE",
"457 116 CURVE SMOOTH",
"604 673 LINE",
"604 673 OFFCURVE",
"406 687 OFFCURVE",
"406 687 CURVE"
);
}
);
width = 695;
}
);
leftKerningGroup = T;
rightKerningGroup = T;
unicode = 0054;
},
{
glyphname = Tbar;
lastChange = "2012-08-06 13:35:49 +0100";
layers = (
{
components = (
{
name = T;
transform = "{1, 0, 0, 1, 2, 0}";
}
);
layerId = UUID0;
name = "Regular Italic";
paths = (
{
closed = 1;
nodes = (
"173 366 LINE",
"168 346 LINE",
"582 346 LINE",
"587 366 LINE"
);
}
);
width = 675;
},
{
components = (
{
name = T;
transform = "{1, 0, 0, 1, 0, 0}";
}
);
layerId = "DE547DD1-6B89-4C93-B672-7CF1D26AB89E";
name = "Bold Italic";
paths = (
{
closed = 1;
nodes = (
"190 366 LINE",
"185 346 LINE",
"649 346 LINE",
"654 366 LINE"
);
}
);
width = 709;
}
);
leftKerningGroup = T;
rightKerningGroup = T;
unicode = 0166;
},
{
glyphname = U;
lastChange = "2012-10-18 16:50:02 +0100";
layers = (
{
anchors = (
{
name = bottom;
position = "{282, 0}";
},
{
name = ogonek;
position = "{356, 0}";
},
{
name = top;
position = "{473, 708}";
}
);
layerId = UUID0;
name = "Regular Italic";
paths = (
{
closed = 1;
nodes = (
"549 280 LINE SMOOTH",
"510 131 OFFCURVE",
"440 21 OFFCURVE",
"291 21 CURVE SMOOTH",
"151 21 OFFCURVE",
"159 134 OFFCURVE",
"195 271 CURVE SMOOTH",
"283 602 LINE SMOOTH",
"302 675 OFFCURVE",
"317 685 OFFCURVE",
"386 688 CURVE",
"392 708 LINE",
"360 706 OFFCURVE",
"313 705 OFFCURVE",
"267 705 CURVE SMOOTH",
"215 705 OFFCURVE",
"165 706 OFFCURVE",
"138 708 CURVE",
"132 688 LINE",
"199 685 OFFCURVE",
"210 675 OFFCURVE",
"191 602 CURVE SMOOTH",
"108 288 LINE SMOOTH",
"76 166 OFFCURVE",
"70 94 OFFCURVE",
"118 40 CURVE SMOOTH",
"152 1 OFFCURVE",
"207 -14 OFFCURVE",
"272 -14 CURVE SMOOTH",
"355 -14 OFFCURVE",
"429 23 OFFCURVE",
"477 79 CURVE SMOOTH",
"520 130 OFFCURVE",
"551 198 OFFCURVE",
"575 291 CURVE SMOOTH",
"653 592 LINE SMOOTH",
"671 665 OFFCURVE",
"690 685 OFFCURVE",
"759 688 CURVE",
"764 708 LINE",
"741 706 OFFCURVE",
"704 705 OFFCURVE",
"670 705 CURVE SMOOTH",
"636 705 OFFCURVE",
"592 706 OFFCURVE",
"569 708 CURVE",
"564 688 LINE",
"631 685 OFFCURVE",
"650 665 OFFCURVE",
"631 592 CURVE SMOOTH"
);
}
);
width = 682;
},
{
anchors = (
{
name = bottom;
position = "{323, 0}";
},
{
name = ogonek;
position = "{400, 0}";
},
{
name = top;
position = "{495, 708}";
}
);
layerId = "DE547DD1-6B89-4C93-B672-7CF1D26AB89E";
name = "Bold Italic";
paths = (
{
closed = 1;
nodes = (
"590 280 LINE SMOOTH",
"551 131 OFFCURVE",
"481 21 OFFCURVE",
"332 21 CURVE SMOOTH",
"265 21 OFFCURVE",
"237 88 OFFCURVE",
"286 271 CURVE SMOOTH",
"374 602 LINE SMOOTH",
"393 675 OFFCURVE",
"408 685 OFFCURVE",
"477 688 CURVE",
"483 708 LINE",
"436 706 OFFCURVE",
"374 705 OFFCURVE",
"308 705 CURVE SMOOTH",
"232 705 OFFCURVE",
"158 706 OFFCURVE",
"119 708 CURVE",
"113 688 LINE",
"180 685 OFFCURVE",
"191 675 OFFCURVE",
"172 602 CURVE SMOOTH",
"89 288 LINE SMOOTH",
"64 195 OFFCURVE",
"64 131 OFFCURVE",
"91 81 CURVE SMOOTH",
"121 26 OFFCURVE",
"191 -14 OFFCURVE",
"313 -14 CURVE SMOOTH",
"396 -14 OFFCURVE",
"470 23 OFFCURVE",
"518 79 CURVE SMOOTH",
"561 130 OFFCURVE",
"592 198 OFFCURVE",
"616 291 CURVE SMOOTH",
"678 532 LINE SMOOTH",
"708 645 OFFCURVE",
"726 675 OFFCURVE",
"790 688 CURVE",
"796 708 LINE",
"775 706 OFFCURVE",
"742 705 OFFCURVE",
"712 705 CURVE SMOOTH",
"675 705 OFFCURVE",
"627 706 OFFCURVE",
"601 708 CURVE",
"595 688 LINE",
"687 675 OFFCURVE",
"686 646 OFFCURVE",
"651 512 CURVE SMOOTH"
);
}
);
width = 702;
}
);
leftKerningGroup = U;
rightKerningGroup = U;
unicode = 0055;
},
{
glyphname = V;
lastChange = "2012-10-18 15:50:41 +0100";
layers = (
{
layerId = UUID0;
name = "Regular Italic";
paths = (
{
closed = 1;
nodes = (
"297 115 LINE",
"302 113 LINE",
"244 604 LINE SMOOTH",
"235 678 OFFCURVE",
"261 685 OFFCURVE",
"324 688 CURVE",
"329 708 LINE",
"300 706 OFFCURVE",
"261 705 OFFCURVE",
"209 705 CURVE SMOOTH",
"171 705 OFFCURVE",
"127 706 OFFCURVE",
"101 708 CURVE",
"96 688 LINE",
"115 687 OFFCURVE",
"142 672 OFFCURVE",
"148 624 CURVE SMOOTH",
"227 -5 LINE",
"232 -5 OFFCURVE",
"237 -5 OFFCURVE",
"242 -5 CURVE",
"636 601 LINE SMOOTH",
"674 661 OFFCURVE",
"709 682 OFFCURVE",
"737 688 CURVE",
"742 708 LINE",
"721 706 OFFCURVE",
"700 705 OFFCURVE",
"666 705 CURVE SMOOTH",
"631 705 OFFCURVE",
"589 706 OFFCURVE",
"552 708 CURVE",
"547 688 LINE",
"630 686 OFFCURVE",
"648 653 OFFCURVE",
"578 546 CURVE SMOOTH"
);
}
);
width = 632;
},
{
layerId = "DE547DD1-6B89-4C93-B672-7CF1D26AB89E";
name = "Bold Italic";
paths = (
{
closed = 1;
nodes = (
"355 121 LINE",
"400 163 LINE",
"352 604 LINE SMOOTH",
"345 673 OFFCURVE",
"368 685 OFFCURVE",
"432 688 CURVE",
"437 708 LINE",
"398 706 OFFCURVE",
"335 705 OFFCURVE",
"263 705 CURVE SMOOTH",
"201 705 OFFCURVE",
"133 706 OFFCURVE",
"95 708 CURVE",
"90 688 LINE",
"109 687 OFFCURVE",
"136 672 OFFCURVE",
"142 624 CURVE SMOOTH",
"221 -5 LINE",
"246 -3 OFFCURVE",
"271 -3 OFFCURVE",
"296 -5 CURVE",
"669 569 LINE SMOOTH",
"723 653 OFFCURVE",
"753 674 OFFCURVE",
"801 688 CURVE",
"806 708 LINE",
"785 706 OFFCURVE",
"759 705 OFFCURVE",
"731 705 CURVE SMOOTH",
"694 705 OFFCURVE",
"608 706 OFFCURVE",
"589 708 CURVE",
"584 688 LINE",
"661 682 OFFCURVE",
"703 656 OFFCURVE",
"652 577 CURVE SMOOTH"
);
}
);
width = 680;
}
);
leftKerningGroup = V;
rightKerningGroup = V;
unicode = 0056;
},
{
glyphname = W;
lastChange = "2012-10-18 15:50:01 +0100";
layers = (
{
anchors = (
{
name = top;
position = "{572, 708}";
}
);
layerId = UUID0;
name = "Regular Italic";
paths = (
{
closed = 1;
nodes = (
"511 496 LINE",
"285 114 LINE",
"294 118 LINE",
"237 604 LINE SMOOTH",
"229 671 OFFCURVE",
"248 685 OFFCURVE",
"293 688 CURVE",
"297 708 LINE",
"273 706 OFFCURVE",
"233 705 OFFCURVE",
"189 705 CURVE SMOOTH",
"151 705 OFFCURVE",
"117 706 OFFCURVE",
"90 708 CURVE",
"86 688 LINE",
"107 687 OFFCURVE",
"134 676 OFFCURVE",
"141 624 CURVE SMOOTH",
"220 -5 LINE",
"236 -5 LINE",
"520 472 LINE"
);
},
{
closed = 1;
nodes = (
"642 138 LINE",
"649 140 LINE",
"576 604 LINE SMOOTH",
"565 673 OFFCURVE",
"583 685 OFFCURVE",
"652 688 CURVE",
"656 708 LINE",
"628 706 OFFCURVE",
"580 705 OFFCURVE",
"528 705 CURVE SMOOTH",
"494 705 OFFCURVE",
"463 706 OFFCURVE",
"439 708 CURVE",
"435 688 LINE",
"453 687 OFFCURVE",
"472 675 OFFCURVE",
"480 624 CURVE SMOOTH",
"579 -5 LINE",
"595 -5 LINE",
"894 601 LINE SMOOTH",
"925 665 OFFCURVE",
"961 682 OFFCURVE",
"989 688 CURVE",
"994 708 LINE",
"973 706 OFFCURVE",
"952 705 OFFCURVE",
"918 705 CURVE SMOOTH",
"883 705 OFFCURVE",
"841 706 OFFCURVE",
"804 708 CURVE",
"799 688 LINE",
"882 686 OFFCURVE",
"900 661 OFFCURVE",
"843 546 CURVE SMOOTH"
);
}
);
width = 902;
},
{
anchors = (
{
name = top;
position = "{658, 705}";
}
);
layerId = "DE547DD1-6B89-4C93-B672-7CF1D26AB89E";
name = "Bold Italic";
paths = (
{
closed = 1;
nodes = (
"604 541 LINE",
"350 131 LINE",
"394 179 LINE",
"348 604 LINE SMOOTH",
"344 673 OFFCURVE",
"358 685 OFFCURVE",
"398 688 CURVE",
"403 708 LINE",
"370 706 OFFCURVE",
"319 705 OFFCURVE",
"259 705 CURVE SMOOTH",
"197 705 OFFCURVE",
"129 706 OFFCURVE",
"91 708 CURVE",
"86 688 LINE",
"105 687 OFFCURVE",
"132 672 OFFCURVE",
"138 624 CURVE SMOOTH",
"217 -5 LINE",
"292 -5 LINE",
"609 514 LINE"
);
},
{
closed = 1;
nodes = (
"747 134 LINE",
"793 179 LINE",
"747 604 LINE SMOOTH",
"740 673 OFFCURVE",
"763 685 OFFCURVE",
"827 688 CURVE",
"832 708 LINE",
"793 706 OFFCURVE",
"730 705 OFFCURVE",
"658 705 CURVE SMOOTH",
"600 705 OFFCURVE",
"536 706 OFFCURVE",
"500 708 CURVE",
"495 688 LINE",
"510 687 OFFCURVE",
"532 672 OFFCURVE",
"537 624 CURVE SMOOTH",
"616 -5 LINE",
"691 -5 LINE",
"1018 569 LINE SMOOTH",
"1068 657 OFFCURVE",
"1102 674 OFFCURVE",
"1150 688 CURVE",
"1155 708 LINE",
"1134 706 OFFCURVE",
"1108 705 OFFCURVE",
"1080 705 CURVE SMOOTH",
"1043 705 OFFCURVE",
"957 706 OFFCURVE",
"938 708 CURVE",
"933 688 LINE",
"1010 682 OFFCURVE",
"1048 660 OFFCURVE",
"1001 577 CURVE SMOOTH"
);
}
);
width = 1035;
}
);
leftKerningGroup = V;
rightKerningGroup = V;
unicode = 0057;
},
{
glyphname = X;
lastChange = "2012-08-07 17:54:19 +0100";
layers = (
{
layerId = UUID0;
name = "Regular Italic";
paths = (
{
closed = 1;
nodes = (
"388 566 LINE SMOOTH",
"379 639 OFFCURVE",
"354 722 OFFCURVE",
"257 722 CURVE SMOOTH",
"200 722 OFFCURVE",
"160 689 OFFCURVE",
"135 615 CURVE SMOOTH",
"109 538 LINE",
"129 538 LINE",
"146 589 LINE SMOOTH",
"165 643 OFFCURVE",
"186 667 OFFCURVE",
"226 667 CURVE SMOOTH",
"279 667 OFFCURVE",
"298 615 OFFCURVE",
"305 553 CURVE SMOOTH",
"353 142 LINE SMOOTH",
"362 69 OFFCURVE",
"387 -14 OFFCURVE",
"484 -14 CURVE SMOOTH",
"541 -14 OFFCURVE",
"581 19 OFFCURVE",
"606 93 CURVE SMOOTH",
"632 170 LINE",
"612 170 LINE",
"595 119 LINE SMOOTH",
"576 65 OFFCURVE",
"555 41 OFFCURVE",
"515 41 CURVE SMOOTH",
"462 41 OFFCURVE",
"443 93 OFFCURVE",
"436 155 CURVE SMOOTH"
);
},
{
closed = 1;
nodes = (
"682 701 OFFCURVE",
"683 701 OFFCURVE",
"684 701 CURVE",
"666 685 OFFCURVE",
"654 661 OFFCURVE",
"652 642 CURVE SMOOTH",
"650 621 OFFCURVE",
"660 599 OFFCURVE",
"690 599 CURVE SMOOTH",
"729 599 OFFCURVE",
"746 636 OFFCURVE",
"749 663 CURVE SMOOTH",
"752 694 OFFCURVE",
"738 722 OFFCURVE",
"690 722 CURVE SMOOTH",
"659 722 OFFCURVE",
"628 710 OFFCURVE",
"598 687 CURVE SMOOTH",
"525 627 OFFCURVE",
"431 484 OFFCURVE",
"382 354 CURVE",
"366 278 LINE",
"448 494 OFFCURVE",
"551 632 OFFCURVE",
"617 680 CURVE SMOOTH",
"636 694 OFFCURVE",
"655 701 OFFCURVE",
"681 701 CURVE SMOOTH"
);
},
{
closed = 1;
nodes = (
"35 7 OFFCURVE",
"33 7 OFFCURVE",
"32 7 CURVE",
"50 23 OFFCURVE",
"62 47 OFFCURVE",
"64 66 CURVE SMOOTH",
"66 87 OFFCURVE",
"56 109 OFFCURVE",
"26 109 CURVE SMOOTH",
"-13 109 OFFCURVE",
"-30 72 OFFCURVE",
"-33 45 CURVE SMOOTH",
"-36 14 OFFCURVE",
"-22 -14 OFFCURVE",
"26 -14 CURVE SMOOTH",
"57 -14 OFFCURVE",
"88 -2 OFFCURVE",
"118 21 CURVE SMOOTH",
"194 75 OFFCURVE",
"293 202 OFFCURVE",
"344 320 CURVE",
"360 396 LINE",
"275 195 OFFCURVE",
"168 73 OFFCURVE",
"99 28 CURVE SMOOTH",
"80 15 OFFCURVE",
"61 8 OFFCURVE",
"36 7 CURVE SMOOTH"
);
}
);
width = 699;
},
{
layerId = "DE547DD1-6B89-4C93-B672-7CF1D26AB89E";
name = "Bold Italic";
paths = (
{
closed = 1;
nodes = (
"484 566 LINE SMOOTH",
"471 673 OFFCURVE",
"429 722 OFFCURVE",
"324 722 CURVE SMOOTH",
"247 722 OFFCURVE",
"190 694 OFFCURVE",
"161 615 CURVE SMOOTH",
"135 538 LINE",
"155 538 LINE",
"172 589 LINE SMOOTH",
"186 630 OFFCURVE",
"207 648 OFFCURVE",
"233 648 CURVE SMOOTH",
"257 648 OFFCURVE",
"269 637 OFFCURVE",
"273 608 CURVE SMOOTH",
"331 142 LINE SMOOTH",
"344 42 OFFCURVE",
"382 -14 OFFCURVE",
"502 -14 CURVE SMOOTH",
"573 -14 OFFCURVE",
"623 14 OFFCURVE",
"652 93 CURVE SMOOTH",
"678 170 LINE",
"658 170 LINE",
"641 119 LINE SMOOTH",
"628 81 OFFCURVE",
"608 67 OFFCURVE",
"582 67 CURVE SMOOTH",
"557 67 OFFCURVE",
"544 80 OFFCURVE",
"540 105 CURVE SMOOTH"
);
},
{
closed = 1;
nodes = (
"742 705 OFFCURVE",
"750 702 OFFCURVE",
"755 697 CURVE",
"694 683 OFFCURVE",
"651 634 OFFCURVE",
"651 574 CURVE SMOOTH",
"651 521 OFFCURVE",
"683 490 OFFCURVE",
"733 490 CURVE SMOOTH",
"793 490 OFFCURVE",
"842 535 OFFCURVE",
"842 606 CURVE SMOOTH",
"842 671 OFFCURVE",
"800 722 OFFCURVE",
"734 722 CURVE SMOOTH",
"702 722 OFFCURVE",
"673 710 OFFCURVE",
"643 686 CURVE SMOOTH",
"578 626 OFFCURVE",
"496 483 OFFCURVE",
"453 354 CURVE",
"442 278 LINE",
"514 492 OFFCURVE",
"606 632 OFFCURVE",
"663 680 CURVE SMOOTH",
"685 696 OFFCURVE",
"707 705 OFFCURVE",
"729 705 CURVE SMOOTH"
);
},
{
closed = 1;
nodes = (
"55 3 OFFCURVE",
"47 6 OFFCURVE",
"42 11 CURVE",
"103 25 OFFCURVE",
"146 74 OFFCURVE",
"146 134 CURVE SMOOTH",
"146 187 OFFCURVE",
"114 218 OFFCURVE",
"64 218 CURVE SMOOTH",
"4 218 OFFCURVE",
"-45 173 OFFCURVE",
"-45 102 CURVE SMOOTH",
"-45 37 OFFCURVE",
"-3 -14 OFFCURVE",
"63 -14 CURVE SMOOTH",
"96 -14 OFFCURVE",
"127 -3 OFFCURVE",
"157 19 CURVE SMOOTH",
"230 78 OFFCURVE",
"315 203 OFFCURVE",
"362 320 CURVE",
"377 396 LINE",
"301 200 OFFCURVE",
"196 71 OFFCURVE",
"136 28 CURVE SMOOTH",
"113 13 OFFCURVE",
"92 3 OFFCURVE",
"68 3 CURVE SMOOTH"
);
}
);
width = 769;
}
);
leftKerningGroup = X;
rightKerningGroup = X;
unicode = 0058;
},
{
glyphname = Y;
lastChange = "2012-10-18 16:44:03 +0100";
layers = (
{
anchors = (
{
name = top;
position = "{469, 708}";
}
);
layerId = UUID0;
name = "Regular Italic";
paths = (
{
closed = 1;
nodes = (
"424 416 LINE",
"390 336 LINE",
"357 317 LINE",
"322 380 LINE",
"253 106 LINE SMOOTH",
"235 33 OFFCURVE",
"218 23 OFFCURVE",
"150 20 CURVE",
"145 0 LINE",
"174 2 OFFCURVE",
"224 3 OFFCURVE",
"276 3 CURVE SMOOTH",
"322 3 OFFCURVE",
"370 2 OFFCURVE",
"400 0 CURVE",
"405 20 LINE",
"337 23 OFFCURVE",
"328 33 OFFCURVE",
"346 106 CURVE SMOOTH"
);
},
{
closed = 1;
nodes = (
"689 701 OFFCURVE",
"690 701 OFFCURVE",
"691 701 CURVE",
"674 685 OFFCURVE",
"660 663 OFFCURVE",
"659 642 CURVE SMOOTH",
"658 621 OFFCURVE",
"666 599 OFFCURVE",
"697 599 CURVE SMOOTH",
"736 599 OFFCURVE",
"754 636 OFFCURVE",
"756 663 CURVE SMOOTH",
"758 692 OFFCURVE",
"745 722 OFFCURVE",
"700 722 CURVE SMOOTH",
"657 722 OFFCURVE",
"613 688 OFFCURVE",
"582 657 CURVE SMOOTH",
"513 588 OFFCURVE",
"446 488 OFFCURVE",
"395 360 CURVE",
"371 580 OFFCURVE",
"338 722 OFFCURVE",
"228 722 CURVE SMOOTH",
"171 722 OFFCURVE",
"150 693 OFFCURVE",
"130 635 CURVE SMOOTH",
"97 538 LINE",
"97 538 OFFCURVE",
"119 538 OFFCURVE",
"119 538 CURVE",
"147 620 LINE SMOOTH",
"158 654 OFFCURVE",
"172 667 OFFCURVE",
"195 667 CURVE SMOOTH",
"277 667 OFFCURVE",
"305 417 OFFCURVE",
"319 265 CURVE",
"378 270 LINE",
"465 509 OFFCURVE",
"566 631 OFFCURVE",
"633 679 CURVE SMOOTH",
"649 691 OFFCURVE",
"667 700 OFFCURVE",
"688 701 CURVE SMOOTH"
);
}
);
width = 670;
},
{
anchors = (
{
name = top;
position = "{485, 708}";
}
);
layerId = "DE547DD1-6B89-4C93-B672-7CF1D26AB89E";
name = "Bold Italic";
paths = (
{
closed = 1;
nodes = (
"500 416 LINE",
"466 336 LINE",
"373 317 LINE",
"288 380 LINE",
"219 106 LINE SMOOTH",
"201 33 OFFCURVE",
"184 23 OFFCURVE",
"116 20 CURVE",
"111 0 LINE",
"150 2 OFFCURVE",
"220 3 OFFCURVE",
"292 3 CURVE SMOOTH",
"362 3 OFFCURVE",
"454 2 OFFCURVE",
"496 0 CURVE",
"501 20 LINE",
"433 23 OFFCURVE",
"404 33 OFFCURVE",
"422 106 CURVE SMOOTH"
);
},
{
closed = 1;
nodes = (
"743 705 OFFCURVE",
"752 702 OFFCURVE",
"757 697 CURVE",
"698 687 OFFCURVE",
"653 644 OFFCURVE",
"653 584 CURVE SMOOTH",
"653 537 OFFCURVE",
"688 510 OFFCURVE",
"742 510 CURVE SMOOTH",
"804 510 OFFCURVE",
"854 551 OFFCURVE",
"854 615 CURVE SMOOTH",
"854 675 OFFCURVE",
"808 722 OFFCURVE",
"737 722 CURVE SMOOTH",
"687 722 OFFCURVE",
"649 698 OFFCURVE",
"618 662 CURVE SMOOTH",
"563 597 OFFCURVE",
"511 495 OFFCURVE",
"470 369 CURVE",
"444 597 OFFCURVE",
"417 722 OFFCURVE",
"263 722 CURVE SMOOTH",
"193 722 OFFCURVE",
"124 694 OFFCURVE",
"94 602 CURVE SMOOTH",
"73 538 LINE",
"73 538 OFFCURVE",
"95 538 OFFCURVE",
"95 538 CURVE",
"112 589 LINE SMOOTH",
"119 610 OFFCURVE",
"131 636 OFFCURVE",
"157 636 CURVE SMOOTH",
"222 636 OFFCURVE",
"262 421 OFFCURVE",
"275 265 CURVE",
"463 270 LINE",
"520 496 OFFCURVE",
"618 645 OFFCURVE",
"668 681 CURVE SMOOTH",
"693 699 OFFCURVE",
"711 705 OFFCURVE",
"732 705 CURVE SMOOTH"
);
}
);
width = 776;
}
);
leftKerningGroup = Y;
rightKerningGroup = Y;
unicode = 0059;
},
{
glyphname = Z;
lastChange = "2012-08-08 22:11:50 +0100";
layers = (
{
anchors = (
{
name = bottom;
position = "{235, 0}";
},
{
name = top;
position = "{444, 708}";
}
);
layerId = UUID0;
name = "Regular Italic";
paths = (
{
closed = 1;
nodes = (
"511 346 LINE",
"511 346 OFFCURVE",
"519 366 OFFCURVE",
"519 366 CURVE",
"166 366 LINE",
"159 346 LINE"
);
},
{
closed = 1;
nodes = (
"493 196 OFFCURVE",
"519 172 OFFCURVE",
"519 132 CURVE SMOOTH",
"519 91 OFFCURVE",
"496 66 OFFCURVE",
"451 66 CURVE SMOOTH",
"365 66 OFFCURVE",
"322 122 OFFCURVE",
"237 122 CURVE SMOOTH",
"181 122 OFFCURVE",
"120 101 OFFCURVE",
"64 68 CURVE",
"644 638 LINE",
"715 665 OFFCURVE",
"729 699 OFFCURVE",
"713 713 CURVE SMOOTH",
"693 730 OFFCURVE",
"655 703 OFFCURVE",
"625 660 CURVE",
"571 633 OFFCURVE",
"533 615 OFFCURVE",
"477 615 CURVE SMOOTH",
"382 615 OFFCURVE",
"346 722 OFFCURVE",
"248 722 CURVE SMOOTH",
"173 722 OFFCURVE",
"127 670 OFFCURVE",
"127 599 CURVE SMOOTH",
"127 522 OFFCURVE",
"182 492 OFFCURVE",
"233 483 CURVE",
"233 483 OFFCURVE",
"237 503 OFFCURVE",
"237 503 CURVE",
"191 512 OFFCURVE",
"165 536 OFFCURVE",
"165 576 CURVE SMOOTH",
"165 617 OFFCURVE",
"188 642 OFFCURVE",
"233 642 CURVE SMOOTH",
"319 642 OFFCURVE",
"362 586 OFFCURVE",
"447 586 CURVE SMOOTH",
"503 586 OFFCURVE",
"564 607 OFFCURVE",
"620 640 CURVE",
"40 70 LINE",
"-31 43 OFFCURVE",
"-45 9 OFFCURVE",
"-29 -5 CURVE SMOOTH",
"-10 -22 OFFCURVE",
"29 5 OFFCURVE",
"59 48 CURVE",
"113 75 OFFCURVE",
"151 93 OFFCURVE",
"207 93 CURVE SMOOTH",
"302 93 OFFCURVE",
"338 -14 OFFCURVE",
"436 -14 CURVE SMOOTH",
"511 -14 OFFCURVE",
"557 38 OFFCURVE",
"557 109 CURVE SMOOTH",
"557 186 OFFCURVE",
"502 216 OFFCURVE",
"451 225 CURVE",
"451 225 OFFCURVE",
"447 205 OFFCURVE",
"447 205 CURVE"
);
}
);
width = 652;
},
{
anchors = (
{
name = bottom;
position = "{240, 0}";
},
{
name = top;
position = "{428, 708}";
}
);
layerId = "DE547DD1-6B89-4C93-B672-7CF1D26AB89E";
name = "Bold Italic";
paths = (
{
closed = 1;
nodes = (
"516 346 LINE",
"516 346 OFFCURVE",
"524 366 OFFCURVE",
"524 366 CURVE",
"171 366 LINE",
"164 346 LINE"
);
},
{
closed = 1;
nodes = (
"507 205 OFFCURVE",
"525 188 OFFCURVE",
"525 169 CURVE SMOOTH",
"525 152 OFFCURVE",
"513 146 OFFCURVE",
"496 146 CURVE SMOOTH",
"446 146 OFFCURVE",
"396 182 OFFCURVE",
"293 182 CURVE SMOOTH",
"214 182 OFFCURVE",
"137 137 OFFCURVE",
"69 68 CURVE",
"649 638 LINE",
"720 665 OFFCURVE",
"734 699 OFFCURVE",
"718 713 CURVE SMOOTH",
"698 730 OFFCURVE",
"660 703 OFFCURVE",
"630 660 CURVE",
"603 651 OFFCURVE",
"580 645 OFFCURVE",
"552 645 CURVE SMOOTH",
"429 645 OFFCURVE",
"379 722 OFFCURVE",
"253 722 CURVE SMOOTH",
"154 722 OFFCURVE",
"92 666 OFFCURVE",
"92 589 CURVE SMOOTH",
"92 516 OFFCURVE",
"167 484 OFFCURVE",
"238 473 CURVE",
"238 473 OFFCURVE",
"243 492 OFFCURVE",
"243 492 CURVE",
"188 503 OFFCURVE",
"170 520 OFFCURVE",
"170 539 CURVE SMOOTH",
"170 556 OFFCURVE",
"182 562 OFFCURVE",
"199 562 CURVE SMOOTH",
"249 562 OFFCURVE",
"299 526 OFFCURVE",
"402 526 CURVE SMOOTH",
"480 526 OFFCURVE",
"557 571 OFFCURVE",
"625 640 CURVE",
"45 70 LINE",
"-26 43 OFFCURVE",
"-40 9 OFFCURVE",
"-24 -5 CURVE SMOOTH",
"-5 -22 OFFCURVE",
"34 5 OFFCURVE",
"64 48 CURVE",
"91 57 OFFCURVE",
"114 63 OFFCURVE",
"142 63 CURVE SMOOTH",
"265 63 OFFCURVE",
"315 -14 OFFCURVE",
"441 -14 CURVE SMOOTH",
"540 -14 OFFCURVE",
"602 42 OFFCURVE",
"602 119 CURVE SMOOTH",
"602 192 OFFCURVE",
"527 224 OFFCURVE",
"456 235 CURVE",
"456 235 OFFCURVE",
"452 216 OFFCURVE",
"452 216 CURVE"
);
}
);
width = 662;
}
);
leftKerningGroup = Z;
rightKerningGroup = Z;
unicode = 005A;
},
{
glyphname = a;
lastChange = "2012-10-22 14:48:01 +0100";
layers = (
{
anchors = (
{
name = ogonek;
position = "{377, 0}";
},
{
name = top;
position = "{334, 514}";
}
);
layerId = UUID0;
name = "Regular Italic";
paths = (
{
closed = 1;
nodes = (
"110 18 OFFCURVE",
"97 38 OFFCURVE",
"97 95 CURVE SMOOTH",
"97 272 OFFCURVE",
"213 509 OFFCURVE",
"301 509 CURVE SMOOTH",
"343 509 OFFCURVE",
"363 461 OFFCURVE",
"354 391 CURVE",
"365 397 LINE",
"380 480 OFFCURVE",
"351 528 OFFCURVE",
"304 528 CURVE SMOOTH",
"153 528 OFFCURVE",
"9 267 OFFCURVE",
"9 107 CURVE SMOOTH",
"9 36 OFFCURVE",
"40 -14 OFFCURVE",
"103 -14 CURVE SMOOTH",
"183 -14 OFFCURVE",
"259 65 OFFCURVE",
"335 278 CURVE",
"352 386 LINE",
"310 196 OFFCURVE",
"195 18 OFFCURVE",
"132 18 CURVE SMOOTH"
);
},
{
closed = 1;
nodes = (
"286 127 LINE SMOOTH",
"275 85 OFFCURVE",
"261 42 OFFCURVE",
"279 12 CURVE SMOOTH",
"289 -4 OFFCURVE",
"309 -14 OFFCURVE",
"334 -14 CURVE SMOOTH",
"373 -14 OFFCURVE",
"420 10 OFFCURVE",
"449 90 CURVE SMOOTH",
"474 163 LINE",
"455 163 LINE",
"443 126 LINE SMOOTH",
"418 49 OFFCURVE",
"392 24 OFFCURVE",
"366 24 CURVE SMOOTH",
"332 24 OFFCURVE",
"346 68 OFFCURVE",
"351 86 CURVE SMOOTH",
"476 528 LINE",
"449 519 OFFCURVE",
"416 515 OFFCURVE",
"384 514 CURVE"
);
}
);
width = 523;
},
{
anchors = (
{
name = ogonek;
position = "{439, 0}";
},
{
name = top;
position = "{368, 514}";
}
);
layerId = "DE547DD1-6B89-4C93-B672-7CF1D26AB89E";
name = "Bold Italic";
paths = (
{
closed = 1;
nodes = (
"186 54 OFFCURVE",
"181 69 OFFCURVE",
"181 107 CURVE SMOOTH",
"181 288 OFFCURVE",
"292 484 OFFCURVE",
"348 484 CURVE SMOOTH",
"364 484 OFFCURVE",
"371 469 OFFCURVE",
"365 436 CURVE",
"376 442 LINE",
"383 510 OFFCURVE",
"356 533 OFFCURVE",
"314 533 CURVE SMOOTH",
"173 533 OFFCURVE",
"-7 305 OFFCURVE",
"-7 111 CURVE SMOOTH",
"-7 31 OFFCURVE",
"33 -14 OFFCURVE",
"117 -14 CURVE SMOOTH",
"187 -14 OFFCURVE",
"245 18 OFFCURVE",
"278 125 CURVE",
"304 234 LINE",
"261 88 OFFCURVE",
"231 54 OFFCURVE",
"204 54 CURVE SMOOTH"
);
},
{
closed = 1;
nodes = (
"281 158 LINE SMOOTH",
"262 94 OFFCURVE",
"265 49 OFFCURVE",
"285 21 CURVE SMOOTH",
"302 -2 OFFCURVE",
"331 -14 OFFCURVE",
"372 -14 CURVE SMOOTH",
"425 -14 OFFCURVE",
"486 5 OFFCURVE",
"515 89 CURVE SMOOTH",
"540 162 LINE",
"521 162 LINE",
"500 106 LINE SMOOTH",
"479 50 OFFCURVE",
"459 43 OFFCURVE",
"447 43 CURVE SMOOTH",
"433 43 OFFCURVE",
"425 52 OFFCURVE",
"435 85 CURVE SMOOTH",
"570 533 LINE",
"515 524 OFFCURVE",
"462 519 OFFCURVE",
"389 518 CURVE"
);
}
);
width = 582;
}
);
leftKerningGroup = o;
rightKerningGroup = a;
unicode = 0061;
},
{
glyphname = ae;
lastChange = "2012-08-07 18:09:44 +0100";
layers = (
{
anchors = (
{
name = top;
position = "{400, 514}";
}
);
layerId = UUID0;
name = "Regular Italic";
paths = (
{
closed = 1;
nodes = (
"312 210 LINE",
"421 242 OFFCURVE",
"645 322 OFFCURVE",
"645 452 CURVE SMOOTH",
"645 503 OFFCURVE",
"604 528 OFFCURVE",
"551 528 CURVE SMOOTH",
"373 528 OFFCURVE",
"241 272 OFFCURVE",
"241 127 CURVE SMOOTH",
"241 34 OFFCURVE",
"292 -14 OFFCURVE",
"373 -14 CURVE SMOOTH",
"458 -14 OFFCURVE",
"535 53 OFFCURVE",
"574 120 CURVE",
"554 128 LINE",
"503 53 OFFCURVE",
"452 28 OFFCURVE",
"404 28 CURVE SMOOTH",
"362 28 OFFCURVE",
"335 56 OFFCURVE",
"335 124 CURVE SMOOTH",
"335 308 OFFCURVE",
"454 509 OFFCURVE",
"529 509 CURVE SMOOTH",
"552 509 OFFCURVE",
"565 492 OFFCURVE",
"565 464 CURVE SMOOTH",
"565 398 OFFCURVE",
"535 342 OFFCURVE",
"487 304 CURVE SMOOTH",
"451 276 OFFCURVE",
"388 252 OFFCURVE",
"313 227 CURVE"
);
},
{
closed = 1;
nodes = (
"104 18 OFFCURVE",
"91 45 OFFCURVE",
"91 85 CURVE SMOOTH",
"91 295 OFFCURVE",
"259 497 OFFCURVE",
"365 497 CURVE SMOOTH",
"376 497 OFFCURVE",
"407 493 OFFCURVE",
"422 451 CURVE",
"434 460 LINE",
"420 505 OFFCURVE",
"386 518 OFFCURVE",
"358 518 CURVE SMOOTH",
"193 518 OFFCURVE",
"3 272 OFFCURVE",
"3 97 CURVE SMOOTH",
"3 32 OFFCURVE",
"34 -14 OFFCURVE",
"103 -14 CURVE SMOOTH",
"184 -14 OFFCURVE",
"247 46 OFFCURVE",
"287 157 CURVE",
"278 170 LINE",
"236 56 OFFCURVE",
"175 18 OFFCURVE",
"135 18 CURVE SMOOTH"
);
}
);
width = 659;
},
{
anchors = (
{
name = top;
position = "{446, 514}";
}
);
layerId = "DE547DD1-6B89-4C93-B672-7CF1D26AB89E";
name = "Bold Italic";
paths = (
{
closed = 1;
nodes = (
"450 200 LINE",
"607 231 OFFCURVE",
"792 317 OFFCURVE",
"792 445 CURVE SMOOTH",
"792 505 OFFCURVE",
"739 533 OFFCURVE",
"668 533 CURVE SMOOTH",
"448 533 OFFCURVE",
"286 322 OFFCURVE",
"286 127 CURVE SMOOTH",
"286 34 OFFCURVE",
"365 -14 OFFCURVE",
"459 -14 CURVE SMOOTH",
"581 -14 OFFCURVE",
"667 53 OFFCURVE",
"712 120 CURVE",
"696 128 LINE",
"642 75 OFFCURVE",
"583 58 OFFCURVE",
"556 58 CURVE SMOOTH",
"506 58 OFFCURVE",
"473 77 OFFCURVE",
"473 155 CURVE SMOOTH",
"473 308 OFFCURVE",
"579 514 OFFCURVE",
"646 514 CURVE SMOOTH",
"656 514 OFFCURVE",
"662 507 OFFCURVE",
"662 489 CURVE SMOOTH",
"662 406 OFFCURVE",
"628 332 OFFCURVE",
"569 279 CURVE SMOOTH",
"536 249 OFFCURVE",
"490 228 OFFCURVE",
"451 210 CURVE"
);
},
{
closed = 1;
nodes = (
"201 54 OFFCURVE",
"176 72 OFFCURVE",
"176 117 CURVE SMOOTH",
"176 306 OFFCURVE",
"326 484 OFFCURVE",
"434 484 CURVE SMOOTH",
"454 484 OFFCURVE",
"476 474 OFFCURVE",
"480 446 CURVE",
"494 455 LINE",
"483 506 OFFCURVE",
"441 513 OFFCURVE",
"409 513 CURVE SMOOTH",
"208 513 OFFCURVE",
"-12 295 OFFCURVE",
"-12 111 CURVE SMOOTH",
"-12 31 OFFCURVE",
"28 -14 OFFCURVE",
"112 -14 CURVE SMOOTH",
"183 -14 OFFCURVE",
"256 16 OFFCURVE",
"303 78 CURVE",
"299 94 LINE",
"270 63 OFFCURVE",
"250 54 OFFCURVE",
"225 54 CURVE SMOOTH"
);
}
);
width = 785;
}
);
leftKerningGroup = o;
rightKerningGroup = e;
unicode = 00E6;
},
{
glyphname = b;
lastChange = "2012-10-01 13:27:23 +0100";
layers = (
{
layerId = UUID0;
name = "Regular Italic";
paths = (
{
closed = 1;
nodes = (
"362 496 OFFCURVE",
"380 468 OFFCURVE",
"380 409 CURVE SMOOTH",
"380 259 OFFCURVE",
"285 9 OFFCURVE",
"172 9 CURVE SMOOTH",
"138 9 OFFCURVE",
"114 26 OFFCURVE",
"96 76 CURVE",
"88 56 LINE",
"99 11 OFFCURVE",
"133 -14 OFFCURVE",
"173 -14 CURVE SMOOTH",
"360 -14 OFFCURVE",
"466 236 OFFCURVE",
"466 387 CURVE SMOOTH",
"466 482 OFFCURVE",
"425 528 OFFCURVE",
"362 528 CURVE SMOOTH",
"274 528 OFFCURVE",
"199 427 OFFCURVE",
"113 166 CURVE",
"96 58 LINE",
"150 281 OFFCURVE",
"264 496 OFFCURVE",
"333 496 CURVE SMOOTH"
);
},
{
closed = 1;
nodes = (
"301 795 LINE",
"251 769 OFFCURVE",
"198 755 OFFCURVE",
"125 754 CURVE",
"120 733 LINE",
"185 733 OFFCURVE",
"194 712 OFFCURVE",
"183 667 CURVE SMOOTH",
"8 49 LINE SMOOTH",
"4 29 OFFCURVE",
"-2 9 OFFCURVE",
"-11 -9 CURVE",
"4 -16 LINE",
"36 10 OFFCURVE",
"68 36 OFFCURVE",
"100 62 CURVE"
);
}
);
width = 504;
},
{
layerId = "DE547DD1-6B89-4C93-B672-7CF1D26AB89E";
name = "Bold Italic";
paths = (
{
closed = 1;
nodes = (
"358 466 OFFCURVE",
"366 455 OFFCURVE",
"366 409 CURVE SMOOTH",
"366 247 OFFCURVE",
"274 19 OFFCURVE",
"184 19 CURVE SMOOTH",
"170 19 OFFCURVE",
"161 22 OFFCURVE",
"150 26 CURVE",
"143 13 LINE",
"160 -2 OFFCURVE",
"192 -14 OFFCURVE",
"229 -14 CURVE SMOOTH",
"434 -14 OFFCURVE",
"552 214 OFFCURVE",
"552 370 CURVE SMOOTH",
"552 474 OFFCURVE",
"508 533 OFFCURVE",
"415 533 CURVE SMOOTH",
"339 533 OFFCURVE",
"288 474 OFFCURVE",
"235 336 CURVE",
"216 238 LINE",
"245 361 OFFCURVE",
"299 466 OFFCURVE",
"342 466 CURVE SMOOTH"
);
},
{
closed = 1;
nodes = (
"386 795 LINE",
"307 769 OFFCURVE",
"227 755 OFFCURVE",
"118 754 CURVE",
"111 733 LINE",
"176 733 OFFCURVE",
"187 712 OFFCURVE",
"174 667 CURVE SMOOTH",
"-10 50 LINE SMOOTH",
"-16 29 OFFCURVE",
"-23 9 OFFCURVE",
"-32 -9 CURVE",
"-17 -16 LINE",
"36 4 OFFCURVE",
"101 22 OFFCURVE",
"153 7 CURVE"
);
}
);
width = 575;
}
);
leftKerningGroup = h;
rightKerningGroup = o;
unicode = 0062;
},
{
glyphname = c;
lastChange = "2012-10-22 16:57:52 +0100";
layers = (
{
anchors = (
{
name = bottom;
position = "{143, 0}";
},
{
name = top;
position = "{310, 514}";
}
);
layerId = UUID0;
name = "Regular Italic";
paths = (
{
closed = 1;
nodes = (
"357 508 OFFCURVE",
"378 496 OFFCURVE",
"391 477 CURVE",
"352 470 OFFCURVE",
"316 441 OFFCURVE",
"316 402 CURVE SMOOTH",
"316 381 OFFCURVE",
"329 363 OFFCURVE",
"357 363 CURVE SMOOTH",
"401 363 OFFCURVE",
"428 405 OFFCURVE",
"428 443 CURVE SMOOTH",
"428 496 OFFCURVE",
"379 528 OFFCURVE",
"320 528 CURVE SMOOTH",
"133 528 OFFCURVE",
"18 287 OFFCURVE",
"18 133 CURVE SMOOTH",
"18 35 OFFCURVE",
"70 -14 OFFCURVE",
"150 -14 CURVE SMOOTH",
"235 -14 OFFCURVE",
"312 53 OFFCURVE",
"351 120 CURVE",
"331 128 LINE",
"280 53 OFFCURVE",
"229 28 OFFCURVE",
"181 28 CURVE SMOOTH",
"139 28 OFFCURVE",
"111 56 OFFCURVE",
"111 124 CURVE SMOOTH",
"111 327 OFFCURVE",
"221 508 OFFCURVE",
"323 508 CURVE SMOOTH"
);
}
);
width = 432;
},
{
anchors = (
{
name = bottom;
position = "{181, 0}";
},
{
name = top;
position = "{332, 513}";
}
);
layerId = "DE547DD1-6B89-4C93-B672-7CF1D26AB89E";
name = "Bold Italic";
paths = (
{
closed = 1;
nodes = (
"397 513 OFFCURVE",
"407 509 OFFCURVE",
"416 501 CURVE",
"363 485 OFFCURVE",
"314 433 OFFCURVE",
"314 368 CURVE SMOOTH",
"314 322 OFFCURVE",
"347 298 OFFCURVE",
"382 298 CURVE SMOOTH",
"446 298 OFFCURVE",
"499 365 OFFCURVE",
"499 429 CURVE SMOOTH",
"499 485 OFFCURVE",
"452 533 OFFCURVE",
"369 533 CURVE SMOOTH",
"144 533 OFFCURVE",
"2 317 OFFCURVE",
"2 144 CURVE SMOOTH",
"2 35 OFFCURVE",
"78 -14 OFFCURVE",
"180 -14 CURVE SMOOTH",
"295 -14 OFFCURVE",
"366 53 OFFCURVE",
"409 120 CURVE",
"389 128 LINE",
"347 66 OFFCURVE",
"308 48 OFFCURVE",
"269 48 CURVE SMOOTH",
"221 48 OFFCURVE",
"189 78 OFFCURVE",
"189 150 CURVE SMOOTH",
"189 327 OFFCURVE",
"282 513 OFFCURVE",
"382 513 CURVE SMOOTH"
);
}
);
width = 484;
}
);
leftKerningGroup = o;
rightKerningGroup = c;
unicode = 0063;
},
{
glyphname = d;
lastChange = "2012-08-07 18:09:44 +0100";
layers = (
{
anchors = (
{
name = center;
position = "{271, 257}";
}
);
layerId = UUID0;
name = "Regular Italic";
paths = (
{
closed = 1;
nodes = (
"565 795 LINE",
"514 769 OFFCURVE",
"461 755 OFFCURVE",
"388 754 CURVE",
"382 733 LINE",
"447 733 OFFCURVE",
"458 712 OFFCURVE",
"446 667 CURVE SMOOTH",
"302 126 LINE SMOOTH",
"293 92 OFFCURVE",
"288 64 OFFCURVE",
"289 43 CURVE SMOOTH",
"291 6 OFFCURVE",
"313 -14 OFFCURVE",
"352 -14 CURVE SMOOTH",
"392 -14 OFFCURVE",
"443 8 OFFCURVE",
"468 89 CURVE SMOOTH",
"491 162 LINE",
"472 162 LINE",
"460 125 LINE SMOOTH",
"434 49 OFFCURVE",
"413 23 OFFCURVE",
"387 23 CURVE SMOOTH",
"358 23 OFFCURVE",
"360 54 OFFCURVE",
"369 85 CURVE SMOOTH"
);
},
{
closed = 1;
nodes = (
"116 18 OFFCURVE",
"101 46 OFFCURVE",
"101 105 CURVE SMOOTH",
"101 265 OFFCURVE",
"208 505 OFFCURVE",
"336 505 CURVE SMOOTH",
"362 505 OFFCURVE",
"386 486 OFFCURVE",
"392 438 CURVE",
"400 458 LINE",
"397 504 OFFCURVE",
"365 528 OFFCURVE",
"335 528 CURVE SMOOTH",
"150 528 OFFCURVE",
"12 278 OFFCURVE",
"12 118 CURVE SMOOTH",
"12 28 OFFCURVE",
"53 -14 OFFCURVE",
"116 -14 CURVE SMOOTH",
"201 -14 OFFCURVE",
"275 62 OFFCURVE",
"354 268 CURVE",
"369 376 LINE",
"325 191 OFFCURVE",
"211 18 OFFCURVE",
"145 18 CURVE SMOOTH"
);
}
);
width = 542;
},
{
anchors = (
{
name = center;
position = "{302, 257}";
}
);
layerId = "DE547DD1-6B89-4C93-B672-7CF1D26AB89E";
name = "Bold Italic";
paths = (
{
closed = 1;
nodes = (
"656 795 LINE",
"577 769 OFFCURVE",
"494 755 OFFCURVE",
"385 754 CURVE",
"378 733 LINE",
"443 733 OFFCURVE",
"454 712 OFFCURVE",
"441 667 CURVE SMOOTH",
"306 158 LINE SMOOTH",
"287 96 OFFCURVE",
"288 52 OFFCURVE",
"307 24 CURVE SMOOTH",
"324 -1 OFFCURVE",
"355 -14 OFFCURVE",
"397 -14 CURVE SMOOTH",
"450 -14 OFFCURVE",
"511 5 OFFCURVE",
"540 89 CURVE SMOOTH",
"565 162 LINE",
"546 162 LINE",
"525 106 LINE SMOOTH",
"504 50 OFFCURVE",
"484 43 OFFCURVE",
"472 43 CURVE SMOOTH",
"460 43 OFFCURVE",
"448 52 OFFCURVE",
"460 85 CURVE SMOOTH"
);
},
{
closed = 1;
nodes = (
"191 48 OFFCURVE",
"186 67 OFFCURVE",
"186 105 CURVE SMOOTH",
"186 315 OFFCURVE",
"301 510 OFFCURVE",
"361 510 CURVE SMOOTH",
"387 510 OFFCURVE",
"391 495 OFFCURVE",
"397 468 CURVE",
"405 488 LINE",
"401 514 OFFCURVE",
"390 533 OFFCURVE",
"338 533 CURVE SMOOTH",
"116 533 OFFCURVE",
"-1 278 OFFCURVE",
"-1 132 CURVE SMOOTH",
"-1 28 OFFCURVE",
"59 -14 OFFCURVE",
"128 -14 CURVE SMOOTH",
"245 -14 OFFCURVE",
"291 83 OFFCURVE",
"349 268 CURVE",
"364 376 LINE",
"308 132 OFFCURVE",
"241 48 OFFCURVE",
"210 48 CURVE SMOOTH"
);
}
);
width = 603;
}
);
leftKerningGroup = o;
rightKerningGroup = d;
unicode = 0064;
},
{
glyphname = eth;
lastChange = "2012-10-02 15:29:12 +0100";
layers = (
{
layerId = UUID0;
name = "Regular Italic";
paths = (
{
closed = 1;
nodes = (
"333 670 LINE",
"497 742 LINE",
"491 760 LINE",
"319 684 LINE"
);
},
{
closed = 1;
nodes = (
"319 683 LINE",
"108 590 LINE",
"114 572 LINE",
"333 669 LINE"
);
},
{
closed = 1;
nodes = (
"361 242 OFFCURVE",
"272 6 OFFCURVE",
"164 6 CURVE SMOOTH",
"126 6 OFFCURVE",
"107 33 OFFCURVE",
"107 93 CURVE SMOOTH",
"107 271 OFFCURVE",
"197 508 OFFCURVE",
"301 508 CURVE SMOOTH",
"336 508 OFFCURVE",
"354 499 OFFCURVE",
"368 482 CURVE",
"375 494 LINE",
"361 508 OFFCURVE",
"343 528 OFFCURVE",
"301 528 CURVE SMOOTH",
"123 528 OFFCURVE",
"21 290 OFFCURVE",
"21 143 CURVE SMOOTH",
"21 37 OFFCURVE",
"75 -14 OFFCURVE",
"158 -14 CURVE SMOOTH",
"345 -14 OFFCURVE",
"447 224 OFFCURVE",
"447 394 CURVE SMOOTH",
"447 602 OFFCURVE",
"337 722 OFFCURVE",
"177 782 CURVE",
"165 765 LINE",
"270 711 OFFCURVE",
"361 622 OFFCURVE",
"361 421 CURVE SMOOTH"
);
}
);
width = 487;
},
{
layerId = "DE547DD1-6B89-4C93-B672-7CF1D26AB89E";
name = "Bold Italic";
paths = (
{
closed = 1;
nodes = (
"358 670 LINE",
"522 742 LINE",
"516 760 LINE",
"344 684 LINE"
);
},
{
closed = 1;
nodes = (
"344 683 LINE",
"133 590 LINE",
"139 572 LINE",
"358 669 LINE"
);
},
{
closed = 1;
nodes = (
"346 247 OFFCURVE",
"283 6 OFFCURVE",
"211 6 CURVE SMOOTH",
"196 6 OFFCURVE",
"192 14 OFFCURVE",
"192 67 CURVE SMOOTH",
"192 240 OFFCURVE",
"235 508 OFFCURVE",
"326 508 CURVE SMOOTH",
"343 508 OFFCURVE",
"371 499 OFFCURVE",
"383 482 CURVE",
"390 494 LINE",
"365 520 OFFCURVE",
"347 528 OFFCURVE",
"311 528 CURVE SMOOTH",
"120 528 OFFCURVE",
"6 310 OFFCURVE",
"6 157 CURVE SMOOTH",
"6 29 OFFCURVE",
"85 -14 OFFCURVE",
"184 -14 CURVE SMOOTH",
"413 -14 OFFCURVE",
"532 195 OFFCURVE",
"532 388 CURVE SMOOTH",
"532 568 OFFCURVE",
"394 722 OFFCURVE",
"202 782 CURVE",
"190 765 LINE",
"299 693 OFFCURVE",
"346 583 OFFCURVE",
"346 421 CURVE SMOOTH"
);
}
);
width = 556;
}
);
leftKerningGroup = o;
rightKerningGroup = eth;
unicode = 00F0;
},
{
glyphname = dcroat;
lastChange = "2012-08-07 18:09:44 +0100";
layers = (
{
components = (
{
name = d;
transform = "{1, 0, 0, 1, 0, 0}";
}
);
layerId = UUID0;
name = "Regular Italic";
paths = (
{
closed = 1;
nodes = (
"269 628 LINE",
"263 608 LINE",
"607 608 LINE",
"613 628 LINE"
);
}
);
width = 542;
},
{
components = (
{
name = d;
transform = "{1, 0, 0, 1, 0, 0}";
}
);
layerId = "DE547DD1-6B89-4C93-B672-7CF1D26AB89E";
name = "Bold Italic";
paths = (
{
closed = 1;
nodes = (
"276 628 LINE",
"270 608 LINE",
"684 608 LINE",
"690 628 LINE"
);
}
);
width = 603;
}
);
leftKerningGroup = o;
rightKerningGroup = d;
unicode = 0111;
},
{
glyphname = e;
lastChange = "2012-10-18 14:05:53 +0100";
layers = (
{
anchors = (
{
name = bottom;
position = "{154, 0}";
},
{
name = ogonek;
position = "{207, 0}";
},
{
name = top;
position = "{309, 514}";
}
);
layerId = UUID0;
name = "Regular Italic";
paths = (
{
closed = 1;
nodes = (
"83 210 LINE",
"192 243 OFFCURVE",
"416 327 OFFCURVE",
"416 462 CURVE SMOOTH",
"416 506 OFFCURVE",
"383 528 OFFCURVE",
"342 528 CURVE SMOOTH",
"152 528 OFFCURVE",
"12 272 OFFCURVE",
"12 127 CURVE SMOOTH",
"12 34 OFFCURVE",
"63 -14 OFFCURVE",
"144 -14 CURVE SMOOTH",
"229 -14 OFFCURVE",
"306 53 OFFCURVE",
"345 120 CURVE",
"329 128 LINE",
"278 53 OFFCURVE",
"223 28 OFFCURVE",
"175 28 CURVE SMOOTH",
"133 28 OFFCURVE",
"106 56 OFFCURVE",
"106 124 CURVE SMOOTH",
"106 308 OFFCURVE",
"237 509 OFFCURVE",
"320 509 CURVE SMOOTH",
"330 509 OFFCURVE",
"336 502 OFFCURVE",
"336 464 CURVE SMOOTH",
"336 398 OFFCURVE",
"306 342 OFFCURVE",
"258 304 CURVE SMOOTH",
"222 276 OFFCURVE",
"159 252 OFFCURVE",
"84 227 CURVE"
);
}
);
width = 429;
},
{
anchors = (
{
name = bottom;
position = "{192, 0}";
},
{
name = ogonek;
position = "{264, 0}";
},
{
name = top;
position = "{347, 514}";
}
);
layerId = "DE547DD1-6B89-4C93-B672-7CF1D26AB89E";
name = "Bold Italic";
paths = (
{
closed = 1;
nodes = (
"161 200 LINE",
"318 231 OFFCURVE",
"503 317 OFFCURVE",
"503 445 CURVE SMOOTH",
"503 505 OFFCURVE",
"450 533 OFFCURVE",
"379 533 CURVE SMOOTH",
"159 533 OFFCURVE",
"-3 322 OFFCURVE",
"-3 127 CURVE SMOOTH",
"-3 34 OFFCURVE",
"76 -14 OFFCURVE",
"170 -14 CURVE SMOOTH",
"292 -14 OFFCURVE",
"378 53 OFFCURVE",
"423 120 CURVE",
"407 128 LINE",
"353 75 OFFCURVE",
"294 58 OFFCURVE",
"267 58 CURVE SMOOTH",
"217 58 OFFCURVE",
"184 77 OFFCURVE",
"184 155 CURVE SMOOTH",
"184 308 OFFCURVE",
"290 514 OFFCURVE",
"357 514 CURVE SMOOTH",
"367 514 OFFCURVE",
"373 507 OFFCURVE",
"373 489 CURVE SMOOTH",
"373 411 OFFCURVE",
"335 344 OFFCURVE",
"282 292 CURVE SMOOTH",
"247 258 OFFCURVE",
"205 230 OFFCURVE",
"162 210 CURVE"
);
}
);
width = 496;
}
);
leftKerningGroup = o;
rightKerningGroup = e;
unicode = 0065;
},
{
glyphname = f;
lastChange = "2012-10-22 14:21:48 +0100";
layers = (
{
layerId = UUID0;
name = "Regular Italic";
paths = (
{
closed = 1;
nodes = (
"362 494 LINE",
"368 514 LINE",
"73 514 LINE",
"67 494 LINE"
);
},
{
closed = 1;
nodes = (
"415 767 OFFCURVE",
"435 755 OFFCURVE",
"435 743 CURVE",
"402 733 OFFCURVE",
"378 709 OFFCURVE",
"378 676 CURVE SMOOTH",
"377 654 OFFCURVE",
"393 642 OFFCURVE",
"418 642 CURVE SMOOTH",
"456 642 OFFCURVE",
"485 677 OFFCURVE",
"485 711 CURVE SMOOTH",
"485 751 OFFCURVE",
"451 782 OFFCURVE",
"390 782 CURVE SMOOTH",
"343 782 OFFCURVE",
"296 763 OFFCURVE",
"265 732 CURVE SMOOTH",
"220 688 OFFCURVE",
"191 621 OFFCURVE",
"163 515 CURVE SMOOTH",
"-25 -188 LINE",
"1 -179 OFFCURVE",
"33 -175 OFFCURVE",
"65 -174 CURVE",
"250 515 LINE SMOOTH",
"276 614 OFFCURVE",
"295 707 OFFCURVE",
"331 741 CURVE SMOOTH",
"345 754 OFFCURVE",
"364 767 OFFCURVE",
"389 767 CURVE SMOOTH"
);
}
);
width = 321;
},
{
hints = (
{
horizontal = 1;
place = "{941.000000, 21.000000}";
}
);
layerId = "DE547DD1-6B89-4C93-B672-7CF1D26AB89E";
name = "Bold Italic";
paths = (
{
closed = 1;
nodes = (
"402 494 LINE",
"408 514 LINE",
"53 514 LINE",
"47 494 LINE"
);
},
{
closed = 1;
nodes = (
"449 762 OFFCURVE",
"457 760 OFFCURVE",
"466 756 CURVE",
"410 735 OFFCURVE",
"377 689 OFFCURVE",
"377 638 CURVE SMOOTH",
"377 594 OFFCURVE",
"408 570 OFFCURVE",
"457 570 CURVE SMOOTH",
"522 570 OFFCURVE",
"565 623 OFFCURVE",
"565 670 CURVE SMOOTH",
"565 739 OFFCURVE",
"506 782 OFFCURVE",
"408 782 CURVE SMOOTH",
"349 782 OFFCURVE",
"299 769 OFFCURVE",
"257 738 CURVE SMOOTH",
"200 696 OFFCURVE",
"158 621 OFFCURVE",
"128 504 CURVE SMOOTH",
"-58 -188 LINE",
"-2 -179 OFFCURVE",
"51 -175 OFFCURVE",
"123 -174 CURVE",
"343 647 LINE SMOOTH",
"357 700 OFFCURVE",
"372 730 OFFCURVE",
"391 746 CURVE SMOOTH",
"405 758 OFFCURVE",
"421 762 OFFCURVE",
"440 762 CURVE SMOOTH"
);
}
);
width = 355;
}
);
leftKerningGroup = f;
rightKerningGroup = f;
unicode = 0066;
},
{
glyphname = g;
lastChange = "2012-10-22 14:53:41 +0100";
layers = (
{
anchors = (
{
name = top;
position = "{286, 514}";
}
);
layerId = UUID0;
name = "Regular Italic";
paths = (
{
closed = 1;
nodes = (
"62 154 OFFCURVE",
"36 117 OFFCURVE",
"36 75 CURVE SMOOTH",
"36 46 OFFCURVE",
"57 26 OFFCURVE",
"90 18 CURVE SMOOTH",
"224 -16 LINE SMOOTH",
"264 -27 OFFCURVE",
"284 -30 OFFCURVE",
"284 -48 CURVE SMOOTH",
"284 -122 OFFCURVE",
"174 -178 OFFCURVE",
"83 -178 CURVE SMOOTH",
"29 -178 OFFCURVE",
"-12 -154 OFFCURVE",
"-12 -105 CURVE SMOOTH",
"-12 -75 OFFCURVE",
"0 -28 OFFCURVE",
"97 22 CURVE",
"89 29 LINE",
"-56 -26 OFFCURVE",
"-96 -77 OFFCURVE",
"-96 -122 CURVE SMOOTH",
"-96 -164 OFFCURVE",
"-49 -195 OFFCURVE",
"55 -195 CURVE SMOOTH",
"257 -195 OFFCURVE",
"352 -82 OFFCURVE",
"352 -10 CURVE SMOOTH",
"352 39 OFFCURVE",
"307 58 OFFCURVE",
"239 76 CURVE SMOOTH",
"166 95 LINE SMOOTH",
"127 105 OFFCURVE",
"106 115 OFFCURVE",
"106 129 CURVE SMOOTH",
"106 156 OFFCURVE",
"167 182 OFFCURVE",
"227 216 CURVE",
"216 225 LINE"
);
},
{
closed = 1;
nodes = (
"321 510 OFFCURVE",
"334 481 OFFCURVE",
"334 445 CURVE SMOOTH",
"334 368 OFFCURVE",
"313 231 OFFCURVE",
"201 231 CURVE SMOOTH",
"164 231 OFFCURVE",
"141 248 OFFCURVE",
"141 296 CURVE SMOOTH",
"141 328 OFFCURVE",
"162 510 OFFCURVE",
"275 510 CURVE SMOOTH"
);
},
{
closed = 1;
nodes = (
"113 528 OFFCURVE",
"54 395 OFFCURVE",
"54 322 CURVE SMOOTH",
"54 247 OFFCURVE",
"112 213 OFFCURVE",
"197 213 CURVE SMOOTH",
"332 213 OFFCURVE",
"423 319 OFFCURVE",
"423 416 CURVE SMOOTH",
"423 494 OFFCURVE",
"367 528 OFFCURVE",
"280 528 CURVE SMOOTH"
);
},
{
closed = 1;
nodes = (
"437 620 OFFCURVE",
"415 611 OFFCURVE",
"396 598 CURVE SMOOTH",
"370 579 OFFCURVE",
"345 548 OFFCURVE",
"323 510 CURVE",
"341 505 LINE",
"359 540 OFFCURVE",
"384 572 OFFCURVE",
"403 584 CURVE SMOOTH",
"411 589 OFFCURVE",
"427 598 OFFCURVE",
"433 592 CURVE",
"425 582 OFFCURVE",
"420 568 OFFCURVE",
"420 556 CURVE SMOOTH",
"420 538 OFFCURVE",
"431 527 OFFCURVE",
"448 527 CURVE SMOOTH",
"478 527 OFFCURVE",
"504 556 OFFCURVE",
"504 585 CURVE SMOOTH",
"504 610 OFFCURVE",
"487 620 OFFCURVE",
"461 620 CURVE SMOOTH"
);
}
);
width = 449;
},
{
anchors = (
{
name = top;
position = "{307, 514}";
}
);
layerId = "DE547DD1-6B89-4C93-B672-7CF1D26AB89E";
name = "Bold Italic";
paths = (
{
closed = 1;
nodes = (
"107 179 OFFCURVE",
"7 140 OFFCURVE",
"7 77 CURVE SMOOTH",
"7 42 OFFCURVE",
"37 19 OFFCURVE",
"71 8 CURVE SMOOTH",
"207 -35 LINE SMOOTH",
"236 -44 OFFCURVE",
"265 -51 OFFCURVE",
"265 -79 CURVE SMOOTH",
"265 -136 OFFCURVE",
"172 -171 OFFCURVE",
"104 -171 CURVE SMOOTH",
"83 -171 OFFCURVE",
"71 -164 OFFCURVE",
"71 -142 CURVE SMOOTH",
"71 -114 OFFCURVE",
"84 -65 OFFCURVE",
"127 -8 CURVE",
"119 -1 LINE",
"37 -37 OFFCURVE",
"-107 -30 OFFCURVE",
"-107 -109 CURVE SMOOTH",
"-107 -157 OFFCURVE",
"-33 -188 OFFCURVE",
"92 -188 CURVE SMOOTH",
"211 -188 OFFCURVE",
"403 -139 OFFCURVE",
"403 -11 CURVE SMOOTH",
"403 50 OFFCURVE",
"345 85 OFFCURVE",
"289 106 CURVE SMOOTH",
"198 140 LINE SMOOTH",
"177 148 OFFCURVE",
"163 154 OFFCURVE",
"163 165 CURVE SMOOTH",
"163 184 OFFCURVE",
"204 205 OFFCURVE",
"262 224 CURVE",
"228 227 LINE"
);
},
{
closed = 1;
nodes = (
"313 514 OFFCURVE",
"317 490 OFFCURVE",
"317 452 CURVE SMOOTH",
"316 345 OFFCURVE",
"280 235 OFFCURVE",
"229 235 CURVE SMOOTH",
"211 235 OFFCURVE",
"204 248 OFFCURVE",
"204 294 CURVE SMOOTH",
"204 408 OFFCURVE",
"246 514 OFFCURVE",
"291 514 CURVE SMOOTH"
);
},
{
closed = 1;
nodes = (
"141 532 OFFCURVE",
"37 427 OFFCURVE",
"37 332 CURVE SMOOTH",
"37 251 OFFCURVE",
"112 217 OFFCURVE",
"209 217 CURVE SMOOTH",
"380 217 OFFCURVE",
"486 321 OFFCURVE",
"486 418 CURVE SMOOTH",
"486 499 OFFCURVE",
"411 532 OFFCURVE",
"314 532 CURVE SMOOTH"
);
},
{
closed = 1;
nodes = (
"489 690 OFFCURVE",
"469 684 OFFCURVE",
"448 667 CURVE SMOOTH",
"411 637 OFFCURVE",
"383 583 OFFCURVE",
"354 520 CURVE",
"372 513 LINE",
"394 572 OFFCURVE",
"432 630 OFFCURVE",
"454 650 CURVE SMOOTH",
"462 658 OFFCURVE",
"471 660 OFFCURVE",
"479 656 CURVE",
"447 630 OFFCURVE",
"431 600 OFFCURVE",
"431 574 CURVE SMOOTH",
"431 542 OFFCURVE",
"454 517 OFFCURVE",
"491 517 CURVE SMOOTH",
"544 517 OFFCURVE",
"585 569 OFFCURVE",
"585 621 CURVE SMOOTH",
"585 666 OFFCURVE",
"555 690 OFFCURVE",
"511 690 CURVE SMOOTH"
);
}
);
width = 487;
}
);
leftKerningGroup = g;
rightKerningGroup = g;
unicode = 0067;
},
{
glyphname = h;
lastChange = "2012-10-22 14:34:36 +0100";
layers = (
{
anchors = (
{
name = "bar-left";
position = "{74, 568}";
},
{
name = center;
position = "{268, 257}";
},
{
name = top;
position = "{243, 754}";
}
);
layerId = UUID0;
name = "Regular Italic";
paths = (
{
closed = 1;
nodes = (
"311 795 LINE",
"261 769 OFFCURVE",
"204 755 OFFCURVE",
"131 754 CURVE",
"125 733 LINE",
"190 733 OFFCURVE",
"202 712 OFFCURVE",
"189 667 CURVE SMOOTH",
"-9 0 LINE",
"-9 0 OFFCURVE",
"78 0 OFFCURVE",
"78 0 CURVE"
);
},
{
closed = 1;
nodes = (
"83 20 LINE",
"159 299 OFFCURVE",
"274 496 OFFCURVE",
"359 496 CURVE SMOOTH",
"406 496 OFFCURVE",
"391 442 OFFCURVE",
"381 412 CURVE SMOOTH",
"286 126 LINE SMOOTH",
"259 45 OFFCURVE",
"259 -14 OFFCURVE",
"340 -14 CURVE SMOOTH",
"381 -14 OFFCURVE",
"432 5 OFFCURVE",
"461 89 CURVE SMOOTH",
"486 162 LINE",
"467 162 LINE",
"454 125 LINE SMOOTH",
"426 45 OFFCURVE",
"402 23 OFFCURVE",
"377 23 CURVE SMOOTH",
"347 23 OFFCURVE",
"350 50 OFFCURVE",
"361 85 CURVE SMOOTH",
"458 377 LINE SMOOTH",
"482 449 OFFCURVE",
"486 528 OFFCURVE",
"392 528 CURVE SMOOTH",
"287 528 OFFCURVE",
"206 429 OFFCURVE",
"106 148 CURVE"
);
}
);
width = 536;
},
{
anchors = (
{
name = "bar-left";
position = "{81, 568}";
},
{
name = center;
position = "{296, 257}";
},
{
name = top;
position = "{250, 754}";
}
);
layerId = "DE547DD1-6B89-4C93-B672-7CF1D26AB89E";
name = "Bold Italic";
paths = (
{
closed = 1;
nodes = (
"386 795 LINE",
"307 769 OFFCURVE",
"227 755 OFFCURVE",
"118 754 CURVE",
"111 733 LINE",
"176 733 OFFCURVE",
"187 712 OFFCURVE",
"174 667 CURVE SMOOTH",
"-24 0 LINE",
"-24 0 OFFCURVE",
"153 0 OFFCURVE",
"153 0 CURVE"
);
},
{
closed = 1;
nodes = (
"154 3 LINE",
"212 223 OFFCURVE",
"322 471 OFFCURVE",
"376 471 CURVE SMOOTH",
"389 471 OFFCURVE",
"390 453 OFFCURVE",
"378 417 CURVE SMOOTH",
"292 158 LINE SMOOTH",
"261 65 OFFCURVE",
"276 -14 OFFCURVE",
"383 -14 CURVE SMOOTH",
"436 -14 OFFCURVE",
"497 5 OFFCURVE",
"526 89 CURVE SMOOTH",
"551 162 LINE",
"532 162 LINE",
"511 106 LINE SMOOTH",
"490 50 OFFCURVE",
"470 43 OFFCURVE",
"458 43 CURVE SMOOTH",
"449 43 OFFCURVE",
"433 47 OFFCURVE",
"446 85 CURVE SMOOTH",
"545 382 LINE SMOOTH",
"573 466 OFFCURVE",
"560 533 OFFCURVE",
"460 533 CURVE SMOOTH",
"353 533 OFFCURVE",
"284 468 OFFCURVE",
"176 143 CURVE"
);
}
);
width = 592;
}
);
leftKerningGroup = h;
rightKerningGroup = n;
unicode = 0068;
},
{
glyphname = hbar;
lastChange = "2012-08-06 13:35:49 +0100";
layers = (
{
components = (
{
name = h;
transform = "{1, 0, 0, 1, 0, 0}";
}
);
layerId = UUID0;
name = "Regular Italic";
paths = (
{
closed = 1;
nodes = (
"87 628 LINE",
"81 608 LINE",
"425 608 LINE",
"431 628 LINE"
);
}
);
width = 536;
},
{
components = (
{
name = h;
transform = "{1, 0, 0, 1, 0, 0}";
}
);
layerId = "DE547DD1-6B89-4C93-B672-7CF1D26AB89E";
name = "Bold Italic";
paths = (
{
closed = 1;
nodes = (
"81 628 LINE",
"75 608 LINE",
"479 608 LINE",
"485 628 LINE"
);
}
);
width = 592;
}
);
leftKerningGroup = h;
rightKerningGroup = n;
unicode = 0127;
},
{
glyphname = i;
lastChange = "2012-10-22 14:22:12 +0100";
layers = (
{
anchors = (
{
name = ogonek;
position = "{151, 0}";
},
{
name = top;
position = "{228, 514}";
}
);
layerId = UUID0;
name = "Regular Italic";
paths = (
{
closed = 1;
nodes = (
"182 661 OFFCURVE",
"204 632 OFFCURVE",
"238 632 CURVE SMOOTH",
"273 632 OFFCURVE",
"305 661 OFFCURVE",
"312 696 CURVE SMOOTH",
"318 731 OFFCURVE",
"297 760 OFFCURVE",
"262 760 CURVE SMOOTH",
"228 760 OFFCURVE",
"195 731 OFFCURVE",
"189 696 CURVE SMOOTH"
);
},
{
closed = 1;
nodes = (
"51 126 LINE SMOOTH",
"25 54 OFFCURVE",
"17 -14 OFFCURVE",
"103 -14 CURVE SMOOTH",
"149 -14 OFFCURVE",
"198 11 OFFCURVE",
"226 89 CURVE SMOOTH",
"252 162 LINE",
"233 162 LINE",
"219 125 LINE SMOOTH",
"190 48 OFFCURVE",
"168 23 OFFCURVE",
"141 23 CURVE SMOOTH",
"115 23 OFFCURVE",
"111 46 OFFCURVE",
"125 85 CURVE SMOOTH",
"232 388 LINE SMOOTH",
"254 450 OFFCURVE",
"267 528 OFFCURVE",
"182 528 CURVE SMOOTH",
"141 528 OFFCURVE",
"88 509 OFFCURVE",
"58 425 CURVE SMOOTH",
"32 352 LINE",
"51 352 LINE",
"65 389 LINE SMOOTH",
"91 458 OFFCURVE",
"113 491 OFFCURVE",
"144 491 CURVE SMOOTH",
"166 491 OFFCURVE",
"172 470 OFFCURVE",
"158 429 CURVE SMOOTH"
);
}
);
width = 302;
},
{
anchors = (
{
name = ogonek;
position = "{194, 0}";
},
{
name = top;
position = "{220, 514}";
}
);
layerId = "DE547DD1-6B89-4C93-B672-7CF1D26AB89E";
name = "Bold Italic";
paths = (
{
closed = 1;
nodes = (
"169 633 OFFCURVE",
"199 610 OFFCURVE",
"257 610 CURVE SMOOTH",
"326 610 OFFCURVE",
"380 651 OFFCURVE",
"380 714 CURVE SMOOTH",
"380 759 OFFCURVE",
"349 782 OFFCURVE",
"291 782 CURVE SMOOTH",
"221 782 OFFCURVE",
"169 748 OFFCURVE",
"169 676 CURVE SMOOTH"
);
},
{
closed = 1;
nodes = (
"35 158 LINE SMOOTH",
"-4 41 OFFCURVE",
"38 -14 OFFCURVE",
"127 -14 CURVE SMOOTH",
"180 -14 OFFCURVE",
"241 5 OFFCURVE",
"270 89 CURVE SMOOTH",
"295 162 LINE",
"276 162 LINE",
"255 106 LINE SMOOTH",
"234 50 OFFCURVE",
"214 43 OFFCURVE",
"202 43 CURVE SMOOTH",
"188 43 OFFCURVE",
"179 52 OFFCURVE",
"190 85 CURVE SMOOTH",
"294 393 LINE SMOOTH",
"315 456 OFFCURVE",
"300 533 OFFCURVE",
"198 533 CURVE SMOOTH",
"129 533 OFFCURVE",
"76 505 OFFCURVE",
"49 430 CURVE SMOOTH",
"21 352 LINE",
"40 352 LINE",
"63 413 LINE SMOOTH",
"81 461 OFFCURVE",
"98 476 OFFCURVE",
"118 476 CURVE SMOOTH",
"132 476 OFFCURVE",
"137 463 OFFCURVE",
"127 434 CURVE SMOOTH"
);
}
);
width = 336;
}
);
leftKerningGroup = i;
rightKerningGroup = i;
unicode = 0069;
},
{
glyphname = dotlessi;
lastChange = "2012-08-08 22:04:29 +0100";
layers = (
{
anchors = (
{
name = bottom;
position = "{155, 0}";
},
{
name = ogonek;
position = "{272, 10}";
},
{
name = top;
position = "{203, 514}";
}
);
layerId = UUID0;
name = "Regular Italic";
paths = (
{
closed = 1;
nodes = (
"51 126 LINE SMOOTH",
"25 54 OFFCURVE",
"17 -14 OFFCURVE",
"103 -14 CURVE SMOOTH",
"149 -14 OFFCURVE",
"198 11 OFFCURVE",
"226 89 CURVE SMOOTH",
"252 162 LINE",
"233 162 LINE",
"219 125 LINE SMOOTH",
"190 48 OFFCURVE",
"168 23 OFFCURVE",
"141 23 CURVE SMOOTH",
"115 23 OFFCURVE",
"111 46 OFFCURVE",
"125 85 CURVE SMOOTH",
"232 388 LINE SMOOTH",
"254 450 OFFCURVE",
"267 528 OFFCURVE",
"182 528 CURVE SMOOTH",
"141 528 OFFCURVE",
"88 509 OFFCURVE",
"58 425 CURVE SMOOTH",
"32 352 LINE",
"51 352 LINE",
"65 389 LINE SMOOTH",
"91 458 OFFCURVE",
"113 491 OFFCURVE",
"144 491 CURVE SMOOTH",
"166 491 OFFCURVE",
"172 470 OFFCURVE",
"158 429 CURVE SMOOTH"
);
}
);
width = 302;
},
{
anchors = (
{
name = bottom;
position = "{183, 0}";
},
{
name = ogonek;
position = "{301, 10}";
},
{
name = top;
position = "{209, 514}";
}
);
layerId = "DE547DD1-6B89-4C93-B672-7CF1D26AB89E";
name = "Bold Italic";
paths = (
{
closed = 1;
nodes = (
"34 158 LINE SMOOTH",
"-5 41 OFFCURVE",
"37 -14 OFFCURVE",
"126 -14 CURVE SMOOTH",
"179 -14 OFFCURVE",
"240 5 OFFCURVE",
"269 89 CURVE SMOOTH",
"294 162 LINE",
"275 162 LINE",
"254 106 LINE SMOOTH",
"233 50 OFFCURVE",
"213 43 OFFCURVE",
"201 43 CURVE SMOOTH",
"187 43 OFFCURVE",
"178 52 OFFCURVE",
"189 85 CURVE SMOOTH",
"293 393 LINE SMOOTH",
"314 456 OFFCURVE",
"299 533 OFFCURVE",
"197 533 CURVE SMOOTH",
"128 533 OFFCURVE",
"75 505 OFFCURVE",
"48 430 CURVE SMOOTH",
"20 352 LINE",
"39 352 LINE",
"62 413 LINE SMOOTH",
"80 461 OFFCURVE",
"97 476 OFFCURVE",
"117 476 CURVE SMOOTH",
"131 476 OFFCURVE",
"136 463 OFFCURVE",
"126 434 CURVE SMOOTH"
);
}
);
width = 335;
}
);
leftKerningGroup = i;
rightKerningGroup = i;
unicode = 0131;
},
{
glyphname = ij;
lastChange = "2012-08-06 13:35:49 +0100";
layers = (
{
components = (
{
name = dotaccent;
transform = "{1, 0, 0, 1, 151, -5}";
},
{
name = dotaccent;
transform = "{1, 0, 0, 1, 481, -5}";
}
);
layerId = UUID0;
name = "Regular Italic";
paths = (
{
closed = 1;
nodes = (
"232 35 OFFCURVE",
"199 23 OFFCURVE",
"168 23 CURVE SMOOTH",
"128 23 OFFCURVE",
"112 49 OFFCURVE",
"125 85 CURVE SMOOTH",
"232 388 LINE SMOOTH",
"257 459 OFFCURVE",
"263 528 OFFCURVE",
"182 528 CURVE SMOOTH",
"141 528 OFFCURVE",
"88 509 OFFCURVE",
"58 425 CURVE SMOOTH",
"32 352 LINE",
"51 352 LINE",
"65 389 LINE SMOOTH",
"91 458 OFFCURVE",
"113 491 OFFCURVE",
"144 491 CURVE SMOOTH",
"168 491 OFFCURVE",
"174 474 OFFCURVE",
"158 429 CURVE SMOOTH",
"51 126 LINE SMOOTH",
"24 48 OFFCURVE",
"47 -14 OFFCURVE",
"131 -14 CURVE SMOOTH",
"180 -14 OFFCURVE",
"238 2 OFFCURVE",
"270 73 CURVE SMOOTH",
"318 179 OFFCURVE",
"318 313 OFFCURVE",
"353 403 CURVE SMOOTH",
"382 476 OFFCURVE",
"414 491 OFFCURVE",
"452 491 CURVE SMOOTH",
"485 491 OFFCURVE",
"499 470 OFFCURVE",
"487 429 CURVE SMOOTH",
"348 -65 LINE SMOOTH",
"327 -140 OFFCURVE",
"299 -167 OFFCURVE",
"249 -173 CURVE",
"264 -158 OFFCURVE",
"277 -138 OFFCURVE",
"277 -119 CURVE SMOOTH",
"277 -101 OFFCURVE",
"265 -88 OFFCURVE",
"244 -88 CURVE SMOOTH",
"212 -88 OFFCURVE",
"185 -120 OFFCURVE",
"185 -149 CURVE SMOOTH",
"185 -173 OFFCURVE",
"201 -188 OFFCURVE",
"232 -188 CURVE SMOOTH",
"246 -188 OFFCURVE",
"271 -185 OFFCURVE",
"291 -178 CURVE SMOOTH",
"381 -145 OFFCURVE",
"444 -35 OFFCURVE",
"486 115 CURVE SMOOTH",
"563 388 LINE SMOOTH",
"584 463 OFFCURVE",
"578 528 OFFCURVE",
"491 528 CURVE SMOOTH",
"434 528 OFFCURVE",
"376 506 OFFCURVE",
"342 429 CURVE SMOOTH",
"297 327 OFFCURVE",
"299 190 OFFCURVE",
"256 91 CURVE SMOOTH"
);
}
);
width = 608;
},
{
components = (
{
name = dotaccent;
transform = "{1, 0, 0, 1, 169, 0}";
},
{
name = dotaccent;
transform = "{1, 0, 0, 1, 493, 0}";
}
);
layerId = "DE547DD1-6B89-4C93-B672-7CF1D26AB89E";
name = "Bold Italic";
paths = (
{
closed = 1;
nodes = (
"266 55 OFFCURVE",
"238 33 OFFCURVE",
"211 33 CURVE SMOOTH",
"185 33 OFFCURVE",
"179 54 OFFCURVE",
"189 85 CURVE SMOOTH",
"293 393 LINE SMOOTH",
"314 456 OFFCURVE",
"299 533 OFFCURVE",
"197 533 CURVE SMOOTH",
"128 533 OFFCURVE",
"75 505 OFFCURVE",
"48 430 CURVE SMOOTH",
"20 352 LINE",
"39 352 LINE",
"62 413 LINE SMOOTH",
"80 461 OFFCURVE",
"97 476 OFFCURVE",
"117 476 CURVE SMOOTH",
"131 476 OFFCURVE",
"136 463 OFFCURVE",
"126 434 CURVE SMOOTH",
"34 158 LINE SMOOTH",
"-5 41 OFFCURVE",
"37 -14 OFFCURVE",
"147 -14 CURVE SMOOTH",
"208 -14 OFFCURVE",
"264 2 OFFCURVE",
"297 74 CURVE SMOOTH",
"345 179 OFFCURVE",
"339 314 OFFCURVE",
"370 404 CURVE SMOOTH",
"387 449 OFFCURVE",
"407 476 OFFCURVE",
"434 476 CURVE SMOOTH",
"447 476 OFFCURVE",
"455 462 OFFCURVE",
"447 434 CURVE SMOOTH",
"307 -65 LINE SMOOTH",
"286 -140 OFFCURVE",
"258 -167 OFFCURVE",
"208 -173 CURVE",
"239 -156 OFFCURVE",
"253 -126 OFFCURVE",
"253 -102 CURVE SMOOTH",
"253 -68 OFFCURVE",
"224 -35 OFFCURVE",
"177 -35 CURVE SMOOTH",
"128 -35 OFFCURVE",
"89 -70 OFFCURVE",
"89 -116 CURVE SMOOTH",
"89 -162 OFFCURVE",
"128 -188 OFFCURVE",
"216 -188 CURVE SMOOTH",
"268 -188 OFFCURVE",
"344 -179 OFFCURVE",
"414 -121 CURVE SMOOTH",
"468 -76 OFFCURVE",
"498 -20 OFFCURVE",
"535 115 CURVE SMOOTH",
"611 393 LINE SMOOTH",
"628 457 OFFCURVE",
"622 533 OFFCURVE",
"520 533 CURVE SMOOTH",
"456 533 OFFCURVE",
"389 507 OFFCURVE",
"359 430 CURVE SMOOTH",
"319 328 OFFCURVE",
"327 190 OFFCURVE",
"283 92 CURVE SMOOTH"
);
}
);
width = 641;
}
);
leftKerningGroup = i;
rightKerningGroup = j;
unicode = 0133;
},
{
glyphname = j;
lastChange = "2012-10-01 17:00:01 +0100";
layers = (
{
anchors = (
{
name = top;
position = "{216, 514}";
}
);
layerId = UUID0;
name = "Regular Italic";
paths = (
{
closed = 1;
nodes = (
"-69 -158 OFFCURVE",
"-56 -138 OFFCURVE",
"-56 -119 CURVE SMOOTH",
"-56 -101 OFFCURVE",
"-68 -88 OFFCURVE",
"-89 -88 CURVE SMOOTH",
"-121 -88 OFFCURVE",
"-148 -120 OFFCURVE",
"-148 -149 CURVE SMOOTH",
"-148 -173 OFFCURVE",
"-132 -188 OFFCURVE",
"-101 -188 CURVE SMOOTH",
"-87 -188 OFFCURVE",
"-62 -185 OFFCURVE",
"-42 -178 CURVE SMOOTH",
"48 -145 OFFCURVE",
"111 -35 OFFCURVE",
"153 115 CURVE SMOOTH",
"230 388 LINE SMOOTH",
"250 458 OFFCURVE",
"262 528 OFFCURVE",
"178 528 CURVE SMOOTH",
"129 528 OFFCURVE",
"82 506 OFFCURVE",
"55 425 CURVE SMOOTH",
"31 352 LINE",
"50 352 LINE",
"63 389 LINE SMOOTH",
"90 465 OFFCURVE",
"113 491 OFFCURVE",
"139 491 CURVE SMOOTH",
"163 491 OFFCURVE",
"167 474 OFFCURVE",
"154 429 CURVE SMOOTH",
"15 -65 LINE SMOOTH",
"-6 -140 OFFCURVE",
"-34 -167 OFFCURVE",
"-84 -173 CURVE"
);
},
{
closed = 1;
nodes = (
"179 661 OFFCURVE",
"201 632 OFFCURVE",
"235 632 CURVE SMOOTH",
"270 632 OFFCURVE",
"302 661 OFFCURVE",
"309 696 CURVE SMOOTH",
"315 731 OFFCURVE",
"294 760 OFFCURVE",
"259 760 CURVE SMOOTH",
"225 760 OFFCURVE",
"192 731 OFFCURVE",
"186 696 CURVE SMOOTH"
);
}
);
width = 276;
},
{
anchors = (
{
name = top;
position = "{246, 514}";
}
);
layerId = "DE547DD1-6B89-4C93-B672-7CF1D26AB89E";
name = "Bold Italic";
paths = (
{
closed = 1;
nodes = (
"-84 -156 OFFCURVE",
"-70 -126 OFFCURVE",
"-70 -102 CURVE SMOOTH",
"-70 -68 OFFCURVE",
"-99 -35 OFFCURVE",
"-146 -35 CURVE SMOOTH",
"-195 -35 OFFCURVE",
"-234 -70 OFFCURVE",
"-234 -116 CURVE SMOOTH",
"-234 -162 OFFCURVE",
"-195 -188 OFFCURVE",
"-107 -188 CURVE SMOOTH",
"-55 -188 OFFCURVE",
"21 -179 OFFCURVE",
"91 -121 CURVE SMOOTH",
"145 -76 OFFCURVE",
"175 -20 OFFCURVE",
"212 115 CURVE SMOOTH",
"288 393 LINE SMOOTH",
"305 457 OFFCURVE",
"299 533 OFFCURVE",
"197 533 CURVE SMOOTH",
"137 533 OFFCURVE",
"74 507 OFFCURVE",
"46 430 CURVE SMOOTH",
"18 352 LINE",
"37 352 LINE",
"60 413 LINE SMOOTH",
"77 458 OFFCURVE",
"94 476 OFFCURVE",
"114 476 CURVE SMOOTH",
"130 476 OFFCURVE",
"132 464 OFFCURVE",
"124 434 CURVE SMOOTH",
"-16 -65 LINE SMOOTH",
"-37 -140 OFFCURVE",
"-65 -167 OFFCURVE",
"-115 -173 CURVE"
);
},
{
closed = 1;
nodes = (
"165 633 OFFCURVE",
"195 610 OFFCURVE",
"253 610 CURVE SMOOTH",
"322 610 OFFCURVE",
"376 651 OFFCURVE",
"376 714 CURVE SMOOTH",
"376 759 OFFCURVE",
"345 782 OFFCURVE",
"287 782 CURVE SMOOTH",
"217 782 OFFCURVE",
"165 748 OFFCURVE",
"165 676 CURVE SMOOTH"
);
}
);
width = 318;
}
);
leftKerningGroup = j;
rightKerningGroup = j;
unicode = 006A;
},
{
glyphname = dotlessj;
lastChange = "2012-08-06 13:35:49 +0100";
layers = (
{
anchors = (
{
name = top;
position = "{209, 514}";
}
);
layerId = UUID0;
name = "Regular Italic";
paths = (
{
closed = 1;
nodes = (
"-69 -158 OFFCURVE",
"-56 -138 OFFCURVE",
"-56 -119 CURVE SMOOTH",
"-56 -101 OFFCURVE",
"-68 -88 OFFCURVE",
"-89 -88 CURVE SMOOTH",
"-121 -88 OFFCURVE",
"-148 -120 OFFCURVE",
"-148 -149 CURVE SMOOTH",
"-148 -173 OFFCURVE",
"-132 -188 OFFCURVE",
"-101 -188 CURVE SMOOTH",
"-87 -188 OFFCURVE",
"-62 -185 OFFCURVE",
"-42 -178 CURVE SMOOTH",
"48 -145 OFFCURVE",
"111 -35 OFFCURVE",
"153 115 CURVE SMOOTH",
"230 388 LINE SMOOTH",
"250 458 OFFCURVE",
"262 528 OFFCURVE",
"178 528 CURVE SMOOTH",
"129 528 OFFCURVE",
"82 506 OFFCURVE",
"55 425 CURVE SMOOTH",
"31 352 LINE",
"50 352 LINE",
"63 389 LINE SMOOTH",
"90 465 OFFCURVE",
"113 491 OFFCURVE",
"139 491 CURVE SMOOTH",
"163 491 OFFCURVE",
"167 474 OFFCURVE",
"154 429 CURVE SMOOTH",
"15 -65 LINE SMOOTH",
"-6 -140 OFFCURVE",
"-34 -167 OFFCURVE",
"-84 -173 CURVE"
);
}
);
width = 276;
},
{
anchors = (
{
name = top;
position = "{228, 514}";
}
);
layerId = "DE547DD1-6B89-4C93-B672-7CF1D26AB89E";
name = "Bold Italic";
paths = (
{
closed = 1;
nodes = (
"-84 -156 OFFCURVE",
"-70 -126 OFFCURVE",
"-70 -102 CURVE SMOOTH",
"-70 -68 OFFCURVE",
"-99 -35 OFFCURVE",
"-146 -35 CURVE SMOOTH",
"-195 -35 OFFCURVE",
"-234 -70 OFFCURVE",
"-234 -116 CURVE SMOOTH",
"-234 -162 OFFCURVE",
"-195 -188 OFFCURVE",
"-107 -188 CURVE SMOOTH",
"-55 -188 OFFCURVE",
"21 -179 OFFCURVE",
"91 -121 CURVE SMOOTH",
"145 -76 OFFCURVE",
"175 -20 OFFCURVE",
"212 115 CURVE SMOOTH",
"288 393 LINE SMOOTH",
"305 457 OFFCURVE",
"299 533 OFFCURVE",
"197 533 CURVE SMOOTH",
"137 533 OFFCURVE",
"74 507 OFFCURVE",
"46 430 CURVE SMOOTH",
"18 352 LINE",
"37 352 LINE",
"60 413 LINE SMOOTH",
"77 458 OFFCURVE",
"94 476 OFFCURVE",
"114 476 CURVE SMOOTH",
"130 476 OFFCURVE",
"132 464 OFFCURVE",
"124 434 CURVE SMOOTH",
"-16 -65 LINE SMOOTH",
"-37 -140 OFFCURVE",
"-65 -167 OFFCURVE",
"-115 -173 CURVE"
);
}
);
width = 318;
}
);
leftKerningGroup = j;
rightKerningGroup = j;
unicode = 0237;
},
{
glyphname = k;
lastChange = "2012-08-06 13:35:49 +0100";
layers = (
{
anchors = (
{
name = bottom;
position = "{170, 0}";
},
{
name = top;
position = "{248, 754}";
}
);
layerId = UUID0;
name = "Regular Italic";
paths = (
{
closed = 1;
nodes = (
"311 795 LINE",
"261 769 OFFCURVE",
"204 755 OFFCURVE",
"131 754 CURVE",
"125 733 LINE",
"190 733 OFFCURVE",
"202 712 OFFCURVE",
"189 667 CURVE SMOOTH",
"-9 0 LINE",
"-9 0 OFFCURVE",
"78 0 OFFCURVE",
"78 0 CURVE"
);
},
{
closed = 1;
nodes = (
"356 164 LINE SMOOTH",
"379 279 OFFCURVE",
"256 299 OFFCURVE",
"154 290 CURVE",
"154 286 LINE",
"266 278 OFFCURVE",
"291 244 OFFCURVE",
"275 167 CURVE SMOOTH",
"257 81 LINE SMOOTH",
"242 14 OFFCURVE",
"275 -14 OFFCURVE",
"318 -14 CURVE SMOOTH",
"366 -14 OFFCURVE",
"411 9 OFFCURVE",
"437 89 CURVE SMOOTH",
"461 162 LINE",
"442 162 LINE",
"430 125 LINE SMOOTH",
"404 49 OFFCURVE",
"382 23 OFFCURVE",
"356 23 CURVE SMOOTH",
"335 23 OFFCURVE",
"330 34 OFFCURVE",
"336 64 CURVE SMOOTH"
);
},
{
closed = 1;
nodes = (
"425 507 OFFCURVE",
"425 507 OFFCURVE",
"426 507 CURVE",
"409 491 OFFCURVE",
"395 467 OFFCURVE",
"394 448 CURVE SMOOTH",
"393 427 OFFCURVE",
"403 405 OFFCURVE",
"433 405 CURVE SMOOTH",
"473 405 OFFCURVE",
"489 445 OFFCURVE",
"491 469 CURVE SMOOTH",
"493 501 OFFCURVE",
"478 528 OFFCURVE",
"432 528 CURVE SMOOTH",
"414 528 OFFCURVE",
"396 523 OFFCURVE",
"372 505 CURVE SMOOTH",
"301 452 OFFCURVE",
"321 306 OFFCURVE",
"158 297 CURVE",
"156 286 LINE",
"166 287 LINE",
"332 284 OFFCURVE",
"323 442 OFFCURVE",
"387 493 CURVE SMOOTH",
"398 501 OFFCURVE",
"408 507 OFFCURVE",
"424 507 CURVE SMOOTH"
);
}
);
width = 515;
},
{
anchors = (
{
name = bottom;
position = "{217, 0}";
},
{
name = top;
position = "{295, 754}";
}
);
layerId = "DE547DD1-6B89-4C93-B672-7CF1D26AB89E";
name = "Bold Italic";
paths = (
{
closed = 1;
nodes = (
"386 795 LINE",
"307 769 OFFCURVE",
"227 755 OFFCURVE",
"118 754 CURVE",
"111 733 LINE",
"176 733 OFFCURVE",
"187 712 OFFCURVE",
"174 667 CURVE SMOOTH",
"-24 0 LINE",
"-24 0 OFFCURVE",
"153 0 OFFCURVE",
"153 0 CURVE"
);
},
{
closed = 1;
nodes = (
"444 143 LINE SMOOTH",
"473 280 OFFCURVE",
"339 299 OFFCURVE",
"211 290 CURVE",
"211 286 LINE",
"278 278 OFFCURVE",
"296 254 OFFCURVE",
"277 186 CURVE SMOOTH",
"260 115 LINE SMOOTH",
"243 34 OFFCURVE",
"271 -14 OFFCURVE",
"352 -14 CURVE SMOOTH",
"411 -14 OFFCURVE",
"481 5 OFFCURVE",
"512 89 CURVE SMOOTH",
"537 162 LINE",
"518 162 LINE",
"497 106 LINE SMOOTH",
"476 50 OFFCURVE",
"456 43 OFFCURVE",
"444 43 CURVE SMOOTH",
"432 43 OFFCURVE",
"425 51 OFFCURVE",
"432 85 CURVE SMOOTH"
);
},
{
closed = 1;
nodes = (
"460 514 OFFCURVE",
"471 509 OFFCURVE",
"476 501 CURVE",
"430 481 OFFCURVE",
"387 442 OFFCURVE",
"387 387 CURVE SMOOTH",
"387 349 OFFCURVE",
"416 318 OFFCURVE",
"468 318 CURVE SMOOTH",
"524 318 OFFCURVE",
"569 354 OFFCURVE",
"569 419 CURVE SMOOTH",
"569 480 OFFCURVE",
"531 533 OFFCURVE",
"454 533 CURVE SMOOTH",
"436 533 OFFCURVE",
"410 527 OFFCURVE",
"390 510 CURVE SMOOTH",
"328 457 OFFCURVE",
"354 306 OFFCURVE",
"215 297 CURVE",
"213 286 LINE",
"223 287 LINE",
"366 284 OFFCURVE",
"349 451 OFFCURVE",
"405 498 CURVE SMOOTH",
"418 509 OFFCURVE",
"432 514 OFFCURVE",
"451 514 CURVE SMOOTH"
);
}
);
width = 577;
}
);
leftKerningGroup = h;
rightKerningGroup = k;
unicode = 006B;
},
{
glyphname = kgreenlandic;
lastChange = "2012-08-07 17:48:22 +0100";
layers = (
{
layerId = UUID0;
name = "Regular Italic";
paths = (
{
closed = 1;
nodes = (
"377 134 LINE SMOOTH",
"394 252 OFFCURVE",
"277 269 OFFCURVE",
"175 260 CURVE",
"175 256 LINE",
"287 248 OFFCURVE",
"307 216 OFFCURVE",
"296 137 CURVE SMOOTH",
"288 81 LINE SMOOTH",
"278 10 OFFCURVE",
"306 -14 OFFCURVE",
"349 -14 CURVE SMOOTH",
"397 -14 OFFCURVE",
"442 9 OFFCURVE",
"468 89 CURVE SMOOTH",
"492 162 LINE",
"473 162 LINE",
"461 125 LINE SMOOTH",
"435 49 OFFCURVE",
"413 23 OFFCURVE",
"387 23 CURVE SMOOTH",
"366 23 OFFCURVE",
"363 34 OFFCURVE",
"367 64 CURVE SMOOTH"
);
},
{
closed = 1;
nodes = (
"456 507 OFFCURVE",
"456 507 OFFCURVE",
"457 507 CURVE SMOOTH",
"440 491 OFFCURVE",
"426 467 OFFCURVE",
"425 448 CURVE SMOOTH",
"424 427 OFFCURVE",
"434 405 OFFCURVE",
"464 405 CURVE SMOOTH",
"504 405 OFFCURVE",
"520 445 OFFCURVE",
"522 469 CURVE SMOOTH",
"524 501 OFFCURVE",
"509 528 OFFCURVE",
"463 528 CURVE SMOOTH",
"445 528 OFFCURVE",
"427 523 OFFCURVE",
"403 505 CURVE SMOOTH",
"329 443 OFFCURVE",
"350 276 OFFCURVE",
"179 267 CURVE",
"177 256 LINE",
"187 257 LINE",
"361 254 OFFCURVE",
"351 436 OFFCURVE",
"418 493 CURVE SMOOTH",
"429 501 OFFCURVE",
"439 507 OFFCURVE",
"455 507 CURVE SMOOTH"
);
},
{
closed = 1;
nodes = (
"219 388 LINE SMOOTH",
"240 470 OFFCURVE",
"245 528 OFFCURVE",
"176 528 CURVE SMOOTH",
"135 528 OFFCURVE",
"84 509 OFFCURVE",
"55 425 CURVE SMOOTH",
"30 352 LINE",
"49 352 LINE",
"62 389 LINE SMOOTH",
"88 463 OFFCURVE",
"111 491 OFFCURVE",
"140 491 CURVE SMOOTH",
"163 491 OFFCURVE",
"166 471 OFFCURVE",
"154 429 CURVE SMOOTH",
"34 0 LINE",
"34 0 OFFCURVE",
"121 0 OFFCURVE",
"121 0 CURVE"
);
}
);
width = 558;
},
{
layerId = "DE547DD1-6B89-4C93-B672-7CF1D26AB89E";
name = "Bold Italic";
paths = (
{
closed = 1;
nodes = (
"464 116 LINE SMOOTH",
"486 254 OFFCURVE",
"359 272 OFFCURVE",
"231 263 CURVE",
"231 259 LINE",
"298 251 OFFCURVE",
"313 227 OFFCURVE",
"297 159 CURVE SMOOTH",
"287 115 LINE SMOOTH",
"268 32 OFFCURVE",
"298 -14 OFFCURVE",
"379 -14 CURVE SMOOTH",
"438 -14 OFFCURVE",
"508 5 OFFCURVE",
"539 89 CURVE SMOOTH",
"564 162 LINE",
"545 162 LINE",
"524 106 LINE SMOOTH",
"503 50 OFFCURVE",
"483 43 OFFCURVE",
"471 43 CURVE SMOOTH",
"459 43 OFFCURVE",
"453 49 OFFCURVE",
"459 85 CURVE SMOOTH"
);
},
{
closed = 1;
nodes = (
"487 514 OFFCURVE",
"498 509 OFFCURVE",
"503 501 CURVE",
"457 481 OFFCURVE",
"414 442 OFFCURVE",
"414 387 CURVE SMOOTH",
"414 349 OFFCURVE",
"443 318 OFFCURVE",
"495 318 CURVE SMOOTH",
"551 318 OFFCURVE",
"596 354 OFFCURVE",
"596 419 CURVE SMOOTH",
"596 480 OFFCURVE",
"558 533 OFFCURVE",
"481 533 CURVE SMOOTH",
"463 533 OFFCURVE",
"437 527 OFFCURVE",
"417 510 CURVE SMOOTH",
"355 457 OFFCURVE",
"374 279 OFFCURVE",
"235 270 CURVE",
"233 259 LINE",
"243 260 LINE",
"386 257 OFFCURVE",
"376 451 OFFCURVE",
"432 498 CURVE SMOOTH",
"445 509 OFFCURVE",
"459 514 OFFCURVE",
"478 514 CURVE SMOOTH"
);
},
{
closed = 1;
nodes = (
"283 393 LINE SMOOTH",
"300 457 OFFCURVE",
"289 533 OFFCURVE",
"184 533 CURVE SMOOTH",
"115 533 OFFCURVE",
"72 500 OFFCURVE",
"47 430 CURVE SMOOTH",
"19 352 LINE",
"38 352 LINE",
"61 413 LINE SMOOTH",
"79 461 OFFCURVE",
"96 476 OFFCURVE",
"116 476 CURVE SMOOTH",
"134 476 OFFCURVE",
"134 465 OFFCURVE",
"125 434 CURVE SMOOTH",
"3 0 LINE",
"3 0 OFFCURVE",
"180 0 OFFCURVE",
"180 0 CURVE"
);
}
);
width = 615;
}
);
leftKerningGroup = n;
rightKerningGroup = k;
unicode = 0138;
},
{
glyphname = l;
lastChange = "2012-10-01 13:27:11 +0100";
layers = (
{
anchors = (
{
name = bottom;
position = "{87, 0}";
},
{
name = right;
position = "{268, 514}";
},
{
name = top;
position = "{240, 754}";
},
{
name = topright;
position = "{257, 514}";
}
);
layerId = UUID0;
name = "Regular Italic";
paths = (
{
closed = 1;
nodes = (
"311 795 LINE",
"259 769 OFFCURVE",
"206 755 OFFCURVE",
"133 754 CURVE",
"126 733 LINE",
"191 733 OFFCURVE",
"202 712 OFFCURVE",
"189 667 CURVE SMOOTH",
"26 126 LINE SMOOTH",
"7 62 OFFCURVE",
"-6 -14 OFFCURVE",
"81 -14 CURVE SMOOTH",
"132 -14 OFFCURVE",
"175 13 OFFCURVE",
"201 89 CURVE SMOOTH",
"226 162 LINE",
"207 162 LINE",
"194 125 LINE SMOOTH",
"167 49 OFFCURVE",
"145 23 OFFCURVE",
"119 23 CURVE SMOOTH",
"94 23 OFFCURVE",
"91 46 OFFCURVE",
"102 85 CURVE SMOOTH"
);
}
);
width = 277;
},
{
anchors = (
{
name = bottom;
position = "{109, 0}";
},
{
name = right;
position = "{290, 514}";
},
{
name = top;
position = "{262, 754}";
},
{
name = topright;
position = "{296, 514}";
}
);
layerId = "DE547DD1-6B89-4C93-B672-7CF1D26AB89E";
name = "Bold Italic";
paths = (
{
closed = 1;
nodes = (
"380 795 LINE",
"301 769 OFFCURVE",
"221 755 OFFCURVE",
"112 754 CURVE",
"105 733 LINE",
"170 733 OFFCURVE",
"181 712 OFFCURVE",
"168 667 CURVE SMOOTH",
"15 158 LINE SMOOTH",
"-19 44 OFFCURVE",
"24 -14 OFFCURVE",
"109 -14 CURVE SMOOTH",
"156 -14 OFFCURVE",
"221 3 OFFCURVE",
"251 89 CURVE SMOOTH",
"276 162 LINE",
"257 162 LINE",
"236 106 LINE SMOOTH",
"214 47 OFFCURVE",
"192 43 OFFCURVE",
"185 43 CURVE SMOOTH",
"173 43 OFFCURVE",
"160 53 OFFCURVE",
"169 85 CURVE SMOOTH"
);
}
);
width = 316;
}
);
leftKerningGroup = l;
rightKerningGroup = l;
unicode = 006C;
},
{
glyphname = lslash;
lastChange = "2012-08-08 20:57:31 +0100";
layers = (
{
components = (
{
name = l;
transform = "{1, 0, 0, 1, 15, 0}";
}
);
layerId = UUID0;
name = "Regular Italic";
paths = (
{
closed = 1;
nodes = (
"172 352 LINE",
"345 467 LINE",
"349 497 LINE",
"176 382 LINE"
);
},
{
closed = 1;
nodes = (
"178 402 LINE",
"4 285 LINE",
"0 255 LINE",
"174 372 LINE"
);
}
);
width = 308;
},
{
components = (
{
name = l;
transform = "{1, 0, 0, 1, 5, 0}";
}
);
layerId = "DE547DD1-6B89-4C93-B672-7CF1D26AB89E";
name = "Bold Italic";
paths = (
{
closed = 1;
nodes = (
"208 356 LINE",
"381 471 LINE",
"385 501 LINE",
"212 386 LINE"
);
},
{
closed = 1;
nodes = (
"164 392 LINE",
"-10 275 LINE",
"-14 245 LINE",
"160 362 LINE"
);
}
);
width = 328;
}
);
leftKerningGroup = l;
rightKerningGroup = l;
unicode = 0142;
},
{
glyphname = m;
lastChange = "2012-10-22 14:25:27 +0100";
layers = (
{
layerId = UUID0;
name = "Regular Italic";
paths = (
{
closed = 1;
nodes = (
"219 388 LINE",
"236 446 OFFCURVE",
"255 528 OFFCURVE",
"176 528 CURVE SMOOTH",
"135 528 OFFCURVE",
"84 509 OFFCURVE",
"55 425 CURVE SMOOTH",
"30 352 LINE",
"49 352 LINE SMOOTH",
"62 389 LINE SMOOTH",
"88 463 OFFCURVE",
"111 491 OFFCURVE",
"140 491 CURVE SMOOTH",
"172 491 OFFCURVE",
"159 446 OFFCURVE",
"154 429 CURVE SMOOTH",
"34 0 LINE",
"34 0 OFFCURVE",
"121 0 OFFCURVE",
"121 0 CURVE"
);
},
{
closed = 1;
nodes = (
"279 0 LINE",
"369 0 LINE",
"471 377 LINE SMOOTH",
"488 440 OFFCURVE",
"504 528 OFFCURVE",
"419 528 CURVE SMOOTH",
"326 528 OFFCURVE",
"257 447 OFFCURVE",
"166 208 CURVE",
"133 48 LINE",
"200 297 OFFCURVE",
"310 496 OFFCURVE",
"386 496 CURVE SMOOTH",
"423 496 OFFCURVE",
"417 453 OFFCURVE",
"404 412 CURVE SMOOTH"
);
},
{
closed = 1;
nodes = (
"559 126 LINE SMOOTH",
"543 77 OFFCURVE",
"535 38 OFFCURVE",
"551 13 CURVE SMOOTH",
"561 -3 OFFCURVE",
"580 -14 OFFCURVE",
"613 -14 CURVE SMOOTH",
"654 -14 OFFCURVE",
"705 5 OFFCURVE",
"734 89 CURVE SMOOTH",
"759 162 LINE",
"740 162 LINE",
"727 125 LINE SMOOTH",
"699 45 OFFCURVE",
"675 23 OFFCURVE",
"650 23 CURVE SMOOTH",
"623 23 OFFCURVE",
"621 44 OFFCURVE",
"634 85 CURVE SMOOTH",
"731 377 LINE SMOOTH",
"753 444 OFFCURVE",
"759 528 OFFCURVE",
"675 528 CURVE SMOOTH",
"568 528 OFFCURVE",
"501 425 OFFCURVE",
"398 148 CURVE",
"375 20 LINE",
"461 296 OFFCURVE",
"563 496 OFFCURVE",
"642 496 CURVE SMOOTH",
"671 496 OFFCURVE",
"667 453 OFFCURVE",
"654 412 CURVE SMOOTH"
);
}
);
width = 809;
},
{
layerId = "DE547DD1-6B89-4C93-B672-7CF1D26AB89E";
name = "Bold Italic";
paths = (
{
closed = 1;
nodes = (
"282 393 LINE SMOOTH",
"299 460 OFFCURVE",
"289 533 OFFCURVE",
"191 533 CURVE SMOOTH",
"130 533 OFFCURVE",
"74 505 OFFCURVE",
"47 430 CURVE SMOOTH",
"19 352 LINE",
"38 352 LINE",
"61 413 LINE SMOOTH",
"78 458 OFFCURVE",
"95 476 OFFCURVE",
"114 476 CURVE SMOOTH",
"129 476 OFFCURVE",
"134 466 OFFCURVE",
"125 434 CURVE SMOOTH",
"3 0 LINE",
"3 0 OFFCURVE",
"180 0 OFFCURVE",
"180 0 CURVE"
);
},
{
closed = 1;
nodes = (
"274 0 LINE",
"452 0 LINE",
"562 382 LINE SMOOTH",
"589 476 OFFCURVE",
"573 533 OFFCURVE",
"486 533 CURVE SMOOTH",
"351 533 OFFCURVE",
"280 425 OFFCURVE",
"201 143 CURVE",
"214 135 LINE",
"278 334 OFFCURVE",
"342 461 OFFCURVE",
"392 461 CURVE SMOOTH",
"407 461 OFFCURVE",
"402 445 OFFCURVE",
"394 417 CURVE SMOOTH"
);
},
{
closed = 1;
nodes = (
"586 158 LINE SMOOTH",
"566 99 OFFCURVE",
"567 56 OFFCURVE",
"584 28 CURVE SMOOTH",
"601 0 OFFCURVE",
"633 -14 OFFCURVE",
"677 -14 CURVE SMOOTH",
"730 -14 OFFCURVE",
"791 5 OFFCURVE",
"820 89 CURVE SMOOTH",
"845 162 LINE",
"826 162 LINE",
"805 106 LINE SMOOTH",
"784 50 OFFCURVE",
"764 43 OFFCURVE",
"752 43 CURVE SMOOTH",
"743 43 OFFCURVE",
"727 47 OFFCURVE",
"740 85 CURVE SMOOTH",
"839 382 LINE SMOOTH",
"870 475 OFFCURVE",
"851 533 OFFCURVE",
"763 533 CURVE SMOOTH",
"653 533 OFFCURVE",
"567 463 OFFCURVE",
"480 141 CURVE",
"491 136 LINE",
"570 389 OFFCURVE",
"636 461 OFFCURVE",
"671 461 CURVE SMOOTH",
"681 461 OFFCURVE",
"682 447 OFFCURVE",
"672 417 CURVE SMOOTH"
);
}
);
width = 887;
}
);
leftKerningGroup = n;
rightKerningGroup = n;
unicode = 006D;
},
{
glyphname = n;
lastChange = "2012-10-22 14:21:03 +0100";
layers = (
{
anchors = (
{
name = bottom;
position = "{211, 0}";
},
{
name = top;
position = "{346, 514}";
}
);
layerId = UUID0;
name = "Regular Italic";
paths = (
{
closed = 1;
nodes = (
"220 388 LINE SMOOTH",
"236 451 OFFCURVE",
"255 528 OFFCURVE",
"175 528 CURVE SMOOTH",
"132 528 OFFCURVE",
"85 509 OFFCURVE",
"56 425 CURVE SMOOTH",
"31 352 LINE",
"50 352 LINE",
"63 389 LINE SMOOTH",
"91 467 OFFCURVE",
"111 491 OFFCURVE",
"140 491 CURVE SMOOTH",
"172 491 OFFCURVE",
"162 453 OFFCURVE",
"155 429 CURVE SMOOTH",
"35 0 LINE",
"35 0 OFFCURVE",
"122 0 OFFCURVE",
"122 0 CURVE"
);
},
{
closed = 1;
nodes = (
"139 68 LINE",
"209 311 OFFCURVE",
"324 496 OFFCURVE",
"403 496 CURVE SMOOTH",
"450 496 OFFCURVE",
"434 439 OFFCURVE",
"425 412 CURVE SMOOTH",
"330 126 LINE SMOOTH",
"314 79 OFFCURVE",
"306 39 OFFCURVE",
"321 15 CURVE SMOOTH",
"332 -3 OFFCURVE",
"352 -14 OFFCURVE",
"384 -14 CURVE SMOOTH",
"425 -14 OFFCURVE",
"476 5 OFFCURVE",
"505 89 CURVE SMOOTH",
"530 162 LINE",
"511 162 LINE",
"498 125 LINE SMOOTH",
"470 45 OFFCURVE",
"446 23 OFFCURVE",
"421 23 CURVE SMOOTH",
"392 23 OFFCURVE",
"393 49 OFFCURVE",
"405 85 CURVE SMOOTH",
"502 377 LINE SMOOTH",
"526 450 OFFCURVE",
"530 528 OFFCURVE",
"436 528 CURVE SMOOTH",
"339 528 OFFCURVE",
"262 447 OFFCURVE",
"168 208 CURVE"
);
}
);
width = 580;
},
{
anchors = (
{
name = bottom;
position = "{229, 0}";
},
{
name = top;
position = "{354, 514}";
}
);
layerId = "DE547DD1-6B89-4C93-B672-7CF1D26AB89E";
name = "Bold Italic";
paths = (
{
closed = 1;
nodes = (
"283 393 LINE SMOOTH",
"300 457 OFFCURVE",
"289 533 OFFCURVE",
"184 533 CURVE SMOOTH",
"115 533 OFFCURVE",
"72 500 OFFCURVE",
"47 430 CURVE SMOOTH",
"19 352 LINE",
"38 352 LINE",
"61 413 LINE SMOOTH",
"79 461 OFFCURVE",
"96 476 OFFCURVE",
"116 476 CURVE SMOOTH",
"134 476 OFFCURVE",
"134 465 OFFCURVE",
"125 434 CURVE SMOOTH",
"3 0 LINE",
"3 0 OFFCURVE",
"180 0 OFFCURVE",
"180 0 CURVE"
);
},
{
closed = 1;
nodes = (
"181 3 LINE",
"239 223 OFFCURVE",
"349 471 OFFCURVE",
"403 471 CURVE SMOOTH",
"416 471 OFFCURVE",
"417 453 OFFCURVE",
"405 417 CURVE SMOOTH",
"319 158 LINE SMOOTH",
"296 88 OFFCURVE",
"300 50 OFFCURVE",
"320 22 CURVE SMOOTH",
"337 -2 OFFCURVE",
"369 -14 OFFCURVE",
"410 -14 CURVE SMOOTH",
"463 -14 OFFCURVE",
"524 5 OFFCURVE",
"553 89 CURVE SMOOTH",
"578 162 LINE",
"559 162 LINE",
"538 106 LINE SMOOTH",
"517 50 OFFCURVE",
"497 43 OFFCURVE",
"485 43 CURVE SMOOTH",
"476 43 OFFCURVE",
"460 47 OFFCURVE",
"473 85 CURVE SMOOTH",
"572 382 LINE SMOOTH",
"600 466 OFFCURVE",
"587 533 OFFCURVE",
"487 533 CURVE SMOOTH",
"380 533 OFFCURVE",
"311 468 OFFCURVE",
"203 143 CURVE"
);
}
);
width = 619;
}
);
leftKerningGroup = n;
rightKerningGroup = n;
unicode = 006E;
},
{
glyphname = eng;
lastChange = "2012-08-07 17:56:03 +0100";
layers = (
{
layerId = UUID0;
name = "Regular Italic";
paths = (
{
closed = 1;
nodes = (
"219 388 LINE SMOOTH",
"241 473 OFFCURVE",
"244 528 OFFCURVE",
"176 528 CURVE SMOOTH",
"135 528 OFFCURVE",
"84 509 OFFCURVE",
"55 425 CURVE SMOOTH",
"30 352 LINE",
"49 352 LINE",
"62 389 LINE SMOOTH",
"88 463 OFFCURVE",
"111 491 OFFCURVE",
"140 491 CURVE SMOOTH",
"164 491 OFFCURVE",
"165 470 OFFCURVE",
"154 429 CURVE SMOOTH",
"34 0 LINE",
"34 0 OFFCURVE",
"121 0 OFFCURVE",
"121 0 CURVE"
);
},
{
closed = 1;
nodes = (
"501 377 LINE SMOOTH",
"527 468 OFFCURVE",
"522 528 OFFCURVE",
"435 528 CURVE SMOOTH",
"338 528 OFFCURVE",
"263 447 OFFCURVE",
"172 208 CURVE",
"138 68 LINE",
"208 311 OFFCURVE",
"323 496 OFFCURVE",
"402 496 CURVE SMOOTH",
"440 496 OFFCURVE",
"439 465 OFFCURVE",
"424 412 CURVE SMOOTH",
"289 -65 LINE SMOOTH",
"268 -140 OFFCURVE",
"240 -167 OFFCURVE",
"190 -173 CURVE",
"205 -159 OFFCURVE",
"212 -144 OFFCURVE",
"216 -131 CURVE SMOOTH",
"222 -108 OFFCURVE",
"211 -88 OFFCURVE",
"185 -88 CURVE SMOOTH",
"157 -88 OFFCURVE",
"135 -113 OFFCURVE",
"128 -134 CURVE SMOOTH",
"119 -167 OFFCURVE",
"136 -188 OFFCURVE",
"173 -188 CURVE SMOOTH",
"187 -188 OFFCURVE",
"212 -185 OFFCURVE",
"232 -178 CURVE SMOOTH",
"322 -145 OFFCURVE",
"385 -34 OFFCURVE",
"427 115 CURVE SMOOTH"
);
}
);
width = 549;
},
{
layerId = "DE547DD1-6B89-4C93-B672-7CF1D26AB89E";
name = "Bold Italic";
paths = (
{
closed = 1;
nodes = (
"283 393 LINE SMOOTH",
"300 457 OFFCURVE",
"289 533 OFFCURVE",
"184 533 CURVE SMOOTH",
"115 533 OFFCURVE",
"72 500 OFFCURVE",
"47 430 CURVE SMOOTH",
"19 352 LINE",
"38 352 LINE",
"61 413 LINE SMOOTH",
"79 461 OFFCURVE",
"96 476 OFFCURVE",
"116 476 CURVE SMOOTH",
"134 476 OFFCURVE",
"134 465 OFFCURVE",
"125 434 CURVE SMOOTH",
"3 0 LINE",
"3 0 OFFCURVE",
"180 0 OFFCURVE",
"180 0 CURVE"
);
},
{
closed = 1;
nodes = (
"572 382 LINE SMOOTH",
"599 466 OFFCURVE",
"587 533 OFFCURVE",
"487 533 CURVE SMOOTH",
"380 533 OFFCURVE",
"311 468 OFFCURVE",
"203 143 CURVE",
"181 3 LINE",
"239 223 OFFCURVE",
"349 471 OFFCURVE",
"403 471 CURVE SMOOTH",
"416 471 OFFCURVE",
"416 453 OFFCURVE",
"405 417 CURVE SMOOTH",
"267 -65 LINE SMOOTH",
"244 -139 OFFCURVE",
"218 -167 OFFCURVE",
"168 -173 CURVE",
"199 -156 OFFCURVE",
"213 -126 OFFCURVE",
"213 -102 CURVE SMOOTH",
"213 -68 OFFCURVE",
"184 -35 OFFCURVE",
"137 -35 CURVE SMOOTH",
"88 -35 OFFCURVE",
"49 -70 OFFCURVE",
"49 -116 CURVE SMOOTH",
"49 -162 OFFCURVE",
"88 -188 OFFCURVE",
"176 -188 CURVE SMOOTH",
"228 -188 OFFCURVE",
"304 -176 OFFCURVE",
"362 -131 CURVE SMOOTH",
"418 -88 OFFCURVE",
"452 -18 OFFCURVE",
"495 115 CURVE SMOOTH"
);
}
);
width = 602;
}
);
leftKerningGroup = n;
rightKerningGroup = j;
unicode = 014B;
},
{
glyphname = o;
lastChange = "2012-10-22 16:23:28 +0100";
layers = (
{
anchors = (
{
name = bottom;
position = "{155, 0}";
},
{
name = top;
position = "{329, 514}";
}
);
layerId = UUID0;
name = "Regular Italic";
paths = (
{
closed = 1;
nodes = (
"342 508 OFFCURVE",
"361 482 OFFCURVE",
"361 421 CURVE SMOOTH",
"361 242 OFFCURVE",
"272 6 OFFCURVE",
"164 6 CURVE SMOOTH",
"126 6 OFFCURVE",
"107 33 OFFCURVE",
"107 93 CURVE SMOOTH",
"107 271 OFFCURVE",
"197 508 OFFCURVE",
"304 508 CURVE SMOOTH"
);
},
{
closed = 1;
nodes = (
"21 37 OFFCURVE",
"75 -14 OFFCURVE",
"158 -14 CURVE SMOOTH",
"345 -14 OFFCURVE",
"447 224 OFFCURVE",
"447 371 CURVE SMOOTH",
"447 477 OFFCURVE",
"393 528 OFFCURVE",
"310 528 CURVE SMOOTH",
"123 528 OFFCURVE",
"21 290 OFFCURVE",
"21 143 CURVE SMOOTH"
);
}
);
width = 488;
},
{
anchors = (
{
name = bottom;
position = "{180, 0}";
},
{
name = top;
position = "{354, 514}";
}
);
layerId = "DE547DD1-6B89-4C93-B672-7CF1D26AB89E";
name = "Bold Italic";
paths = (
{
closed = 1;
nodes = (
"358 513 OFFCURVE",
"366 506 OFFCURVE",
"366 455 CURVE SMOOTH",
"366 254 OFFCURVE",
"244 6 OFFCURVE",
"191 6 CURVE SMOOTH",
"178 6 OFFCURVE",
"172 20 OFFCURVE",
"172 62 CURVE SMOOTH",
"172 248 OFFCURVE",
"292 513 OFFCURVE",
"349 513 CURVE SMOOTH"
);
},
{
closed = 1;
nodes = (
"6 47 OFFCURVE",
"68 -14 OFFCURVE",
"184 -14 CURVE SMOOTH",
"424 -14 OFFCURVE",
"532 206 OFFCURVE",
"532 363 CURVE SMOOTH",
"532 472 OFFCURVE",
"470 533 OFFCURVE",
"354 533 CURVE SMOOTH",
"114 533 OFFCURVE",
"6 313 OFFCURVE",
"6 156 CURVE SMOOTH"
);
}
);
width = 557;
}
);
leftKerningGroup = o;
rightKerningGroup = o;
unicode = 006F;
},
{
glyphname = oslash;
lastChange = "2012-08-07 18:10:41 +0100";
layers = (
{
anchors = (
{
name = top;
position = "{244, 514}";
}
);
components = (
{
name = o;
transform = "{1, 0, 0, 1, 0, 0}";
}
);
layerId = UUID0;
name = "Regular Italic";
paths = (
{
closed = 1;
nodes = (
"405 446 LINE",
"510 574 LINE",
"497 586 LINE",
"395 463 LINE"
);
},
{
closed = 1;
nodes = (
"385 463 LINE",
"90 81 LINE",
"101 63 LINE",
"395 446 LINE"
);
},
{
closed = 1;
nodes = (
"80 81 LINE",
"-36 -60 LINE",
"-22 -73 LINE",
"91 63 LINE"
);
}
);
width = 488;
},
{
anchors = (
{
name = top;
position = "{278, 514}";
}
);
components = (
{
name = o;
transform = "{1, 0, 0, 1, 0, 0}";
}
);
layerId = "DE547DD1-6B89-4C93-B672-7CF1D26AB89E";
name = "Bold Italic";
paths = (
{
closed = 1;
nodes = (
"381 450 LINE",
"477 600 LINE",
"460 608 LINE",
"371 467 LINE"
);
},
{
closed = 1;
nodes = (
"367 475 LINE",
"142 41 LINE",
"152 23 LINE",
"376 458 LINE"
);
},
{
closed = 1;
nodes = (
"130 41 LINE",
"52 -81 LINE",
"68 -90 LINE",
"140 23 LINE"
);
}
);
width = 556;
}
);
leftKerningGroup = o;
rightKerningGroup = o;
unicode = 00F8;
},
{
glyphname = oe;
lastChange = "2012-08-07 18:09:44 +0100";
layers = (
{
anchors = (
{
name = top;
position = "{360, 514}";
}
);
layerId = UUID0;
name = "Regular Italic";
paths = (
{
closed = 1;
nodes = (
"372 210 LINE",
"481 242 OFFCURVE",
"705 322 OFFCURVE",
"705 452 CURVE SMOOTH",
"705 503 OFFCURVE",
"664 528 OFFCURVE",
"611 528 CURVE SMOOTH",
"433 528 OFFCURVE",
"301 272 OFFCURVE",
"301 127 CURVE SMOOTH",
"301 34 OFFCURVE",
"352 -14 OFFCURVE",
"433 -14 CURVE SMOOTH",
"518 -14 OFFCURVE",
"595 53 OFFCURVE",
"634 120 CURVE",
"614 128 LINE",
"563 53 OFFCURVE",
"512 28 OFFCURVE",
"464 28 CURVE SMOOTH",
"422 28 OFFCURVE",
"395 56 OFFCURVE",
"395 124 CURVE SMOOTH",
"395 308 OFFCURVE",
"514 509 OFFCURVE",
"589 509 CURVE SMOOTH",
"612 509 OFFCURVE",
"625 492 OFFCURVE",
"625 464 CURVE SMOOTH",
"625 398 OFFCURVE",
"595 342 OFFCURVE",
"547 304 CURVE SMOOTH",
"511 276 OFFCURVE",
"448 252 OFFCURVE",
"373 227 CURVE"
);
},
{
closed = 1;
nodes = (
"412 381 LINE",
"449 458 OFFCURVE",
"430 518 OFFCURVE",
"342 518 CURVE SMOOTH",
"151 518 OFFCURVE",
"15 286 OFFCURVE",
"15 143 CURVE SMOOTH",
"15 37 OFFCURVE",
"66 -14 OFFCURVE",
"137 -14 CURVE SMOOTH",
"243 -14 OFFCURVE",
"299 89 OFFCURVE",
"336 201 CURVE",
"319 209 LINE",
"283 93 OFFCURVE",
"217 11 OFFCURVE",
"148 11 CURVE SMOOTH",
"117 11 OFFCURVE",
"101 33 OFFCURVE",
"101 93 CURVE SMOOTH",
"101 267 OFFCURVE",
"211 495 OFFCURVE",
"349 495 CURVE SMOOTH",
"415 495 OFFCURVE",
"414 435 OFFCURVE",
"391 383 CURVE"
);
}
);
width = 719;
},
{
anchors = (
{
name = top;
position = "{408, 514}";
}
);
layerId = "DE547DD1-6B89-4C93-B672-7CF1D26AB89E";
name = "Bold Italic";
paths = (
{
closed = 1;
nodes = (
"480 200 LINE",
"637 231 OFFCURVE",
"822 317 OFFCURVE",
"822 445 CURVE SMOOTH",
"822 505 OFFCURVE",
"769 533 OFFCURVE",
"698 533 CURVE SMOOTH",
"478 533 OFFCURVE",
"316 322 OFFCURVE",
"316 127 CURVE SMOOTH",
"316 34 OFFCURVE",
"395 -14 OFFCURVE",
"489 -14 CURVE SMOOTH",
"611 -14 OFFCURVE",
"697 53 OFFCURVE",
"742 120 CURVE",
"726 128 LINE",
"672 75 OFFCURVE",
"613 58 OFFCURVE",
"586 58 CURVE SMOOTH",
"536 58 OFFCURVE",
"503 77 OFFCURVE",
"503 155 CURVE SMOOTH",
"503 308 OFFCURVE",
"609 514 OFFCURVE",
"676 514 CURVE SMOOTH",
"686 514 OFFCURVE",
"692 507 OFFCURVE",
"692 489 CURVE SMOOTH",
"692 414 OFFCURVE",
"661 344 OFFCURVE",
"611 293 CURVE SMOOTH",
"575 256 OFFCURVE",
"526 229 OFFCURVE",
"481 210 CURVE"
);
},
{
closed = 1;
nodes = (
"489 456 LINE",
"475 509 OFFCURVE",
"428 533 OFFCURVE",
"378 533 CURVE SMOOTH",
"146 533 OFFCURVE",
"0 313 OFFCURVE",
"0 156 CURVE SMOOTH",
"0 47 OFFCURVE",
"62 -14 OFFCURVE",
"173 -14 CURVE SMOOTH",
"240 -14 OFFCURVE",
"302 18 OFFCURVE",
"338 75 CURVE",
"330 85 LINE",
"304 61 OFFCURVE",
"271 56 OFFCURVE",
"251 56 CURVE SMOOTH",
"210 56 OFFCURVE",
"186 85 OFFCURVE",
"186 149 CURVE SMOOTH",
"186 323 OFFCURVE",
"305 484 OFFCURVE",
"407 484 CURVE SMOOTH",
"429 484 OFFCURVE",
"460 478 OFFCURVE",
"475 448 CURVE"
);
}
);
width = 815;
}
);
leftKerningGroup = o;
rightKerningGroup = e;
unicode = 0153;
},
{
glyphname = p;
lastChange = "2012-08-07 18:10:41 +0100";
layers = (
{
layerId = UUID0;
name = "Regular Italic";
paths = (
{
closed = 1;
nodes = (
"409 496 OFFCURVE",
"427 468 OFFCURVE",
"427 409 CURVE SMOOTH",
"427 259 OFFCURVE",
"332 9 OFFCURVE",
"219 9 CURVE SMOOTH",
"185 9 OFFCURVE",
"161 26 OFFCURVE",
"143 76 CURVE",
"135 56 LINE",
"146 11 OFFCURVE",
"180 -14 OFFCURVE",
"220 -14 CURVE SMOOTH",
"407 -14 OFFCURVE",
"513 236 OFFCURVE",
"513 387 CURVE SMOOTH",
"513 482 OFFCURVE",
"472 528 OFFCURVE",
"409 528 CURVE SMOOTH",
"321 528 OFFCURVE",
"247 427 OFFCURVE",
"161 166 CURVE",
"143 58 LINE",
"197 281 OFFCURVE",
"311 496 OFFCURVE",
"380 496 CURVE SMOOTH"
);
},
{
closed = 1;
nodes = (
"15 -98 LINE SMOOTH",
"2 -145 OFFCURVE",
"-15 -160 OFFCURVE",
"-63 -160 CURVE",
"-69 -181 LINE",
"-48 -180 OFFCURVE",
"0 -177 OFFCURVE",
"42 -177 CURVE SMOOTH",
"96 -177 OFFCURVE",
"149 -180 OFFCURVE",
"176 -181 CURVE",
"182 -160 LINE",
"122 -160 OFFCURVE",
"85 -144 OFFCURVE",
"101 -88 CURVE SMOOTH",
"321 681 LINE",
"294 672 OFFCURVE",
"262 668 OFFCURVE",
"230 667 CURVE"
);
},
{
closed = 1;
nodes = (
"33 344 LINE",
"115 422 OFFCURVE",
"184 501 OFFCURVE",
"229 637 CURVE",
"226 653 LINE",
"160 495 OFFCURVE",
"99 432 OFFCURVE",
"22 357 CURVE"
);
}
);
width = 551;
},
{
layerId = "DE547DD1-6B89-4C93-B672-7CF1D26AB89E";
name = "Bold Italic";
paths = (
{
closed = 1;
nodes = (
"384 466 OFFCURVE",
"394 456 OFFCURVE",
"394 385 CURVE SMOOTH",
"394 220 OFFCURVE",
"302 19 OFFCURVE",
"212 19 CURVE SMOOTH",
"198 19 OFFCURVE",
"189 22 OFFCURVE",
"178 26 CURVE",
"171 13 LINE",
"192 -2 OFFCURVE",
"232 -14 OFFCURVE",
"277 -14 CURVE SMOOTH",
"470 -14 OFFCURVE",
"580 214 OFFCURVE",
"580 370 CURVE SMOOTH",
"580 474 OFFCURVE",
"536 533 OFFCURVE",
"443 533 CURVE SMOOTH",
"367 533 OFFCURVE",
"311 474 OFFCURVE",
"263 336 CURVE",
"244 238 LINE",
"273 361 OFFCURVE",
"327 466 OFFCURVE",
"370 466 CURVE SMOOTH"
);
},
{
closed = 1;
nodes = (
"-21 -98 LINE SMOOTH",
"-34 -145 OFFCURVE",
"-51 -160 OFFCURVE",
"-99 -160 CURVE",
"-105 -181 LINE",
"-74 -180 OFFCURVE",
"-6 -177 OFFCURVE",
"56 -177 CURVE SMOOTH",
"126 -177 OFFCURVE",
"195 -180 OFFCURVE",
"230 -181 CURVE",
"236 -160 LINE",
"165 -159 OFFCURVE",
"139 -144 OFFCURVE",
"161 -67 CURVE SMOOTH",
"374 690 LINE",
"316 671 OFFCURVE",
"257 658 OFFCURVE",
"187 652 CURVE"
);
},
{
closed = 1;
nodes = (
"14 333 LINE",
"88 414 OFFCURVE",
"149 495 OFFCURVE",
"190 636 CURVE",
"187 652 LINE",
"127 489 OFFCURVE",
"72 424 OFFCURVE",
"3 346 CURVE"
);
}
);
width = 605;
}
);
leftKerningGroup = p;
rightKerningGroup = o;
unicode = 0070;
},
{
glyphname = thorn;
lastChange = "2012-08-07 18:10:41 +0100";
layers = (
{
layerId = UUID0;
name = "Regular Italic";
paths = (
{
closed = 1;
nodes = (
"409 496 OFFCURVE",
"427 468 OFFCURVE",
"427 409 CURVE SMOOTH",
"427 259 OFFCURVE",
"332 9 OFFCURVE",
"219 9 CURVE SMOOTH",
"185 9 OFFCURVE",
"161 26 OFFCURVE",
"143 76 CURVE",
"135 56 LINE",
"146 11 OFFCURVE",
"180 -14 OFFCURVE",
"220 -14 CURVE SMOOTH",
"407 -14 OFFCURVE",
"513 236 OFFCURVE",
"513 387 CURVE SMOOTH",
"513 482 OFFCURVE",
"472 528 OFFCURVE",
"409 528 CURVE SMOOTH",
"336 528 OFFCURVE",
"273 469 OFFCURVE",
"203 298 CURVE",
"180 190 LINE",
"220 350 OFFCURVE",
"320 496 OFFCURVE",
"380 496 CURVE SMOOTH"
);
},
{
closed = 1;
nodes = (
"15 -98 LINE SMOOTH",
"2 -145 OFFCURVE",
"-15 -160 OFFCURVE",
"-63 -160 CURVE",
"-69 -181 LINE",
"-48 -180 OFFCURVE",
"0 -177 OFFCURVE",
"42 -177 CURVE SMOOTH",
"96 -177 OFFCURVE",
"149 -180 OFFCURVE",
"176 -181 CURVE",
"182 -160 LINE",
"122 -160 OFFCURVE",
"85 -144 OFFCURVE",
"101 -88 CURVE SMOOTH",
"354 795 LINE",
"327 786 OFFCURVE",
"295 782 OFFCURVE",
"263 781 CURVE"
);
},
{
closed = 1;
nodes = (
"33 344 LINE",
"115 422 OFFCURVE",
"185 501 OFFCURVE",
"230 637 CURVE",
"227 653 LINE",
"161 495 OFFCURVE",
"99 432 OFFCURVE",
"22 357 CURVE"
);
}
);
width = 551;
},
{
layerId = "DE547DD1-6B89-4C93-B672-7CF1D26AB89E";
name = "Bold Italic";
paths = (
{
closed = 1;
nodes = (
"385 466 OFFCURVE",
"395 456 OFFCURVE",
"395 385 CURVE SMOOTH",
"395 220 OFFCURVE",
"303 19 OFFCURVE",
"213 19 CURVE SMOOTH",
"199 19 OFFCURVE",
"190 22 OFFCURVE",
"179 26 CURVE",
"172 13 LINE",
"193 -2 OFFCURVE",
"233 -14 OFFCURVE",
"278 -14 CURVE SMOOTH",
"471 -14 OFFCURVE",
"581 214 OFFCURVE",
"581 370 CURVE SMOOTH",
"581 474 OFFCURVE",
"537 533 OFFCURVE",
"444 533 CURVE SMOOTH",
"368 533 OFFCURVE",
"312 474 OFFCURVE",
"264 336 CURVE",
"245 238 LINE",
"274 361 OFFCURVE",
"328 466 OFFCURVE",
"371 466 CURVE SMOOTH"
);
},
{
closed = 1;
nodes = (
"-20 -98 LINE SMOOTH",
"-33 -145 OFFCURVE",
"-50 -160 OFFCURVE",
"-98 -160 CURVE",
"-104 -181 LINE",
"-73 -180 OFFCURVE",
"-5 -177 OFFCURVE",
"57 -177 CURVE SMOOTH",
"127 -177 OFFCURVE",
"196 -180 OFFCURVE",
"231 -181 CURVE",
"237 -160 LINE",
"166 -159 OFFCURVE",
"140 -144 OFFCURVE",
"162 -67 CURVE SMOOTH",
"405 795 LINE",
"347 776 OFFCURVE",
"288 763 OFFCURVE",
"218 757 CURVE"
);
},
{
closed = 1;
nodes = (
"15 333 LINE",
"89 414 OFFCURVE",
"151 495 OFFCURVE",
"192 636 CURVE",
"189 652 LINE",
"129 489 OFFCURVE",
"73 424 OFFCURVE",
"4 346 CURVE"
);
}
);
width = 606;
}
);
leftKerningGroup = p;
rightKerningGroup = o;
unicode = 00FE;
},
{
glyphname = q;
lastChange = "2012-08-07 18:09:44 +0100";
layers = (
{
layerId = UUID0;
name = "Regular Italic";
paths = (
{
closed = 1;
nodes = (
"475 465 LINE SMOOTH",
"480 485 OFFCURVE",
"487 505 OFFCURVE",
"496 523 CURVE",
"480 530 LINE",
"448 504 OFFCURVE",
"416 478 OFFCURVE",
"384 452 CURVE",
"240 -98 LINE SMOOTH",
"227 -146 OFFCURVE",
"202 -160 OFFCURVE",
"142 -160 CURVE",
"136 -181 LINE",
"157 -180 OFFCURVE",
"205 -177 OFFCURVE",
"247 -177 CURVE SMOOTH",
"301 -177 OFFCURVE",
"354 -180 OFFCURVE",
"381 -181 CURVE",
"387 -160 LINE",
"341 -160 OFFCURVE",
"311 -143 OFFCURVE",
"326 -88 CURVE SMOOTH"
);
},
{
closed = 1;
nodes = (
"122 18 OFFCURVE",
"104 46 OFFCURVE",
"104 105 CURVE SMOOTH",
"104 255 OFFCURVE",
"199 505 OFFCURVE",
"312 505 CURVE SMOOTH",
"346 505 OFFCURVE",
"370 488 OFFCURVE",
"388 438 CURVE",
"396 458 LINE",
"385 503 OFFCURVE",
"351 528 OFFCURVE",
"311 528 CURVE SMOOTH",
"124 528 OFFCURVE",
"18 278 OFFCURVE",
"18 127 CURVE SMOOTH",
"18 32 OFFCURVE",
"59 -14 OFFCURVE",
"122 -14 CURVE SMOOTH",
"195 -14 OFFCURVE",
"261 45 OFFCURVE",
"331 216 CURVE",
"351 324 LINE",
"311 164 OFFCURVE",
"211 18 OFFCURVE",
"151 18 CURVE SMOOTH"
);
}
);
width = 507;
},
{
layerId = "DE547DD1-6B89-4C93-B672-7CF1D26AB89E";
name = "Bold Italic";
paths = (
{
closed = 1;
nodes = (
"565 467 LINE SMOOTH",
"571 488 OFFCURVE",
"578 508 OFFCURVE",
"587 526 CURVE",
"572 533 LINE",
"519 513 OFFCURVE",
"454 495 OFFCURVE",
"402 510 CURVE",
"240 -85 LINE SMOOTH",
"227 -133 OFFCURVE",
"204 -158 OFFCURVE",
"138 -160 CURVE",
"132 -181 LINE",
"165 -180 OFFCURVE",
"237 -177 OFFCURVE",
"303 -177 CURVE SMOOTH",
"369 -177 OFFCURVE",
"439 -180 OFFCURVE",
"472 -181 CURVE",
"478 -160 LINE",
"421 -156 OFFCURVE",
"403 -137 OFFCURVE",
"417 -86 CURVE SMOOTH"
);
},
{
closed = 1;
nodes = (
"196 63 OFFCURVE",
"188 72 OFFCURVE",
"188 110 CURVE SMOOTH",
"188 252 OFFCURVE",
"280 500 OFFCURVE",
"370 500 CURVE SMOOTH",
"384 500 OFFCURVE",
"393 497 OFFCURVE",
"404 493 CURVE",
"411 506 LINE",
"394 521 OFFCURVE",
"362 533 OFFCURVE",
"325 533 CURVE SMOOTH",
"140 533 OFFCURVE",
"2 305 OFFCURVE",
"2 149 CURVE SMOOTH",
"2 45 OFFCURVE",
"46 -14 OFFCURVE",
"139 -14 CURVE SMOOTH",
"215 -14 OFFCURVE",
"266 45 OFFCURVE",
"319 183 CURVE",
"338 281 LINE",
"309 163 OFFCURVE",
"255 63 OFFCURVE",
"212 63 CURVE"
);
}
);
width = 581;
}
);
leftKerningGroup = o;
rightKerningGroup = q;
unicode = 0071;
},
{
glyphname = r;
lastChange = "2012-10-22 16:18:57 +0100";
layers = (
{
anchors = (
{
name = bottom;
position = "{77, 0}";
},
{
name = top;
position = "{294, 514}";
}
);
layerId = UUID0;
name = "Regular Italic";
paths = (
{
closed = 1;
nodes = (
"219 388 LINE SMOOTH",
"234 449 OFFCURVE",
"255 528 OFFCURVE",
"176 528 CURVE SMOOTH",
"135 528 OFFCURVE",
"84 509 OFFCURVE",
"55 425 CURVE SMOOTH",
"30 352 LINE",
"49 352 LINE",
"62 389 LINE SMOOTH",
"88 463 OFFCURVE",
"111 491 OFFCURVE",
"140 491 CURVE SMOOTH",
"162 491 OFFCURVE",
"167 474 OFFCURVE",
"154 429 CURVE SMOOTH",
"34 0 LINE",
"34 0 OFFCURVE",
"121 0 OFFCURVE",
"121 0 CURVE"
);
},
{
closed = 1;
nodes = (
"383 503 OFFCURVE",
"386 502 OFFCURVE",
"389 499 CURVE",
"363 488 OFFCURVE",
"344 467 OFFCURVE",
"344 435 CURVE SMOOTH",
"344 412 OFFCURVE",
"361 399 OFFCURVE",
"384 399 CURVE SMOOTH",
"421 399 OFFCURVE",
"454 431 OFFCURVE",
"454 471 CURVE SMOOTH",
"454 504 OFFCURVE",
"432 528 OFFCURVE",
"395 528 CURVE SMOOTH",
"306 528 OFFCURVE",
"244 436 OFFCURVE",
"157 176 CURVE",
"132 48 LINE",
"207 313 OFFCURVE",
"302 503 OFFCURVE",
"378 503 CURVE SMOOTH"
);
}
);
width = 426;
},
{
anchors = (
{
name = bottom;
position = "{86, 0}";
},
{
name = top;
position = "{303, 514}";
}
);
layerId = "DE547DD1-6B89-4C93-B672-7CF1D26AB89E";
name = "Bold Italic";
paths = (
{
closed = 1;
nodes = (
"283 393 LINE SMOOTH",
"298 457 OFFCURVE",
"287 533 OFFCURVE",
"196 533 CURVE SMOOTH",
"127 533 OFFCURVE",
"74 505 OFFCURVE",
"47 430 CURVE SMOOTH",
"19 352 LINE",
"38 352 LINE",
"61 413 LINE SMOOTH",
"79 461 OFFCURVE",
"96 476 OFFCURVE",
"116 476 CURVE SMOOTH",
"130 476 OFFCURVE",
"133 464 OFFCURVE",
"125 434 CURVE SMOOTH",
"3 0 LINE",
"3 0 OFFCURVE",
"180 0 OFFCURVE",
"180 0 CURVE"
);
},
{
closed = 1;
nodes = (
"440 513 OFFCURVE",
"445 511 OFFCURVE",
"449 510 CURVE",
"390 499 OFFCURVE",
"340 445 OFFCURVE",
"340 386 CURVE SMOOTH",
"340 337 OFFCURVE",
"366 311 OFFCURVE",
"415 311 CURVE SMOOTH",
"481 311 OFFCURVE",
"528 369 OFFCURVE",
"528 436 CURVE SMOOTH",
"528 490 OFFCURVE",
"493 533 OFFCURVE",
"431 533 CURVE SMOOTH",
"325 533 OFFCURVE",
"280 454 OFFCURVE",
"201 143 CURVE",
"180 3 LINE",
"291 501 OFFCURVE",
"371 513 OFFCURVE",
"435 513 CURVE SMOOTH"
);
}
);
width = 499;
}
);
leftKerningGroup = n;
rightKerningGroup = r;
unicode = 0072;
},
{
glyphname = s;
lastChange = "2012-10-22 16:55:51 +0100";
layers = (
{
anchors = (
{
name = bottom;
position = "{113, 0}";
},
{
name = top;
position = "{266, 514}";
}
);
layerId = UUID0;
name = "Regular Italic";
paths = (
{
closed = 1;
nodes = (
"62 30 OFFCURVE",
"66 46 OFFCURVE",
"66 67 CURVE SMOOTH",
"66 99 OFFCURVE",
"54 130 OFFCURVE",
"22 130 CURVE SMOOTH",
"-8 130 OFFCURVE",
"-17 104 OFFCURVE",
"-17 85 CURVE SMOOTH",
"-17 13 OFFCURVE",
"49 -14 OFFCURVE",
"118 -14 CURVE SMOOTH",
"211 -14 OFFCURVE",
"290 50 OFFCURVE",
"290 143 CURVE SMOOTH",
"290 195 OFFCURVE",
"264 239 OFFCURVE",
"231 290 CURVE SMOOTH",
"192 348 OFFCURVE",
"171 369 OFFCURVE",
"171 415 CURVE SMOOTH",
"171 475 OFFCURVE",
"208 510 OFFCURVE",
"258 510 CURVE SMOOTH",
"278 510 OFFCURVE",
"295 506 OFFCURVE",
"308 498 CURVE",
"291 477 OFFCURVE",
"280 455 OFFCURVE",
"280 431 CURVE SMOOTH",
"280 406 OFFCURVE",
"298 389 OFFCURVE",
"320 389 CURVE SMOOTH",
"354 389 OFFCURVE",
"366 422 OFFCURVE",
"366 441 CURVE SMOOTH",
"366 512 OFFCURVE",
"301 528 OFFCURVE",
"244 528 CURVE SMOOTH",
"159 528 OFFCURVE",
"89 471 OFFCURVE",
"89 386 CURVE SMOOTH",
"89 325 OFFCURVE",
"123 283 OFFCURVE",
"154 241 CURVE SMOOTH",
"193 188 OFFCURVE",
"206 150 OFFCURVE",
"206 109 CURVE SMOOTH",
"206 42 OFFCURVE",
"164 6 OFFCURVE",
"105 6 CURVE SMOOTH",
"80 6 OFFCURVE",
"70 10 OFFCURVE",
"59 15 CURVE"
);
}
);
width = 381;
},
{
anchors = (
{
name = bottom;
position = "{143, 0}";
},
{
name = top;
position = "{290, 514}";
}
);
layerId = "DE547DD1-6B89-4C93-B672-7CF1D26AB89E";
name = "Bold Italic";
paths = (
{
closed = 1;
nodes = (
"93 34 OFFCURVE",
"112 72 OFFCURVE",
"112 115 CURVE SMOOTH",
"112 168 OFFCURVE",
"86 203 OFFCURVE",
"47 203 CURVE SMOOTH",
"5 203 OFFCURVE",
"-21 163 OFFCURVE",
"-21 114 CURVE SMOOTH",
"-21 15 OFFCURVE",
"70 -14 OFFCURVE",
"164 -14 CURVE SMOOTH",
"296 -14 OFFCURVE",
"364 54 OFFCURVE",
"364 136 CURVE SMOOTH",
"364 181 OFFCURVE",
"348 222 OFFCURVE",
"304 297 CURVE SMOOTH",
"276 345 OFFCURVE",
"244 388 OFFCURVE",
"245 433 CURVE SMOOTH",
"246 483 OFFCURVE",
"269 511 OFFCURVE",
"316 511 CURVE SMOOTH",
"327 511 OFFCURVE",
"337 509 OFFCURVE",
"341 507 CURVE",
"326 491 OFFCURVE",
"309 455 OFFCURVE",
"309 413 CURVE SMOOTH",
"309 364 OFFCURVE",
"333 329 OFFCURVE",
"373 329 CURVE SMOOTH",
"420 329 OFFCURVE",
"444 377 OFFCURVE",
"444 418 CURVE SMOOTH",
"444 509 OFFCURVE",
"356 533 OFFCURVE",
"272 533 CURVE SMOOTH",
"138 533 OFFCURVE",
"73 467 OFFCURVE",
"73 382 CURVE SMOOTH",
"73 326 OFFCURVE",
"101 284 OFFCURVE",
"133 232 CURVE SMOOTH",
"167 177 OFFCURVE",
"191 128 OFFCURVE",
"191 83 CURVE SMOOTH",
"191 36 OFFCURVE",
"160 7 OFFCURVE",
"119 7 CURVE SMOOTH",
"106 7 OFFCURVE",
"95 9 OFFCURVE",
"84 14 CURVE"
);
}
);
width = 446;
}
);
leftKerningGroup = s;
rightKerningGroup = s;
unicode = 0073;
},
{
glyphname = germandbls;
lastChange = "2012-08-07 17:56:39 +0100";
layers = (
{
hints = (
{
horizontal = 1;
place = "{941.000000, 21.000000}";
},
{
horizontal = 1;
place = "{941.000000, 21.000000}";
}
);
layerId = UUID0;
name = "Regular Italic";
paths = (
{
closed = 1;
nodes = (
"409 767 OFFCURVE",
"440 734 OFFCURVE",
"440 661 CURVE SMOOTH",
"440 600 OFFCURVE",
"415 548 OFFCURVE",
"376 507 CURVE SMOOTH",
"330 458 OFFCURVE",
"275 435 OFFCURVE",
"275 369 CURVE SMOOTH",
"275 313 OFFCURVE",
"314 274 OFFCURVE",
"340 241 CURVE SMOOTH",
"378 193 OFFCURVE",
"392 147 OFFCURVE",
"392 110 CURVE SMOOTH",
"392 44 OFFCURVE",
"347 6 OFFCURVE",
"287 6 CURVE SMOOTH",
"267 6 OFFCURVE",
"256 10 OFFCURVE",
"245 14 CURVE",
"248 26 OFFCURVE",
"251 37 OFFCURVE",
"251 52 CURVE SMOOTH",
"251 75 OFFCURVE",
"244 120 OFFCURVE",
"208 120 CURVE SMOOTH",
"186 120 OFFCURVE",
"169 102 OFFCURVE",
"169 72 CURVE SMOOTH",
"169 12 OFFCURVE",
"234 -14 OFFCURVE",
"297 -14 CURVE SMOOTH",
"395 -14 OFFCURVE",
"476 49 OFFCURVE",
"476 145 CURVE SMOOTH",
"476 198 OFFCURVE",
"451 244 OFFCURVE",
"417 290 CURVE SMOOTH",
"386 332 OFFCURVE",
"351 366 OFFCURVE",
"351 420 CURVE SMOOTH",
"351 452 OFFCURVE",
"363 475 OFFCURVE",
"385 495 CURVE SMOOTH",
"443 550 OFFCURVE",
"517 606 OFFCURVE",
"517 681 CURVE SMOOTH",
"517 733 OFFCURVE",
"481 782 OFFCURVE",
"381 782 CURVE SMOOTH",
"235 782 OFFCURVE",
"180 685 OFFCURVE",
"133 507 CURVE SMOOTH",
"-49 -188 LINE",
"-23 -179 OFFCURVE",
"9 -175 OFFCURVE",
"41 -174 CURVE",
"242 589 LINE SMOOTH",
"276 718 OFFCURVE",
"309 767 OFFCURVE",
"366 767 CURVE SMOOTH"
);
}
);
width = 547;
},
{
hints = (
{
horizontal = 1;
place = "{941.000000, 21.000000}";
},
{
horizontal = 1;
place = "{941.000000, 21.000000}";
}
);
layerId = "DE547DD1-6B89-4C93-B672-7CF1D26AB89E";
name = "Bold Italic";
paths = (
{
closed = 1;
nodes = (
"454 767 OFFCURVE",
"487 744 OFFCURVE",
"487 678 CURVE SMOOTH",
"487 622 OFFCURVE",
"476 552 OFFCURVE",
"427 501 CURVE SMOOTH",
"374 446 OFFCURVE",
"338 423 OFFCURVE",
"338 363 CURVE SMOOTH",
"338 320 OFFCURVE",
"359 262 OFFCURVE",
"371 221 CURVE SMOOTH",
"384 177 OFFCURVE",
"395 145 OFFCURVE",
"395 99 CURVE SMOOTH",
"395 45 OFFCURVE",
"371 6 OFFCURVE",
"341 6 CURVE SMOOTH",
"334 6 OFFCURVE",
"330 7 OFFCURVE",
"327 8 CURVE",
"349 29 OFFCURVE",
"362 69 OFFCURVE",
"362 102 CURVE SMOOTH",
"362 157 OFFCURVE",
"334 198 OFFCURVE",
"293 198 CURVE SMOOTH",
"249 198 OFFCURVE",
"222 154 OFFCURVE",
"222 107 CURVE SMOOTH",
"222 39 OFFCURVE",
"271 -14 OFFCURVE",
"368 -14 CURVE SMOOTH",
"486 -14 OFFCURVE",
"599 36 OFFCURVE",
"599 150 CURVE SMOOTH",
"599 212 OFFCURVE",
"557 242 OFFCURVE",
"499 291 CURVE SMOOTH",
"450 332 OFFCURVE",
"389 374 OFFCURVE",
"389 422 CURVE SMOOTH",
"389 434 OFFCURVE",
"390 448 OFFCURVE",
"449 494 CURVE SMOOTH",
"563 583 OFFCURVE",
"660 609 OFFCURVE",
"660 684 CURVE SMOOTH",
"660 732 OFFCURVE",
"601 782 OFFCURVE",
"441 782 CURVE SMOOTH",
"253 782 OFFCURVE",
"168 698 OFFCURVE",
"120 515 CURVE SMOOTH",
"-66 -188 LINE",
"-13 -179 OFFCURVE",
"46 -175 OFFCURVE",
"114 -174 CURVE",
"327 636 LINE SMOOTH",
"349 719 OFFCURVE",
"376 767 OFFCURVE",
"420 767 CURVE SMOOTH"
);
}
);
width = 648;
}
);
leftKerningGroup = h;
rightKerningGroup = germandbls;
unicode = 00DF;
},
{
glyphname = t;
lastChange = "2012-10-22 14:21:57 +0100";
layers = (
{
anchors = (
{
name = bottom;
position = "{94, 0}";
},
{
name = center;
position = "{168, 257}";
},
{
name = right;
position = "{337, 514}";
},
{
name = top;
position = "{192, 514}";
}
);
layerId = UUID0;
name = "Regular Italic";
paths = (
{
closed = 1;
nodes = (
"66 514 LINE",
"61 494 LINE",
"372 494 LINE",
"375 514 LINE"
);
},
{
closed = 1;
nodes = (
"290 680 LINE",
"264 671 OFFCURVE",
"232 667 OFFCURVE",
"200 666 CURVE",
"45 126 LINE SMOOTH",
"21 43 OFFCURVE",
"43 -14 OFFCURVE",
"125 -14 CURVE SMOOTH",
"186 -14 OFFCURVE",
"233 12 OFFCURVE",
"262 99 CURVE SMOOTH",
"283 162 LINE",
"264 162 LINE",
"250 123 LINE SMOOTH",
"220 40 OFFCURVE",
"190 23 OFFCURVE",
"161 23 CURVE SMOOTH",
"131 23 OFFCURVE",
"109 41 OFFCURVE",
"121 85 CURVE SMOOTH"
);
}
);
width = 336;
},
{
anchors = (
{
name = bottom;
position = "{117, 0}";
},
{
name = center;
position = "{183, 257}";
},
{
name = right;
position = "{370, 514}";
},
{
name = top;
position = "{225, 514}";
}
);
layerId = "DE547DD1-6B89-4C93-B672-7CF1D26AB89E";
name = "Bold Italic";
paths = (
{
closed = 1;
nodes = (
"49 514 LINE",
"44 494 LINE",
"415 494 LINE",
"418 514 LINE"
);
},
{
closed = 1;
nodes = (
"367 680 LINE",
"312 671 OFFCURVE",
"258 667 OFFCURVE",
"185 666 CURVE",
"39 158 LINE SMOOTH",
"12 64 OFFCURVE",
"39 -14 OFFCURVE",
"140 -14 CURVE SMOOTH",
"217 -14 OFFCURVE",
"273 31 OFFCURVE",
"299 107 CURVE SMOOTH",
"318 162 LINE",
"299 162 LINE",
"283 119 LINE SMOOTH",
"267 76 OFFCURVE",
"238 43 OFFCURVE",
"211 43 CURVE SMOOTH",
"193 43 OFFCURVE",
"185 57 OFFCURVE",
"193 85 CURVE SMOOTH"
);
}
);
width = 365;
}
);
leftKerningGroup = t;
rightKerningGroup = t;
unicode = 0074;
},
{
glyphname = tbar;
lastChange = "2012-08-06 13:35:49 +0100";
layers = (
{
components = (
{
name = t;
transform = "{1, 0, 0, 1, 4, 0}";
}
);
layerId = UUID0;
name = "Regular Italic";
paths = (
{
closed = 1;
nodes = (
"46 421 LINE",
"41 401 LINE",
"352 401 LINE",
"355 421 LINE"
);
}
);
width = 341;
},
{
components = (
{
name = t;
transform = "{1, 0, 0, 1, 4, 0}";
}
);
layerId = "DE547DD1-6B89-4C93-B672-7CF1D26AB89E";
name = "Bold Italic";
paths = (
{
closed = 1;
nodes = (
"27 421 LINE",
"22 401 LINE",
"392 401 LINE",
"395 421 LINE"
);
}
);
width = 370;
}
);
leftKerningGroup = t;
rightKerningGroup = t;
unicode = 0167;
},
{
glyphname = u;
lastChange = "2012-10-18 14:11:49 +0100";
layers = (
{
anchors = (
{
name = bottom;
position = "{232, 0}";
},
{
name = ogonek;
position = "{420, 0}";
},
{
name = top;
position = "{319, 514}";
}
);
layerId = UUID0;
name = "Regular Italic";
paths = (
{
closed = 1;
nodes = (
"417 474 LINE",
"347 207 OFFCURVE",
"235 18 OFFCURVE",
"156 18 CURVE SMOOTH",
"123 18 OFFCURVE",
"115 44 OFFCURVE",
"134 102 CURVE SMOOTH",
"229 388 LINE SMOOTH",
"252 458 OFFCURVE",
"262 528 OFFCURVE",
"175 528 CURVE SMOOTH",
"134 528 OFFCURVE",
"83 509 OFFCURVE",
"54 425 CURVE SMOOTH",
"29 352 LINE",
"48 352 LINE",
"61 389 LINE SMOOTH",
"89 469 OFFCURVE",
"113 491 OFFCURVE",
"138 491 CURVE SMOOTH",
"164 491 OFFCURVE",
"167 469 OFFCURVE",
"154 429 CURVE SMOOTH",
"57 137 LINE SMOOTH",
"28 51 OFFCURVE",
"39 -14 OFFCURVE",
"127 -14 CURVE SMOOTH",
"224 -14 OFFCURVE",
"301 79 OFFCURVE",
"397 346 CURVE"
);
},
{
closed = 1;
nodes = (
"518 528 LINE",
"493 519 OFFCURVE",
"460 515 OFFCURVE",
"427 514 CURVE",
"329 126 LINE SMOOTH",
"314 67 OFFCURVE",
"310 35 OFFCURVE",
"321 13 CURVE SMOOTH",
"330 -5 OFFCURVE",
"351 -14 OFFCURVE",
"372 -14 CURVE SMOOTH",
"413 -14 OFFCURVE",
"464 5 OFFCURVE",
"493 89 CURVE SMOOTH",
"518 162 LINE",
"499 162 LINE",
"486 125 LINE SMOOTH",
"460 51 OFFCURVE",
"437 23 OFFCURVE",
"408 23 CURVE SMOOTH",
"381 23 OFFCURVE",
"384 49 OFFCURVE",
"394 85 CURVE SMOOTH"
);
}
);
width = 567;
},
{
anchors = (
{
name = bottom;
position = "{274, 0}";
},
{
name = ogonek;
position = "{472, 0}";
},
{
name = top;
position = "{347, 514}";
}
);
layerId = "DE547DD1-6B89-4C93-B672-7CF1D26AB89E";
name = "Bold Italic";
paths = (
{
closed = 1;
nodes = (
"419 516 LINE",
"361 296 OFFCURVE",
"250 48 OFFCURVE",
"196 48 CURVE SMOOTH",
"183 48 OFFCURVE",
"182 66 OFFCURVE",
"194 102 CURVE SMOOTH",
"280 361 LINE SMOOTH",
"319 478 OFFCURVE",
"278 533 OFFCURVE",
"189 533 CURVE SMOOTH",
"136 533 OFFCURVE",
"75 514 OFFCURVE",
"46 430 CURVE SMOOTH",
"21 357 LINE",
"40 357 LINE",
"61 413 LINE SMOOTH",
"82 469 OFFCURVE",
"102 476 OFFCURVE",
"114 476 CURVE SMOOTH",
"123 476 OFFCURVE",
"139 472 OFFCURVE",
"126 434 CURVE SMOOTH",
"29 137 LINE SMOOTH",
"-4 37 OFFCURVE",
"29 -14 OFFCURVE",
"110 -14 CURVE SMOOTH",
"217 -14 OFFCURVE",
"286 43 OFFCURVE",
"391 354 CURVE"
);
},
{
closed = 1;
nodes = (
"600 533 LINE",
"548 524 OFFCURVE",
"488 520 OFFCURVE",
"419 519 CURVE",
"316 126 LINE SMOOTH",
"306 88 OFFCURVE",
"304 52 OFFCURVE",
"320 25 CURVE SMOOTH",
"334 1 OFFCURVE",
"362 -14 OFFCURVE",
"409 -14 CURVE SMOOTH",
"469 -14 OFFCURVE",
"525 14 OFFCURVE",
"552 89 CURVE SMOOTH",
"580 167 LINE",
"561 167 LINE",
"538 106 LINE SMOOTH",
"520 58 OFFCURVE",
"503 43 OFFCURVE",
"483 43 CURVE SMOOTH",
"465 43 OFFCURVE",
"465 54 OFFCURVE",
"474 85 CURVE SMOOTH"
);
}
);
width = 617;
}
);
leftKerningGroup = u;
rightKerningGroup = u;
unicode = 0075;
},
{
glyphname = v;
lastChange = "2012-10-22 16:50:35 +0100";
layers = (
{
layerId = UUID0;
name = "Regular Italic";
paths = (
{
closed = 1;
nodes = (
"468 256 OFFCURVE",
"370 19 OFFCURVE",
"212 19 CURVE SMOOTH",
"182 19 OFFCURVE",
"164 50 OFFCURVE",
"169 127 CURVE SMOOTH",
"181 268 OFFCURVE",
"243 398 OFFCURVE",
"349 529 CURVE",
"328 539 LINE",
"318 520 LINE",
"295 499 OFFCURVE",
"266 489 OFFCURVE",
"234 489 CURVE SMOOTH",
"195 489 OFFCURVE",
"181 528 OFFCURVE",
"143 528 CURVE SMOOTH",
"108 528 OFFCURVE",
"71 506 OFFCURVE",
"49 426 CURVE SMOOTH",
"27 353 LINE",
"46 353 LINE",
"57 390 LINE SMOOTH",
"73 437 OFFCURVE",
"85 452 OFFCURVE",
"106 452 CURVE SMOOTH",
"128 452 OFFCURVE",
"144 427 OFFCURVE",
"169 427 CURVE SMOOTH",
"205 427 OFFCURVE",
"257 474 OFFCURVE",
"301 490 CURVE",
"170 365 OFFCURVE",
"77 222 OFFCURVE",
"69 110 CURVE SMOOTH",
"65 49 OFFCURVE",
"93 -14 OFFCURVE",
"183 -14 CURVE SMOOTH",
"369 -14 OFFCURVE",
"476 192 OFFCURVE",
"499 388 CURVE SMOOTH",
"508 470 OFFCURVE",
"491 529 OFFCURVE",
"445 529 CURVE SMOOTH",
"427 529 OFFCURVE",
"403 518 OFFCURVE",
"401 487 CURVE SMOOTH",
"397 434 OFFCURVE",
"436 398 OFFCURVE",
"474 379 CURVE"
);
}
);
width = 533;
},
{
layerId = "DE547DD1-6B89-4C93-B672-7CF1D26AB89E";
name = "Bold Italic";
paths = (
{
closed = 1;
nodes = (
"430 166 OFFCURVE",
"352 39 OFFCURVE",
"248 39 CURVE SMOOTH",
"213 39 OFFCURVE",
"202 62 OFFCURVE",
"202 107 CURVE SMOOTH",
"202 204 OFFCURVE",
"264 386 OFFCURVE",
"352 529 CURVE",
"331 539 LINE",
"321 520 LINE",
"293 506 OFFCURVE",
"269 505 OFFCURVE",
"256 505 CURVE SMOOTH",
"198 505 OFFCURVE",
"184 534 OFFCURVE",
"146 534 CURVE SMOOTH",
"111 534 OFFCURVE",
"76 511 OFFCURVE",
"52 426 CURVE SMOOTH",
"30 353 LINE",
"49 353 LINE",
"56 374 LINE SMOOTH",
"64 400 OFFCURVE",
"72 412 OFFCURVE",
"89 412 CURVE SMOOTH",
"107 412 OFFCURVE",
"121 397 OFFCURVE",
"142 397 CURVE SMOOTH",
"199 397 OFFCURVE",
"220 487 OFFCURVE",
"304 490 CURVE",
"137 365 OFFCURVE",
"12 239 OFFCURVE",
"12 110 CURVE SMOOTH",
"12 49 OFFCURVE",
"47 -14 OFFCURVE",
"171 -14 CURVE SMOOTH",
"400 -14 OFFCURVE",
"502 250 OFFCURVE",
"502 435 CURVE SMOOTH",
"502 496 OFFCURVE",
"479 533 OFFCURVE",
"426 533 CURVE SMOOTH",
"376 533 OFFCURVE",
"348 501 OFFCURVE",
"348 451 CURVE SMOOTH",
"348 383 OFFCURVE",
"397 326 OFFCURVE",
"463 296 CURVE"
);
}
);
width = 519;
}
);
leftKerningGroup = v;
rightKerningGroup = v;
unicode = 0076;
},
{
glyphname = w;
lastChange = "2012-10-18 14:25:30 +0100";
layers = (
{
anchors = (
{
name = top;
position = "{392, 514}";
}
);
layerId = UUID0;
name = "Regular Italic";
paths = (
{
closed = 1;
nodes = (
"293 88 LINE",
"252 41 OFFCURVE",
"206 16 OFFCURVE",
"166 16 CURVE SMOOTH",
"132 16 OFFCURVE",
"111 39 OFFCURVE",
"111 106 CURVE SMOOTH",
"111 267 OFFCURVE",
"245 413 OFFCURVE",
"383 529 CURVE",
"362 539 LINE",
"348 520 LINE",
"324 499 OFFCURVE",
"300 489 OFFCURVE",
"268 489 CURVE SMOOTH",
"229 489 OFFCURVE",
"214 528 OFFCURVE",
"176 528 CURVE SMOOTH",
"141 528 OFFCURVE",
"109 505 OFFCURVE",
"83 426 CURVE SMOOTH",
"60 353 LINE",
"79 353 LINE",
"91 390 LINE SMOOTH",
"106 437 OFFCURVE",
"119 452 OFFCURVE",
"140 452 CURVE SMOOTH",
"163 452 OFFCURVE",
"178 427 OFFCURVE",
"203 427 CURVE SMOOTH",
"239 427 OFFCURVE",
"291 474 OFFCURVE",
"335 490 CURVE",
"319 487 LINE",
"182 387 OFFCURVE",
"13 230 OFFCURVE",
"13 100 CURVE SMOOTH",
"13 41 OFFCURVE",
"45 -14 OFFCURVE",
"137 -14 CURVE SMOOTH",
"198 -14 OFFCURVE",
"253 21 OFFCURVE",
"297 69 CURVE"
);
},
{
closed = 1;
nodes = (
"339 15 OFFCURVE",
"316 91 OFFCURVE",
"316 163 CURVE SMOOTH",
"316 250 OFFCURVE",
"368 337 OFFCURVE",
"401 337 CURVE SMOOTH",
"416 337 OFFCURVE",
"420 317 OFFCURVE",
"420 290 CURVE SMOOTH",
"420 219 OFFCURVE",
"379 143 OFFCURVE",
"317 94 CURVE",
"322 76 LINE",
"404 138 OFFCURVE",
"443 217 OFFCURVE",
"443 289 CURVE SMOOTH",
"443 319 OFFCURVE",
"437 359 OFFCURVE",
"408 359 CURVE SMOOTH",
"353 359 OFFCURVE",
"262 241 OFFCURVE",
"262 123 CURVE SMOOTH",
"262 17 OFFCURVE",
"317 -14 OFFCURVE",
"381 -14 CURVE SMOOTH",
"591 -14 OFFCURVE",
"652 260 OFFCURVE",
"619 410 CURVE SMOOTH",
"607 477 OFFCURVE",
"584 528 OFFCURVE",
"545 528 CURVE SMOOTH",
"526 528 OFFCURVE",
"503 515 OFFCURVE",
"503 480 CURVE SMOOTH",
"503 425 OFFCURVE",
"560 398 OFFCURVE",
"598 391 CURVE",
"627 282 OFFCURVE",
"572 15 OFFCURVE",
"408 15 CURVE SMOOTH"
);
}
);
width = 685;
},
{
anchors = (
{
name = top;
position = "{389, 514}";
}
);
layerId = "DE547DD1-6B89-4C93-B672-7CF1D26AB89E";
name = "Bold Italic";
paths = (
{
closed = 1;
nodes = (
"290 58 LINE",
"273 46 OFFCURVE",
"252 39 OFFCURVE",
"232 39 CURVE SMOOTH",
"196 39 OFFCURVE",
"185 63 OFFCURVE",
"185 102 CURVE SMOOTH",
"185 210 OFFCURVE",
"272 386 OFFCURVE",
"395 529 CURVE",
"374 539 LINE",
"364 520 LINE",
"332 506 OFFCURVE",
"304 505 OFFCURVE",
"290 505 CURVE SMOOTH",
"222 505 OFFCURVE",
"201 528 OFFCURVE",
"161 528 CURVE SMOOTH",
"126 528 OFFCURVE",
"90 510 OFFCURVE",
"65 426 CURVE SMOOTH",
"43 353 LINE",
"62 353 LINE",
"69 374 LINE SMOOTH",
"78 400 OFFCURVE",
"85 412 OFFCURVE",
"102 412 CURVE SMOOTH",
"121 412 OFFCURVE",
"132 397 OFFCURVE",
"157 397 CURVE SMOOTH",
"218 397 OFFCURVE",
"250 490 OFFCURVE",
"350 490 CURVE",
"353 495 LINE",
"141 335 OFFCURVE",
"-5 237 OFFCURVE",
"-5 114 CURVE SMOOTH",
"-5 41 OFFCURVE",
"45 -14 OFFCURVE",
"136 -14 CURVE SMOOTH",
"211 -14 OFFCURVE",
"262 10 OFFCURVE",
"299 45 CURVE"
);
},
{
closed = 1;
nodes = (
"422 69 OFFCURVE",
"390 114 OFFCURVE",
"390 178 CURVE SMOOTH",
"390 259 OFFCURVE",
"414 337 OFFCURVE",
"438 337 CURVE SMOOTH",
"449 337 OFFCURVE",
"454 318 OFFCURVE",
"454 290 CURVE SMOOTH",
"454 215 OFFCURVE",
"418 134 OFFCURVE",
"362 80 CURVE",
"369 63 LINE",
"440 127 OFFCURVE",
"477 209 OFFCURVE",
"477 296 CURVE SMOOTH",
"477 318 OFFCURVE",
"474 359 OFFCURVE",
"436 359 CURVE SMOOTH",
"369 359 OFFCURVE",
"266 249 OFFCURVE",
"266 123 CURVE SMOOTH",
"266 17 OFFCURVE",
"339 -14 OFFCURVE",
"408 -14 CURVE SMOOTH",
"553 -14 OFFCURVE",
"633 157 OFFCURVE",
"633 322 CURVE SMOOTH",
"633 393 OFFCURVE",
"614 533 OFFCURVE",
"526 533 CURVE SMOOTH",
"476 533 OFFCURVE",
"457 496 OFFCURVE",
"457 468 CURVE SMOOTH",
"457 381 OFFCURVE",
"543 338 OFFCURVE",
"612 306 CURVE",
"608 184 OFFCURVE",
"567 69 OFFCURVE",
"483 69 CURVE SMOOTH"
);
}
);
width = 676;
}
);
leftKerningGroup = v;
rightKerningGroup = v;
unicode = 0077;
},
{
glyphname = x;
lastChange = "2012-10-22 16:31:54 +0100";
layers = (
{
anchors = (
{
name = bottom;
position = "{178, 0}";
},
{
name = top;
position = "{347, 514}";
}
);
layerId = UUID0;
name = "Regular Italic";
paths = (
{
closed = 1;
nodes = (
"282 436 LINE SMOOTH",
"274 506 OFFCURVE",
"246 528 OFFCURVE",
"199 528 CURVE SMOOTH",
"156 528 OFFCURVE",
"114 506 OFFCURVE",
"85 426 CURVE SMOOTH",
"60 353 LINE",
"79 353 LINE",
"92 390 LINE SMOOTH",
"119 466 OFFCURVE",
"139 482 OFFCURVE",
"159 482 CURVE SMOOTH",
"176 482 OFFCURVE",
"188 471 OFFCURVE",
"193 436 CURVE SMOOTH",
"233 78 LINE SMOOTH",
"241 8 OFFCURVE",
"275 -14 OFFCURVE",
"316 -14 CURVE SMOOTH",
"359 -14 OFFCURVE",
"401 8 OFFCURVE",
"430 88 CURVE SMOOTH",
"455 161 LINE",
"436 161 LINE",
"423 124 LINE SMOOTH",
"396 48 OFFCURVE",
"376 32 OFFCURVE",
"356 32 CURVE SMOOTH",
"339 32 OFFCURVE",
"327 43 OFFCURVE",
"322 78 CURVE SMOOTH"
);
},
{
closed = 1;
nodes = (
"418 457 OFFCURVE",
"439 443 OFFCURVE",
"469 443 CURVE SMOOTH",
"501 443 OFFCURVE",
"522 466 OFFCURVE",
"522 491 CURVE SMOOTH",
"522 514 OFFCURVE",
"503 528 OFFCURVE",
"478 528 CURVE SMOOTH",
"445 528 OFFCURVE",
"416 511 OFFCURVE",
"378 467 CURVE SMOOTH",
"313 394 OFFCURVE",
"284 314 OFFCURVE",
"266 260 CURVE",
"266 260 OFFCURVE",
"286 259 OFFCURVE",
"286 259 CURVE",
"307 320 OFFCURVE",
"344 410 OFFCURVE",
"406 467 CURVE"
);
},
{
closed = 1;
nodes = (
"68 57 OFFCURVE",
"48 71 OFFCURVE",
"18 71 CURVE SMOOTH",
"-12 71 OFFCURVE",
"-34 48 OFFCURVE",
"-34 23 CURVE SMOOTH",
"-34 0 OFFCURVE",
"-19 -14 OFFCURVE",
"11 -14 CURVE SMOOTH",
"42 -14 OFFCURVE",
"72 6 OFFCURVE",
"112 48 CURVE SMOOTH",
"182 123 OFFCURVE",
"216 197 OFFCURVE",
"236 251 CURVE",
"236 251 OFFCURVE",
"219 255 OFFCURVE",
"219 255 CURVE",
"193 189 OFFCURVE",
"143 104 OFFCURVE",
"81 47 CURVE"
);
}
);
width = 526;
},
{
anchors = (
{
name = bottom;
position = "{152, 0}";
},
{
name = top;
position = "{321, 514}";
}
);
layerId = "DE547DD1-6B89-4C93-B672-7CF1D26AB89E";
name = "Bold Italic";
paths = (
{
closed = 1;
nodes = (
"359 417 LINE SMOOTH",
"349 510 OFFCURVE",
"305 533 OFFCURVE",
"232 533 CURVE SMOOTH",
"175 533 OFFCURVE",
"107 519 OFFCURVE",
"79 431 CURVE SMOOTH",
"54 358 LINE",
"73 358 LINE",
"86 395 LINE SMOOTH",
"109 463 OFFCURVE",
"125 470 OFFCURVE",
"141 470 CURVE SMOOTH",
"158 470 OFFCURVE",
"172 465 OFFCURVE",
"177 431 CURVE SMOOTH",
"217 88 LINE SMOOTH",
"225 9 OFFCURVE",
"277 -14 OFFCURVE",
"346 -14 CURVE SMOOTH",
"398 -14 OFFCURVE",
"466 -1 OFFCURVE",
"494 88 CURVE SMOOTH",
"519 161 LINE",
"500 161 LINE",
"487 124 LINE SMOOTH",
"464 56 OFFCURVE",
"447 42 OFFCURVE",
"430 42 CURVE SMOOTH",
"413 42 OFFCURVE",
"402 53 OFFCURVE",
"396 88 CURVE SMOOTH"
);
},
{
closed = 1;
nodes = (
"440 383 OFFCURVE",
"485 359 OFFCURVE",
"527 359 CURVE SMOOTH",
"580 359 OFFCURVE",
"617 396 OFFCURVE",
"617 448 CURVE SMOOTH",
"617 502 OFFCURVE",
"578 533 OFFCURVE",
"524 533 CURVE SMOOTH",
"487 533 OFFCURVE",
"444 521 OFFCURVE",
"408 472 CURVE SMOOTH",
"354 398 OFFCURVE",
"321 285 OFFCURVE",
"317 265 CURVE",
"317 265 OFFCURVE",
"337 264 OFFCURVE",
"337 264 CURVE",
"352 320 OFFCURVE",
"379 399 OFFCURVE",
"421 456 CURVE"
);
},
{
closed = 1;
nodes = (
"132 121 OFFCURVE",
"99 160 OFFCURVE",
"46 160 CURVE SMOOTH",
"-4 160 OFFCURVE",
"-46 125 OFFCURVE",
"-46 66 CURVE SMOOTH",
"-46 17 OFFCURVE",
"-11 -14 OFFCURVE",
"46 -14 CURVE SMOOTH",
"83 -14 OFFCURVE",
"126 -1 OFFCURVE",
"163 47 CURVE SMOOTH",
"208 106 OFFCURVE",
"240 198 OFFCURVE",
"254 254 CURVE",
"254 254 OFFCURVE",
"234 255 OFFCURVE",
"234 255 CURVE",
"219 199 OFFCURVE",
"192 120 OFFCURVE",
"150 63 CURVE"
);
}
);
width = 591;
}
);
leftKerningGroup = x;
rightKerningGroup = x;
unicode = 0078;
},
{
glyphname = y;
lastChange = "2012-10-22 16:09:29 +0100";
layers = (
{
anchors = (
{
name = top;
position = "{287, 514}";
}
);
layerId = UUID0;
name = "Regular Italic";
paths = (
{
closed = 1;
nodes = (
"229 436 LINE SMOOTH",
"219 507 OFFCURVE",
"198 528 OFFCURVE",
"157 528 CURVE SMOOTH",
"114 528 OFFCURVE",
"70 507 OFFCURVE",
"42 426 CURVE SMOOTH",
"17 353 LINE",
"36 353 LINE",
"49 390 LINE SMOOTH",
"76 466 OFFCURVE",
"93 482 OFFCURVE",
"108 482 CURVE SMOOTH",
"125 482 OFFCURVE",
"133 468 OFFCURVE",
"140 427 CURVE SMOOTH",
"216 -33 LINE",
"283 40 LINE"
);
},
{
closed = 1;
nodes = (
"39 -121 OFFCURVE",
"12 -102 OFFCURVE",
"-19 -102 CURVE SMOOTH",
"-47 -102 OFFCURVE",
"-73 -118 OFFCURVE",
"-73 -147 CURVE SMOOTH",
"-73 -174 OFFCURVE",
"-50 -188 OFFCURVE",
"-23 -188 CURVE SMOOTH",
"-5 -188 OFFCURVE",
"24 -182 OFFCURVE",
"64 -163 CURVE SMOOTH",
"160 -117 OFFCURVE",
"229 -37 OFFCURVE",
"261 3 CURVE SMOOTH",
"356 122 OFFCURVE",
"458 312 OFFCURVE",
"458 447 CURVE SMOOTH",
"458 500 OFFCURVE",
"442 528 OFFCURVE",
"406 528 CURVE SMOOTH",
"378 528 OFFCURVE",
"357 511 OFFCURVE",
"355 481 CURVE SMOOTH",
"352 435 OFFCURVE",
"399 402 OFFCURVE",
"431 385 CURVE",
"406 258 OFFCURVE",
"335 128 OFFCURVE",
"256 28 CURVE SMOOTH",
"186 -61 OFFCURVE",
"121 -111 OFFCURVE",
"64 -141 CURVE"
);
}
);
width = 481;
},
{
anchors = (
{
name = top;
position = "{307, 514}";
}
);
layerId = "DE547DD1-6B89-4C93-B672-7CF1D26AB89E";
name = "Bold Italic";
paths = (
{
closed = 1;
nodes = (
"277 414 LINE SMOOTH",
"263 507 OFFCURVE",
"222 533 OFFCURVE",
"159 533 CURVE SMOOTH",
"102 533 OFFCURVE",
"58 511 OFFCURVE",
"30 430 CURVE SMOOTH",
"5 357 LINE",
"24 357 LINE",
"45 413 LINE SMOOTH",
"65 466 OFFCURVE",
"72 476 OFFCURVE",
"85 476 CURVE SMOOTH",
"97 476 OFFCURVE",
"100 466 OFFCURVE",
"106 433 CURVE SMOOTH",
"190 -78 LINE",
"323 75 LINE"
);
},
{
closed = 1;
nodes = (
"38 -80 OFFCURVE",
"-3 -49 OFFCURVE",
"-52 -49 CURVE SMOOTH",
"-102 -49 OFFCURVE",
"-132 -83 OFFCURVE",
"-132 -122 CURVE SMOOTH",
"-132 -163 OFFCURVE",
"-103 -188 OFFCURVE",
"-49 -188 CURVE SMOOTH",
"-33 -188 OFFCURVE",
"-11 -185 OFFCURVE",
"10 -180 CURVE SMOOTH",
"99 -159 OFFCURVE",
"193 -97 OFFCURVE",
"278 4 CURVE SMOOTH",
"385 131 OFFCURVE",
"475 317 OFFCURVE",
"475 436 CURVE SMOOTH",
"475 496 OFFCURVE",
"452 533 OFFCURVE",
"399 533 CURVE SMOOTH",
"349 533 OFFCURVE",
"321 501 OFFCURVE",
"321 451 CURVE SMOOTH",
"321 389 OFFCURVE",
"364 334 OFFCURVE",
"425 300 CURVE",
"397 220 OFFCURVE",
"345 119 OFFCURVE",
"275 31 CURVE SMOOTH",
"204 -59 OFFCURVE",
"136 -108 OFFCURVE",
"71 -137 CURVE"
);
}
);
width = 483;
}
);
leftKerningGroup = y;
rightKerningGroup = y;
unicode = 0079;
},
{
glyphname = z;
lastChange = "2012-10-22 16:33:20 +0100";
layers = (
{
anchors = (
{
name = bottom;
position = "{128, 0}";
},
{
name = top;
position = "{286, 514}";
}
);
layerId = UUID0;
name = "Regular Italic";
paths = (
{
closed = 1;
nodes = (
"476 514 LINE",
"449 514 LINE",
"421 485 OFFCURVE",
"394 477 OFFCURVE",
"359 477 CURVE SMOOTH",
"282 477 OFFCURVE",
"257 520 OFFCURVE",
"187 520 CURVE SMOOTH",
"102 520 OFFCURVE",
"71 468 OFFCURVE",
"71 415 CURVE SMOOTH",
"71 364 OFFCURVE",
"107 332 OFFCURVE",
"168 318 CURVE",
"174 333 LINE",
"128 342 OFFCURVE",
"95 369 OFFCURVE",
"95 405 CURVE SMOOTH",
"95 439 OFFCURVE",
"116 455 OFFCURVE",
"150 455 CURVE SMOOTH",
"201 455 OFFCURVE",
"237 423 OFFCURVE",
"285 423 CURVE SMOOTH",
"322 423 OFFCURVE",
"355 439 OFFCURVE",
"412 475 CURVE",
"-39 0 LINE",
"-12 0 LINE",
"16 29 OFFCURVE",
"43 37 OFFCURVE",
"78 37 CURVE SMOOTH",
"155 37 OFFCURVE",
"180 -6 OFFCURVE",
"250 -6 CURVE SMOOTH",
"335 -6 OFFCURVE",
"366 46 OFFCURVE",
"366 99 CURVE SMOOTH",
"366 150 OFFCURVE",
"330 182 OFFCURVE",
"269 196 CURVE",
"263 181 LINE",
"309 172 OFFCURVE",
"342 145 OFFCURVE",
"342 109 CURVE SMOOTH",
"342 75 OFFCURVE",
"321 59 OFFCURVE",
"287 59 CURVE SMOOTH",
"236 59 OFFCURVE",
"200 91 OFFCURVE",
"152 91 CURVE SMOOTH",
"115 91 OFFCURVE",
"82 75 OFFCURVE",
"25 39 CURVE"
);
}
);
width = 445;
},
{
anchors = (
{
name = bottom;
position = "{150, 0}";
},
{
name = top;
position = "{302, 514}";
}
);
layerId = "DE547DD1-6B89-4C93-B672-7CF1D26AB89E";
name = "Bold Italic";
paths = (
{
closed = 1;
nodes = (
"536 518 LINE",
"505 518 LINE",
"478 483 OFFCURVE",
"454 471 OFFCURVE",
"413 471 CURVE SMOOTH",
"327 471 OFFCURVE",
"296 528 OFFCURVE",
"204 528 CURVE SMOOTH",
"97 528 OFFCURVE",
"43 458 OFFCURVE",
"43 390 CURVE SMOOTH",
"43 332 OFFCURVE",
"83 298 OFFCURVE",
"154 282 CURVE",
"160 297 LINE",
"129 311 OFFCURVE",
"116 321 OFFCURVE",
"116 344 CURVE SMOOTH",
"116 357 OFFCURVE",
"125 369 OFFCURVE",
"142 369 CURVE SMOOTH",
"171 369 OFFCURVE",
"181 337 OFFCURVE",
"227 337 CURVE SMOOTH",
"289 337 OFFCURVE",
"368 432 OFFCURVE",
"448 461 CURVE",
"-61 0 LINE",
"-30 0 LINE",
"-2 37 OFFCURVE",
"25 47 OFFCURVE",
"61 47 CURVE SMOOTH",
"151 47 OFFCURVE",
"187 -14 OFFCURVE",
"279 -14 CURVE SMOOTH",
"367 -14 OFFCURVE",
"412 42 OFFCURVE",
"412 113 CURVE SMOOTH",
"412 173 OFFCURVE",
"379 208 OFFCURVE",
"301 226 CURVE",
"295 211 LINE",
"316 205 OFFCURVE",
"339 192 OFFCURVE",
"339 164 CURVE SMOOTH",
"339 155 OFFCURVE",
"332 139 OFFCURVE",
"314 139 CURVE SMOOTH",
"282 139 OFFCURVE",
"275 171 OFFCURVE",
"227 171 CURVE SMOOTH",
"172 171 OFFCURVE",
"106 92 OFFCURVE",
"39 67 CURVE"
);
}
);
width = 476;
}
);
leftKerningGroup = z;
rightKerningGroup = z;
unicode = 007A;
},
